<?xml version="1.0" encoding="UTF-8" standalone="no"?>
<!-- Created with Inkscape (http://www.inkscape.org/) -->

<svg
   xmlns:dc="http://purl.org/dc/elements/1.1/"
   xmlns:cc="http://creativecommons.org/ns#"
   xmlns:rdf="http://www.w3.org/1999/02/22-rdf-syntax-ns#"
   xmlns:svg="http://www.w3.org/2000/svg"
   xmlns="http://www.w3.org/2000/svg"
   xmlns:sodipodi="http://sodipodi.sourceforge.net/DTD/sodipodi-0.dtd"
   xmlns:inkscape="http://www.inkscape.org/namespaces/inkscape"
   width="97.484451mm"
   height="28.599072mm"
   viewBox="0 0 345.41735 101.33529"
   id="svg2"
   version="1.1"
   inkscape:version="0.91 r13725"
   sodipodi:docname="EmergencyWake_Logo.svg">
  <defs
     id="defs4" />
  <sodipodi:namedview
     id="base"
     pagecolor="#ffffff"
     bordercolor="#666666"
     borderopacity="1.0"
     inkscape:pageopacity="0.0"
     inkscape:pageshadow="2"
     inkscape:zoom="1.979899"
     inkscape:cx="154.14758"
     inkscape:cy="94.863761"
     inkscape:document-units="mm"
     inkscape:current-layer="layer1"
     showgrid="false"
     inkscape:window-width="1920"
     inkscape:window-height="1026"
     inkscape:window-x="0"
     inkscape:window-y="0"
     inkscape:window-maximized="1"
     fit-margin-top="1"
     fit-margin-left="1"
     fit-margin-right="1"
     fit-margin-bottom="1"
     showguides="false" />
  <metadata
     id="metadata7">
    <rdf:RDF>
      <cc:Work
         rdf:about="">
        <dc:format>image/svg+xml</dc:format>
        <dc:type
           rdf:resource="http://purl.org/dc/dcmitype/StillImage" />
        <dc:title></dc:title>
      </cc:Work>
    </rdf:RDF>
  </metadata>
  <g
     inkscape:label="Layer 1"
     inkscape:groupmode="layer"
     id="layer1"
     transform="translate(-163.58678,-314.31561)">
    <path
       id="path4143"
       style="font-style:italic;font-variant:normal;font-weight:normal;font-stretch:normal;font-size:40px;line-height:125%;font-family:'SF Square Head Condensed';-inkscape-font-specification:'SF Square Head Condensed, Italic';text-align:start;letter-spacing:0px;word-spacing:0px;writing-mode:lr-tb;text-anchor:start;fill:#000000;fill-opacity:1;stroke:none;stroke-width:1px;stroke-linecap:butt;stroke-linejoin:miter;stroke-opacity:1"
       d="m 207.30637,317.85892 -1.53409,5.91735 -25.45742,0 -2.98523,11.83469 25.45742,0 -1.53407,5.91735 -25.45742,0 -2.98523,11.80582 25.49888,0 -1.53409,5.91736 -29.64503,0 10.44831,-41.39257 29.72797,0 z"
       inkscape:connector-curvature="0" />
    <path
       id="path4145"
       style="font-style:italic;font-variant:normal;font-weight:normal;font-stretch:normal;font-size:40px;line-height:125%;font-family:'SF Square Head Condensed';-inkscape-font-specification:'SF Square Head Condensed, Italic';text-align:start;letter-spacing:0px;word-spacing:0px;writing-mode:lr-tb;text-anchor:start;fill:#000000;fill-opacity:1;stroke:none;stroke-width:1px;stroke-linecap:butt;stroke-linejoin:miter;stroke-opacity:1"
       d="m 249.79476,335.61096 -5.92901,23.64053 -4.22909,0 4.47786,-17.72318 -12.72872,0 -4.5193,17.72318 -4.22909,0 4.47787,-17.72318 -12.72872,0 -4.47784,17.72318 -4.18763,0 5.88755,-23.64053 38.18612,0 z"
       inkscape:connector-curvature="0" />
    <path
       id="path4147"
       style="font-style:italic;font-variant:normal;font-weight:normal;font-stretch:normal;font-size:40px;line-height:125%;font-family:'SF Square Head Condensed';-inkscape-font-specification:'SF Square Head Condensed, Italic';text-align:start;letter-spacing:0px;word-spacing:0px;writing-mode:lr-tb;text-anchor:start;fill:#000000;fill-opacity:1;stroke:none;stroke-width:1px;stroke-linecap:butt;stroke-linejoin:miter;stroke-opacity:1"
       d="m 286.06412,335.61096 -3.73154,14.77893 -25.45741,0 -0.74631,2.94424 25.45742,0 -1.45117,5.91736 -29.64502,0 5.88755,-23.64053 29.68648,0 z m -5.68023,5.91735 -21.22833,0 -0.74631,2.94424 21.22833,0 0.74631,-2.94424 z"
       inkscape:connector-curvature="0" />
    <path
       id="path4149"
       style="font-style:italic;font-variant:normal;font-weight:normal;font-stretch:normal;font-size:40px;line-height:125%;font-family:'SF Square Head Condensed';-inkscape-font-specification:'SF Square Head Condensed, Italic';text-align:start;letter-spacing:0px;word-spacing:0px;writing-mode:lr-tb;text-anchor:start;fill:#000000;fill-opacity:1;stroke:none;stroke-width:1px;stroke-linecap:butt;stroke-linejoin:miter;stroke-opacity:1"
       d="m 322.37413,335.61096 -1.40969,5.91735 -25.49888,0 -4.47786,17.72318 -4.18761,0 5.88753,-23.64053 29.68651,0 z"
       inkscape:connector-curvature="0" />
    <path
       id="path4151"
       style="font-style:italic;font-variant:normal;font-weight:normal;font-stretch:normal;font-size:40px;line-height:125%;font-family:'SF Square Head Condensed';-inkscape-font-specification:'SF Square Head Condensed, Italic';text-align:start;letter-spacing:0px;word-spacing:0px;writing-mode:lr-tb;text-anchor:start;fill:#000000;fill-opacity:1;stroke:none;stroke-width:1px;stroke-linecap:butt;stroke-linejoin:miter;stroke-opacity:1"
       d="m 360.21882,335.61096 -8.99716,35.41749 -29.60357,0 1.49261,-5.91735 25.41596,0 1.45115,-5.85961 -25.41596,0 5.97046,-23.64053 29.68651,0 z m -5.76315,5.91735 -21.22833,0 -2.98524,11.80582 21.22833,0 2.98524,-11.80582 z"
       inkscape:connector-curvature="0" />
    <path
       id="path4153"
       style="font-style:italic;font-variant:normal;font-weight:normal;font-stretch:normal;font-size:40px;line-height:125%;font-family:'SF Square Head Condensed';-inkscape-font-specification:'SF Square Head Condensed, Italic';text-align:start;letter-spacing:0px;word-spacing:0px;writing-mode:lr-tb;text-anchor:start;fill:#000000;fill-opacity:1;stroke:none;stroke-width:1px;stroke-linecap:butt;stroke-linejoin:miter;stroke-opacity:1"
       d="m 394.99513,335.61096 -3.73154,14.77893 -25.45742,0 -0.7463,2.94424 25.4574,0 -1.45115,5.91736 -29.64503,0 5.88753,-23.64053 29.68651,0 z m -5.68024,5.91735 -21.22833,0 -0.74632,2.94424 21.22833,0 0.74632,-2.94424 z"
       inkscape:connector-curvature="0" />
    <path
       style="font-style:italic;font-variant:normal;font-weight:normal;font-stretch:normal;font-size:40px;line-height:125%;font-family:'SF Square Head Condensed';-inkscape-font-specification:'SF Square Head Condensed, Italic';text-align:start;letter-spacing:0px;word-spacing:0px;writing-mode:lr-tb;text-anchor:start;fill:#000000;fill-opacity:1;stroke:none;stroke-width:1px;stroke-linecap:butt;stroke-linejoin:miter;stroke-opacity:1"
       d="m 401.61891,335.61214 -5.88752,23.64051 4.1876,0 4.47786,-17.72317 21.22834,0 -3.19669,12.6458 c -0.008,0.0276 -0.0212,0.0435 -0.0291,0.0751 l -0.58462,2.3554 -0.66753,2.64693 0.0127,0 -3.64032,14.70099 -47.26206,0 c -8.0635,0 -14.07683,4.59588 -15.46747,10.2096 l -4.39495,17.73472 c -1.39069,5.61371 2.34567,10.20958 10.40917,10.20958 l 103.76591,0 c 8.06348,0 14.24534,-4.59587 15.636,-10.20958 l 4.39493,-17.73472 c 1.39064,-5.61372 -3.03217,-10.2096 -10.57768,-10.2096 l -52.2872,0 3.97201,-16.02012 5.59731,-22.32138 -29.6865,0 z m -32.55978,43.18508 103.76178,0 c 4.32856,0 7.11915,2.35251 6.37263,5.36602 l -4.39078,17.73472 c -0.74654,3.01351 -4.70592,5.36312 -9.03448,5.36312 l -103.76175,0 c -4.32856,0 -7.12334,-2.34961 -6.3768,-5.36312 l 4.39078,-17.73472 c 0.74652,-3.01351 4.71008,-5.36602 9.03862,-5.36602 z"
       id="path4155"
       inkscape:connector-curvature="0"
       sodipodi:nodetypes="cccccccccccsccssccscccccssccssccs" />
    <path
       id="path4157"
       style="font-style:italic;font-variant:normal;font-weight:normal;font-stretch:normal;font-size:40px;line-height:125%;font-family:'SF Square Head Condensed';-inkscape-font-specification:'SF Square Head Condensed, Italic';text-align:start;letter-spacing:0px;word-spacing:0px;writing-mode:lr-tb;text-anchor:start;fill:#000000;fill-opacity:1;stroke:none;stroke-width:1px;stroke-linecap:butt;stroke-linejoin:miter;stroke-opacity:1"
       d="m 467.61613,335.61096 -1.40969,5.91735 -25.49888,0 -3.02669,11.80582 25.4574,0 -1.45115,5.91736 -29.64503,0 5.88753,-23.64053 29.68651,0 z"
       inkscape:connector-curvature="0" />
    <path
       id="path4159"
       style="font-style:italic;font-variant:normal;font-weight:normal;font-stretch:normal;font-size:40px;line-height:125%;font-family:'SF Square Head Condensed';-inkscape-font-specification:'SF Square Head Condensed, Italic';text-align:start;letter-spacing:0px;word-spacing:0px;writing-mode:lr-tb;text-anchor:start;fill:#000000;fill-opacity:1;stroke:none;stroke-width:1px;stroke-linecap:butt;stroke-linejoin:miter;stroke-opacity:1"
       d="m 505.46082,335.61096 -8.99716,35.41749 -29.60357,0 1.49261,-5.91735 25.41596,0 1.45115,-5.85961 -25.41596,0 5.97047,-23.64053 4.22908,0 -4.5193,17.72317 21.22833,0 4.5193,-17.72317 4.22909,0 z"
       inkscape:connector-curvature="0" />
    <text
       xml:space="preserve"
       style="font-style:normal;font-variant:normal;font-weight:normal;font-stretch:normal;font-size:70.84993744px;line-height:125%;font-family:'Asana Math';-inkscape-font-specification:'Asana Math';letter-spacing:0px;word-spacing:0px;fill:#000000;fill-opacity:1;stroke:none;stroke-width:1px;stroke-linecap:butt;stroke-linejoin:miter;stroke-opacity:1"
       x="338.0881"
       y="469.78177"
       id="text4140"
       sodipodi:linespacing="125%"
       transform="scale(1.1984955,0.83437943)"><tspan
         sodipodi:role="line"
         id="tspan4142"
         x="338.0881"
         y="469.78177" /></text>
    <path
       id="path4162"
       style="font-style:italic;font-variant:normal;font-weight:normal;font-stretch:normal;font-size:25.4633503px;line-height:125%;font-family:'SF Square Head Condensed';-inkscape-font-specification:'SF Square Head Condensed, Italic';text-align:start;letter-spacing:0px;word-spacing:0px;writing-mode:lr-tb;text-anchor:start;fill:#000000;fill-opacity:1;stroke:none;stroke-width:1px;stroke-linecap:butt;stroke-linejoin:miter;stroke-opacity:1"
       d="m 394.02466,392.72093 -3.77431,15.04918 -24.28226,0 3.7479,-15.04918 2.69218,0 -2.85054,11.28229 8.10289,0 2.85052,-11.28229 2.71857,0 -2.87693,11.28229 8.1029,0 2.87692,-11.28229 2.69216,0 z"
       inkscape:connector-curvature="0" />
    <path
       id="path4164"
       style="font-style:italic;font-variant:normal;font-weight:normal;font-stretch:normal;font-size:25.4633503px;line-height:125%;font-family:'SF Square Head Condensed';-inkscape-font-specification:'SF Square Head Condensed, Italic';text-align:start;letter-spacing:0px;word-spacing:0px;writing-mode:lr-tb;text-anchor:start;fill:#000000;fill-opacity:1;stroke:none;stroke-width:1px;stroke-linecap:butt;stroke-linejoin:miter;stroke-opacity:1"
       d="m 417.38596,392.72093 -3.77431,15.04918 -18.87156,0 2.32265,-9.40803 16.23219,0 0.47509,-1.87426 -16.2058,0 0.9238,-3.76689 18.89794,0 z m -5.0676,9.40804 -13.51362,0 -0.47509,1.87425 13.51362,0 0.47509,-1.87425 z"
       inkscape:connector-curvature="0" />
    <path
       id="path4166"
       style="font-style:italic;font-variant:normal;font-weight:normal;font-stretch:normal;font-size:25.4633503px;line-height:125%;font-family:'SF Square Head Condensed';-inkscape-font-specification:'SF Square Head Condensed, Italic';text-align:start;letter-spacing:0px;word-spacing:0px;writing-mode:lr-tb;text-anchor:start;fill:#000000;fill-opacity:1;stroke:none;stroke-width:1px;stroke-linecap:butt;stroke-linejoin:miter;stroke-opacity:1"
       d="m 439.37499,392.72093 -0.97656,3.76689 -8.1029,0 5.25235,11.28229 -3.80069,0 -5.22597,-11.28229 -4.32857,0 -2.82415,11.28229 -2.69216,0 6.65124,-26.34983 2.69216,0 -2.85052,11.30065 16.20577,0 z"
       inkscape:connector-curvature="0" />
    <path
       id="path4168"
       style="font-style:italic;font-variant:normal;font-weight:normal;font-stretch:normal;font-size:25.4633503px;line-height:125%;font-family:'SF Square Head Condensed';-inkscape-font-specification:'SF Square Head Condensed, Italic';text-align:start;letter-spacing:0px;word-spacing:0px;writing-mode:lr-tb;text-anchor:start;fill:#000000;fill-opacity:1;stroke:none;stroke-width:1px;stroke-linecap:butt;stroke-linejoin:miter;stroke-opacity:1"
       d="m 464.16194,392.72093 -2.37542,9.40804 -16.2058,0 -0.47509,1.87425 16.2058,0 -0.9238,3.76689 -18.87154,0 3.74791,-15.04918 18.89794,0 z m -3.61594,3.76689 -13.51362,0 -0.47509,1.87426 13.51362,0 0.47509,-1.87426 z"
       inkscape:connector-curvature="0" />
  </g>
</svg>
