  0
SECTION
  2
HEADER
  9
$ACADVER
  1
AC1009
  9
$EXTMIN
 10
0.0
 20
0.0
 30
0.0
  9
$EXTMAX
 10
1000.0
 20
1000.0
 30
0.0
  9
$FILLMODE
 70
 0
  9
$SPLFRAME
 70
 1
  0
ENDSEC
  0
SECTION
  2
TABLES
  0
TABLE
  2
LAYER
 70
1
  0
LAYER
  2
0
 70
     0
 62
     7
  6
CONTINUOUS
  0
ENDTAB
  0
ENDSEC
  0
SECTION
  2
ENTITIES
  0
POLYLINE
  8
0
 62
     0
 66
     1
 10
0
 20
0
 30
0.0
 70
     1
 40
0
 41
0
  0
VERTEX
  8
0
 10
0.485786
 20
1.08653
 30
0.0
 40
0
 41
0
  0
VERTEX
  8
0
 10
0.46875
 20
1.02078
 30
0.0
 40
0
 41
0
  0
VERTEX
  8
0
 10
0.185872
 20
1.02078
 30
0.0
 40
0
 41
0
  0
VERTEX
  8
0
 10
0.152724
 20
0.889324
 30
0.0
 40
0
 41
0
  0
VERTEX
  8
0
 10
0.435547
 20
0.889324
 30
0.0
 40
0
 41
0
  0
VERTEX
  8
0
 10
0.418511
 20
0.823622
 30
0.0
 40
0
 41
0
  0
VERTEX
  8
0
 10
0.135634
 20
0.823622
 30
0.0
 40
0
 41
0
  0
VERTEX
  8
0
 10
0.102485
 20
0.692383
 30
0.0
 40
0
 41
0
  0
VERTEX
  8
0
 10
0.385796
 20
0.692383
 30
0.0
 40
0
 41
0
  0
VERTEX
  8
0
 10
0.368761
 20
0.626628
 30
0.0
 40
0
 41
0
  0
VERTEX
  8
0
 10
0.0393881
 20
0.626628
 30
0.0
 40
0
 41
0
  0
VERTEX
  8
0
 10
0.155436
 20
1.08653
 30
0.0
 40
0
 41
0
  0
VERTEX
  8
0
 10
0.485786
 20
1.08653
 30
0.0
 40
0
 41
0
  0
SEQEND
 8
0
  0
POLYLINE
  8
0
 62
     0
 66
     1
 10
0
 20
0
 30
0.0
 70
     1
 40
0
 41
0
  0
VERTEX
  8
0
 10
0.957844
 20
0.889324
 30
0.0
 40
0
 41
0
  0
VERTEX
  8
0
 10
0.891982
 20
0.626628
 30
0.0
 40
0
 41
0
  0
VERTEX
  8
0
 10
0.844997
 20
0.626628
 30
0.0
 40
0
 41
0
  0
VERTEX
  8
0
 10
0.894749
 20
0.823622
 30
0.0
 40
0
 41
0
  0
VERTEX
  8
0
 10
0.75331
 20
0.823622
 30
0.0
 40
0
 41
0
  0
VERTEX
  8
0
 10
0.703125
 20
0.626628
 30
0.0
 40
0
 41
0
  0
VERTEX
  8
0
 10
0.656142
 20
0.626628
 30
0.0
 40
0
 41
0
  0
VERTEX
  8
0
 10
0.705892
 20
0.823622
 30
0.0
 40
0
 41
0
  0
VERTEX
  8
0
 10
0.564453
 20
0.823622
 30
0.0
 40
0
 41
0
  0
VERTEX
  8
0
 10
0.514703
 20
0.626628
 30
0.0
 40
0
 41
0
  0
VERTEX
  8
0
 10
0.468153
 20
0.626628
 30
0.0
 40
0
 41
0
  0
VERTEX
  8
0
 10
0.533583
 20
0.889324
 30
0.0
 40
0
 41
0
  0
VERTEX
  8
0
 10
0.957844
 20
0.889324
 30
0.0
 40
0
 41
0
  0
SEQEND
 8
0
  0
POLYLINE
  8
0
 62
     0
 66
     1
 10
0
 20
0
 30
0.0
 70
     1
 40
0
 41
0
  0
VERTEX
  8
0
 10
1.36084
 20
0.889324
 30
0.0
 40
0
 41
0
  0
VERTEX
  8
0
 10
1.31939
 20
0.725151
 30
0.0
 40
0
 41
0
  0
VERTEX
  8
0
 10
1.03651
 20
0.725151
 30
0.0
 40
0
 41
0
  0
VERTEX
  8
0
 10
1.02827
 20
0.692383
 30
0.0
 40
0
 41
0
  0
VERTEX
  8
0
 10
1.31109
 20
0.692383
 30
0.0
 40
0
 41
0
  0
VERTEX
  8
0
 10
1.29498
 20
0.626628
 30
0.0
 40
0
 41
0
  0
VERTEX
  8
0
 10
0.965603
 20
0.626628
 30
0.0
 40
0
 41
0
  0
VERTEX
  8
0
 10
1.03103
 20
0.889324
 30
0.0
 40
0
 41
0
  0
VERTEX
  8
0
 10
1.36084
 20
0.889324
 30
0.0
 40
0
 41
0
  0
SEQEND
 8
0
  0
POLYLINE
  8
0
 62
     0
 66
     1
 10
0
 20
0
 30
0.0
 70
     1
 40
0
 41
0
  0
VERTEX
  8
0
 10
1.29774
 20
0.823622
 30
0.0
 40
0
 41
0
  0
VERTEX
  8
0
 10
1.06185
 20
0.823622
 30
0.0
 40
0
 41
0
  0
VERTEX
  8
0
 10
1.0536
 20
0.790853
 30
0.0
 40
0
 41
0
  0
VERTEX
  8
0
 10
1.28944
 20
0.790853
 30
0.0
 40
0
 41
0
  0
VERTEX
  8
0
 10
1.29774
 20
0.823622
 30
0.0
 40
0
 41
0
  0
SEQEND
 8
0
  0
POLYLINE
  8
0
 62
     0
 66
     1
 10
0
 20
0
 30
0.0
 70
     1
 40
0
 41
0
  0
VERTEX
  8
0
 10
1.76432
 20
0.889324
 30
0.0
 40
0
 41
0
  0
VERTEX
  8
0
 10
1.74864
 20
0.823622
 30
0.0
 40
0
 41
0
  0
VERTEX
  8
0
 10
1.46533
 20
0.823622
 30
0.0
 40
0
 41
0
  0
VERTEX
  8
0
 10
1.41558
 20
0.626628
 30
0.0
 40
0
 41
0
  0
VERTEX
  8
0
 10
1.36903
 20
0.626628
 30
0.0
 40
0
 41
0
  0
VERTEX
  8
0
 10
1.43446
 20
0.889324
 30
0.0
 40
0
 41
0
  0
VERTEX
  8
0
 10
1.76432
 20
0.889324
 30
0.0
 40
0
 41
0
  0
SEQEND
 8
0
  0
POLYLINE
  8
0
 62
     0
 66
     1
 10
0
 20
0
 30
0.0
 70
     1
 40
0
 41
0
  0
VERTEX
  8
0
 10
2.18479
 20
0.889324
 30
0.0
 40
0
 41
0
  0
VERTEX
  8
0
 10
2.08485
 20
0.495768
 30
0.0
 40
0
 41
0
  0
VERTEX
  8
0
 10
1.75592
 20
0.495768
 30
0.0
 40
0
 41
0
  0
VERTEX
  8
0
 10
1.77246
 20
0.561578
 30
0.0
 40
0
 41
0
  0
VERTEX
  8
0
 10
2.0549
 20
0.561578
 30
0.0
 40
0
 41
0
  0
VERTEX
  8
0
 10
2.07101
 20
0.626628
 30
0.0
 40
0
 41
0
  0
VERTEX
  8
0
 10
1.78863
 20
0.626628
 30
0.0
 40
0
 41
0
  0
VERTEX
  8
0
 10
1.85493
 20
0.889324
 30
0.0
 40
0
 41
0
  0
VERTEX
  8
0
 10
2.18479
 20
0.889324
 30
0.0
 40
0
 41
0
  0
SEQEND
 8
0
  0
POLYLINE
  8
0
 62
     0
 66
     1
 10
0
 20
0
 30
0.0
 70
     1
 40
0
 41
0
  0
VERTEX
  8
0
 10
2.12076
 20
0.823622
 30
0.0
 40
0
 41
0
  0
VERTEX
  8
0
 10
1.88487
 20
0.823622
 30
0.0
 40
0
 41
0
  0
VERTEX
  8
0
 10
1.85172
 20
0.692383
 30
0.0
 40
0
 41
0
  0
VERTEX
  8
0
 10
2.08763
 20
0.692383
 30
0.0
 40
0
 41
0
  0
VERTEX
  8
0
 10
2.12076
 20
0.823622
 30
0.0
 40
0
 41
0
  0
SEQEND
 8
0
  0
POLYLINE
  8
0
 62
     0
 66
     1
 10
0
 20
0
 30
0.0
 70
     1
 40
0
 41
0
  0
VERTEX
  8
0
 10
2.57118
 20
0.889324
 30
0.0
 40
0
 41
0
  0
VERTEX
  8
0
 10
2.52974
 20
0.725151
 30
0.0
 40
0
 41
0
  0
VERTEX
  8
0
 10
2.2469
 20
0.725151
 30
0.0
 40
0
 41
0
  0
VERTEX
  8
0
 10
2.23861
 20
0.692383
 30
0.0
 40
0
 41
0
  0
VERTEX
  8
0
 10
2.52143
 20
0.692383
 30
0.0
 40
0
 41
0
  0
VERTEX
  8
0
 10
2.50532
 20
0.626628
 30
0.0
 40
0
 41
0
  0
VERTEX
  8
0
 10
2.17594
 20
0.626628
 30
0.0
 40
0
 41
0
  0
VERTEX
  8
0
 10
2.24137
 20
0.889324
 30
0.0
 40
0
 41
0
  0
VERTEX
  8
0
 10
2.57118
 20
0.889324
 30
0.0
 40
0
 41
0
  0
SEQEND
 8
0
  0
POLYLINE
  8
0
 62
     0
 66
     1
 10
0
 20
0
 30
0.0
 70
     1
 40
0
 41
0
  0
VERTEX
  8
0
 10
2.50808
 20
0.823622
 30
0.0
 40
0
 41
0
  0
VERTEX
  8
0
 10
2.27225
 20
0.823622
 30
0.0
 40
0
 41
0
  0
VERTEX
  8
0
 10
2.26394
 20
0.790853
 30
0.0
 40
0
 41
0
  0
VERTEX
  8
0
 10
2.49978
 20
0.790853
 30
0.0
 40
0
 41
0
  0
VERTEX
  8
0
 10
2.50808
 20
0.823622
 30
0.0
 40
0
 41
0
  0
SEQEND
 8
0
  0
POLYLINE
  8
0
 62
     0
 66
     1
 10
0
 20
0
 30
0.0
 70
     1
 40
0
 41
0
  0
VERTEX
  8
0
 10
2.64481
 20
0.889268
 30
0.0
 40
0
 41
0
  0
VERTEX
  8
0
 10
2.57937
 20
0.626628
 30
0.0
 40
0
 41
0
  0
VERTEX
  8
0
 10
2.62592
 20
0.626628
 30
0.0
 40
0
 41
0
  0
VERTEX
  8
0
 10
2.67567
 20
0.823622
 30
0.0
 40
0
 41
0
  0
VERTEX
  8
0
 10
2.91151
 20
0.823622
 30
0.0
 40
0
 41
0
  0
VERTEX
  8
0
 10
2.87603
 20
0.683106
 30
0.0
 40
0
 41
0
  0
VERTEX
  8
0
 10
2.87597
 20
0.683051
 30
0.0
 40
0
 41
0
  0
VERTEX
  8
0
 10
2.87571
 20
0.682292
 30
0.0
 40
0
 41
0
  0
VERTEX
  8
0
 10
2.87571
 20
0.682183
 30
0.0
 40
0
 41
0
  0
VERTEX
  8
0
 10
2.86919
 20
0.656033
 30
0.0
 40
0
 41
0
  0
VERTEX
  8
0
 10
2.86176
 20
0.626628
 30
0.0
 40
0
 41
0
  0
VERTEX
  8
0
 10
2.86193
 20
0.626628
 30
0.0
 40
0
 41
0
  0
VERTEX
  8
0
 10
2.82146
 20
0.463271
 30
0.0
 40
0
 41
0
  0
VERTEX
  8
0
 10
2.29633
 20
0.463271
 30
0.0
 40
0
 41
0
  0
VERTEX
  8
0
 10
2.28071
 20
0.463271
 30
0.0
 40
0
 41
0
  0
VERTEX
  8
0
 10
2.23383
 20
0.454372
 30
0.0
 40
0
 41
0
  0
VERTEX
  8
0
 10
2.18257
 20
0.430012
 30
0.0
 40
0
 41
0
  0
VERTEX
  8
0
 10
2.14524
 20
0.393935
 30
0.0
 40
0
 41
0
  0
VERTEX
  8
0
 10
2.12728
 20
0.361436
 30
0.0
 40
0
 41
0
  0
VERTEX
  8
0
 10
2.12446
 20
0.349826
 30
0.0
 40
0
 41
0
  0
VERTEX
  8
0
 10
2.07563
 20
0.152832
 30
0.0
 40
0
 41
0
  0
VERTEX
  8
0
 10
2.07303
 20
0.142415
 30
0.0
 40
0
 41
0
  0
VERTEX
  8
0
 10
2.0746
 20
0.108832
 30
0.0
 40
0
 41
0
  0
VERTEX
  8
0
 10
2.09407
 20
0.0727539
 30
0.0
 40
0
 41
0
  0
VERTEX
  8
0
 10
2.13325
 20
0.0483399
 30
0.0
 40
0
 41
0
  0
VERTEX
  8
0
 10
2.17676
 20
0.0393881
 30
0.0
 40
0
 41
0
  0
VERTEX
  8
0
 10
2.19129
 20
0.0393881
 30
0.0
 40
0
 41
0
  0
VERTEX
  8
0
 10
3.34424
 20
0.0393881
 30
0.0
 40
0
 41
0
  0
VERTEX
  8
0
 10
3.35992
 20
0.0393881
 30
0.0
 40
0
 41
0
  0
VERTEX
  8
0
 10
3.40701
 20
0.0483399
 30
0.0
 40
0
 41
0
  0
VERTEX
  8
0
 10
3.45893
 20
0.0727539
 30
0.0
 40
0
 41
0
  0
VERTEX
  8
0
 10
3.4969
 20
0.108832
 30
0.0
 40
0
 41
0
  0
VERTEX
  8
0
 10
3.51514
 20
0.141276
 30
0.0
 40
0
 41
0
  0
VERTEX
  8
0
 10
3.51801
 20
0.152832
 30
0.0
 40
0
 41
0
  0
VERTEX
  8
0
 10
3.56685
 20
0.349826
 30
0.0
 40
0
 41
0
  0
VERTEX
  8
0
 10
3.56939
 20
0.360243
 30
0.0
 40
0
 41
0
  0
VERTEX
  8
0
 10
3.56679
 20
0.393935
 30
0.0
 40
0
 41
0
  0
VERTEX
  8
0
 10
3.54531
 20
0.430012
 30
0.0
 40
0
 41
0
  0
VERTEX
  8
0
 10
3.50515
 20
0.454372
 30
0.0
 40
0
 41
0
  0
VERTEX
  8
0
 10
3.46322
 20
0.463271
 30
0.0
 40
0
 41
0
  0
VERTEX
  8
0
 10
3.44928
 20
0.463271
 30
0.0
 40
0
 41
0
  0
VERTEX
  8
0
 10
2.86833
 20
0.463271
 30
0.0
 40
0
 41
0
  0
VERTEX
  8
0
 10
2.91243
 20
0.641331
 30
0.0
 40
0
 41
0
  0
VERTEX
  8
0
 10
2.97467
 20
0.889268
 30
0.0
 40
0
 41
0
  0
VERTEX
  8
0
 10
2.64481
 20
0.889268
 30
0.0
 40
0
 41
0
  0
SEQEND
 8
0
  0
POLYLINE
  8
0
 62
     0
 66
     1
 10
0
 20
0
 30
0.0
 70
     1
 40
0
 41
0
  0
VERTEX
  8
0
 10
2.28304
 20
0.409451
 30
0.0
 40
0
 41
0
  0
VERTEX
  8
0
 10
3.43593
 20
0.409451
 30
0.0
 40
0
 41
0
  0
VERTEX
  8
0
 10
3.44401
 20
0.409451
 30
0.0
 40
0
 41
0
  0
VERTEX
  8
0
 10
3.46843
 20
0.404893
 30
0.0
 40
0
 41
0
  0
VERTEX
  8
0
 10
3.49246
 20
0.392199
 30
0.0
 40
0
 41
0
  0
VERTEX
  8
0
 10
3.50592
 20
0.373318
 30
0.0
 40
0
 41
0
  0
VERTEX
  8
0
 10
3.50808
 20
0.355306
 30
0.0
 40
0
 41
0
  0
VERTEX
  8
0
 10
3.50672
 20
0.349826
 30
0.0
 40
0
 41
0
  0
VERTEX
  8
0
 10
3.45796
 20
0.152832
 30
0.0
 40
0
 41
0
  0
VERTEX
  8
0
 10
3.45637
 20
0.146647
 30
0.0
 40
0
 41
0
  0
VERTEX
  8
0
 10
3.44547
 20
0.129449
 30
0.0
 40
0
 41
0
  0
VERTEX
  8
0
 10
3.42264
 20
0.110514
 30
0.0
 40
0
 41
0
  0
VERTEX
  8
0
 10
3.39236
 20
0.0978733
 30
0.0
 40
0
 41
0
  0
VERTEX
  8
0
 10
3.36626
 20
0.0932617
 30
0.0
 40
0
 41
0
  0
VERTEX
  8
0
 10
3.35758
 20
0.0932617
 30
0.0
 40
0
 41
0
  0
VERTEX
  8
0
 10
2.20464
 20
0.0932617
 30
0.0
 40
0
 41
0
  0
VERTEX
  8
0
 10
2.1965
 20
0.0932617
 30
0.0
 40
0
 41
0
  0
VERTEX
  8
0
 10
2.1721
 20
0.0978733
 30
0.0
 40
0
 41
0
  0
VERTEX
  8
0
 10
2.14806
 20
0.110514
 30
0.0
 40
0
 41
0
  0
VERTEX
  8
0
 10
2.1346
 20
0.129449
 30
0.0
 40
0
 41
0
  0
VERTEX
  8
0
 10
2.13243
 20
0.147407
 30
0.0
 40
0
 41
0
  0
VERTEX
  8
0
 10
2.13379
 20
0.152832
 30
0.0
 40
0
 41
0
  0
VERTEX
  8
0
 10
2.18261
 20
0.349826
 30
0.0
 40
0
 41
0
  0
VERTEX
  8
0
 10
2.18414
 20
0.356119
 30
0.0
 40
0
 41
0
  0
VERTEX
  8
0
 10
2.19504
 20
0.373318
 30
0.0
 40
0
 41
0
  0
VERTEX
  8
0
 10
2.21789
 20
0.392199
 30
0.0
 40
0
 41
0
  0
VERTEX
  8
0
 10
2.24821
 20
0.404893
 30
0.0
 40
0
 41
0
  0
VERTEX
  8
0
 10
2.27431
 20
0.409451
 30
0.0
 40
0
 41
0
  0
VERTEX
  8
0
 10
2.28304
 20
0.409451
 30
0.0
 40
0
 41
0
  0
SEQEND
 8
0
  0
POLYLINE
  8
0
 62
     0
 66
     1
 10
0
 20
0
 30
0.0
 70
     1
 40
0
 41
0
  0
VERTEX
  8
0
 10
3.3781
 20
0.889324
 30
0.0
 40
0
 41
0
  0
VERTEX
  8
0
 10
3.36247
 20
0.823622
 30
0.0
 40
0
 41
0
  0
VERTEX
  8
0
 10
3.0791
 20
0.823622
 30
0.0
 40
0
 41
0
  0
VERTEX
  8
0
 10
3.04546
 20
0.692383
 30
0.0
 40
0
 41
0
  0
VERTEX
  8
0
 10
3.32835
 20
0.692383
 30
0.0
 40
0
 41
0
  0
VERTEX
  8
0
 10
3.31222
 20
0.626628
 30
0.0
 40
0
 41
0
  0
VERTEX
  8
0
 10
2.98286
 20
0.626628
 30
0.0
 40
0
 41
0
  0
VERTEX
  8
0
 10
3.04824
 20
0.889324
 30
0.0
 40
0
 41
0
  0
VERTEX
  8
0
 10
3.3781
 20
0.889324
 30
0.0
 40
0
 41
0
  0
SEQEND
 8
0
  0
POLYLINE
  8
0
 62
     0
 66
     1
 10
0
 20
0
 30
0.0
 70
     1
 40
0
 41
0
  0
VERTEX
  8
0
 10
3.79861
 20
0.889324
 30
0.0
 40
0
 41
0
  0
VERTEX
  8
0
 10
3.69862
 20
0.495768
 30
0.0
 40
0
 41
0
  0
VERTEX
  8
0
 10
3.36968
 20
0.495768
 30
0.0
 40
0
 41
0
  0
VERTEX
  8
0
 10
3.38629
 20
0.561578
 30
0.0
 40
0
 41
0
  0
VERTEX
  8
0
 10
3.66868
 20
0.561578
 30
0.0
 40
0
 41
0
  0
VERTEX
  8
0
 10
3.68479
 20
0.626628
 30
0.0
 40
0
 41
0
  0
VERTEX
  8
0
 10
3.4024
 20
0.626628
 30
0.0
 40
0
 41
0
  0
VERTEX
  8
0
 10
3.46875
 20
0.889324
 30
0.0
 40
0
 41
0
  0
VERTEX
  8
0
 10
3.51574
 20
0.889324
 30
0.0
 40
0
 41
0
  0
VERTEX
  8
0
 10
3.46556
 20
0.692383
 30
0.0
 40
0
 41
0
  0
VERTEX
  8
0
 10
3.70139
 20
0.692383
 30
0.0
 40
0
 41
0
  0
VERTEX
  8
0
 10
3.75163
 20
0.889324
 30
0.0
 40
0
 41
0
  0
VERTEX
  8
0
 10
3.79861
 20
0.889324
 30
0.0
 40
0
 41
0
  0
SEQEND
 8
0
  0
POLYLINE
  8
0
 62
     0
 66
     1
 10
0
 20
0
 30
0.0
 70
     1
 40
0
 41
0
  0
VERTEX
  8
0
 10
2.56044
 20
0.254829
 30
0.0
 40
0
 41
0
  0
VERTEX
  8
0
 10
2.5185
 20
0.0876193
 30
0.0
 40
0
 41
0
  0
VERTEX
  8
0
 10
2.24869
 20
0.0876193
 30
0.0
 40
0
 41
0
  0
VERTEX
  8
0
 10
2.29031
 20
0.254829
 30
0.0
 40
0
 41
0
  0
VERTEX
  8
0
 10
2.32026
 20
0.254829
 30
0.0
 40
0
 41
0
  0
VERTEX
  8
0
 10
2.28857
 20
0.129395
 30
0.0
 40
0
 41
0
  0
VERTEX
  8
0
 10
2.37858
 20
0.129395
 30
0.0
 40
0
 41
0
  0
VERTEX
  8
0
 10
2.41026
 20
0.254829
 30
0.0
 40
0
 41
0
  0
VERTEX
  8
0
 10
2.44049
 20
0.254829
 30
0.0
 40
0
 41
0
  0
VERTEX
  8
0
 10
2.40853
 20
0.129395
 30
0.0
 40
0
 41
0
  0
VERTEX
  8
0
 10
2.49854
 20
0.129395
 30
0.0
 40
0
 41
0
  0
VERTEX
  8
0
 10
2.53049
 20
0.254829
 30
0.0
 40
0
 41
0
  0
VERTEX
  8
0
 10
2.56044
 20
0.254829
 30
0.0
 40
0
 41
0
  0
SEQEND
 8
0
  0
POLYLINE
  8
0
 62
     0
 66
     1
 10
0
 20
0
 30
0.0
 70
     1
 40
0
 41
0
  0
VERTEX
  8
0
 10
2.81999
 20
0.254829
 30
0.0
 40
0
 41
0
  0
VERTEX
  8
0
 10
2.77806
 20
0.0876193
 30
0.0
 40
0
 41
0
  0
VERTEX
  8
0
 10
2.56836
 20
0.0876193
 30
0.0
 40
0
 41
0
  0
VERTEX
  8
0
 10
2.59418
 20
0.192057
 30
0.0
 40
0
 41
0
  0
VERTEX
  8
0
 10
2.77453
 20
0.192057
 30
0.0
 40
0
 41
0
  0
VERTEX
  8
0
 10
2.77983
 20
0.21289
 30
0.0
 40
0
 41
0
  0
VERTEX
  8
0
 10
2.59978
 20
0.21289
 30
0.0
 40
0
 41
0
  0
VERTEX
  8
0
 10
2.61003
 20
0.254829
 30
0.0
 40
0
 41
0
  0
VERTEX
  8
0
 10
2.81999
 20
0.254829
 30
0.0
 40
0
 41
0
  0
SEQEND
 8
0
  0
POLYLINE
  8
0
 62
     0
 66
     1
 10
0
 20
0
 30
0.0
 70
     1
 40
0
 41
0
  0
VERTEX
  8
0
 10
2.76367
 20
0.150228
 30
0.0
 40
0
 41
0
  0
VERTEX
  8
0
 10
2.61356
 20
0.150228
 30
0.0
 40
0
 41
0
  0
VERTEX
  8
0
 10
2.60824
 20
0.129395
 30
0.0
 40
0
 41
0
  0
VERTEX
  8
0
 10
2.7584
 20
0.129395
 30
0.0
 40
0
 41
0
  0
VERTEX
  8
0
 10
2.76367
 20
0.150228
 30
0.0
 40
0
 41
0
  0
SEQEND
 8
0
  0
POLYLINE
  8
0
 62
     0
 66
     1
 10
0
 20
0
 30
0.0
 70
     1
 40
0
 41
0
  0
VERTEX
  8
0
 10
3.06429
 20
0.254829
 30
0.0
 40
0
 41
0
  0
VERTEX
  8
0
 10
3.05344
 20
0.21289
 30
0.0
 40
0
 41
0
  0
VERTEX
  8
0
 10
2.96343
 20
0.21289
 30
0.0
 40
0
 41
0
  0
VERTEX
  8
0
 10
3.02181
 20
0.0876193
 30
0.0
 40
0
 41
0
  0
VERTEX
  8
0
 10
2.97954
 20
0.0876193
 30
0.0
 40
0
 41
0
  0
VERTEX
  8
0
 10
2.9215
 20
0.21289
 30
0.0
 40
0
 41
0
  0
VERTEX
  8
0
 10
2.87337
 20
0.21289
 30
0.0
 40
0
 41
0
  0
VERTEX
  8
0
 10
2.84201
 20
0.0876193
 30
0.0
 40
0
 41
0
  0
VERTEX
  8
0
 10
2.81213
 20
0.0876193
 30
0.0
 40
0
 41
0
  0
VERTEX
  8
0
 10
2.88601
 20
0.380371
 30
0.0
 40
0
 41
0
  0
VERTEX
  8
0
 10
2.9159
 20
0.380371
 30
0.0
 40
0
 41
0
  0
VERTEX
  8
0
 10
2.88422
 20
0.254829
 30
0.0
 40
0
 41
0
  0
VERTEX
  8
0
 10
3.06429
 20
0.254829
 30
0.0
 40
0
 41
0
  0
SEQEND
 8
0
  0
POLYLINE
  8
0
 62
     0
 66
     1
 10
0
 20
0
 30
0.0
 70
     1
 40
0
 41
0
  0
VERTEX
  8
0
 10
3.33974
 20
0.254829
 30
0.0
 40
0
 41
0
  0
VERTEX
  8
0
 10
3.31332
 20
0.150228
 30
0.0
 40
0
 41
0
  0
VERTEX
  8
0
 10
3.13325
 20
0.150228
 30
0.0
 40
0
 41
0
  0
VERTEX
  8
0
 10
3.12799
 20
0.129395
 30
0.0
 40
0
 41
0
  0
VERTEX
  8
0
 10
3.30806
 20
0.129395
 30
0.0
 40
0
 41
0
  0
VERTEX
  8
0
 10
3.29779
 20
0.0876193
 30
0.0
 40
0
 41
0
  0
VERTEX
  8
0
 10
3.08811
 20
0.0876193
 30
0.0
 40
0
 41
0
  0
VERTEX
  8
0
 10
3.12972
 20
0.254829
 30
0.0
 40
0
 41
0
  0
VERTEX
  8
0
 10
3.33974
 20
0.254829
 30
0.0
 40
0
 41
0
  0
SEQEND
 8
0
  0
POLYLINE
  8
0
 62
     0
 66
     1
 10
0
 20
0
 30
0.0
 70
     1
 40
0
 41
0
  0
VERTEX
  8
0
 10
3.29953
 20
0.21289
 30
0.0
 40
0
 41
0
  0
VERTEX
  8
0
 10
3.14942
 20
0.21289
 30
0.0
 40
0
 41
0
  0
VERTEX
  8
0
 10
3.1441
 20
0.192057
 30
0.0
 40
0
 41
0
  0
VERTEX
  8
0
 10
3.29428
 20
0.192057
 30
0.0
 40
0
 41
0
  0
VERTEX
  8
0
 10
3.29953
 20
0.21289
 30
0.0
 40
0
 41
0
  0
SEQEND
 8
0
  0
ENDSEC
  0
EOF
