M48
; DRILL file {KiCad 5.1.5-52549c5~84~ubuntu16.04.1} date Thu 20 Feb 2020 08:56:17 PM CET
; FORMAT={-:-/ absolute / inch / decimal}
; #@! TF.CreationDate,2020-02-20T20:56:17+01:00
; #@! TF.GenerationSoftware,Kicad,Pcbnew,5.1.5-52549c5~84~ubuntu16.04.1
; #@! TF.FileFunction,Plated,1,2,PTH
FMAT,2
INCH
T1C0.0118
T2C0.0157
T3C0.0197
T4C0.0236
T5C0.0315
T6C0.0354
T7C0.0394
T8C0.0472
T9C0.0984
%
G90
G05
T1
X0.0362Y-2.4032
X0.0368Y-0.4482
X0.0389Y-2.1907
X0.039Y-0.2521
X0.0441Y-1.0506
X0.0465Y-1.2429
X0.0724Y-1.4571
X0.0725Y-1.8723
X0.0761Y-1.6569
X0.0965Y-2.0421
X0.1033Y-0.7492
X0.1234Y-0.9261
X0.1411Y-1.4537
X0.1518Y-0.3385
X0.1523Y-0.5408
X0.1532Y-2.2841
X0.1969Y-1.4724
X0.1969Y-1.6181
X0.1969Y-1.7677
X0.2111Y-1.3741
X0.2442Y-2.4005
X0.2559Y-2.1024
X0.27Y-2.5792
X0.2716Y-0.4179
X0.274Y-0.7227
X0.2835Y-1.0433
X0.2835Y-1.122
X0.2854Y-2.1021
X0.315Y-2.1024
X0.3348Y-1.5193
X0.3353Y-1.0499
X0.3465Y-2.1024
X0.3588Y-2.3117
X0.3622Y-1.4331
X0.3623Y-0.3076
X0.3651Y-0.8347
X0.3924Y-2.1033
X0.3937Y-0.5197
X0.3942Y-2.492
X0.4055Y-0.2362
X0.4464Y-0.6844
X0.4646Y-1.043
X0.4646Y-1.122
X0.4899Y-0.2687
X0.5Y-0.9331
X0.5Y-1.4449
X0.5Y-1.2047
X0.5087Y-2.5825
X0.5174Y-0.48
X0.5354Y-0.9331
X0.5354Y-1.2047
X0.5354Y-1.4449
X0.5377Y-0.8082
X0.5655Y-2.2553
X0.5709Y-0.9331
X0.5709Y-1.2047
X0.5709Y-1.4449
X0.5756Y-1.6355
X0.6027Y-2.4375
X0.6063Y-2.1654
X0.6265Y-0.0731
X0.6918Y-2.5559
X0.6947Y-1.4587
X0.7087Y-1.3701
X0.7125Y-2.1328
X0.7201Y-2.3444
X0.7283Y-1.2795
X0.7489Y-1.602
X0.7795Y-1.3711
X0.7809Y-0.3651
X0.7843Y-1.7771
X0.7953Y-0.9852
X0.7953Y-2.0984
X0.8025Y-0.103
X0.8071Y-1.4803
X0.815Y-1.3701
X0.8321Y-2.2236
X0.8346Y-2.1654
X0.8387Y-0.7253
X0.8407Y-2.4544
X0.8409Y-0.5159
X0.8465Y-1.4803
X0.8701Y-1.0236
X0.8819Y-2.0984
X0.8856Y-1.4803
X0.8858Y-1.3976
X0.8858Y-1.437
X0.8892Y-1.5386
X0.8937Y-1.0
X0.8976Y-1.2165
X0.9055Y-0.2047
X0.9055Y-0.1614
X0.9173Y-1.4163
X0.9173Y-1.4616
X0.9257Y-2.5822
X0.9275Y-2.3477
X0.9437Y-1.2413
X0.9616Y-0.0366
X0.9685Y-2.0984
X0.9792Y-2.169
X0.9843Y-1.0945
X1.0086Y-0.8924
X1.0116Y-1.6371
X1.0118Y-1.1535
X1.0118Y-2.0984
X1.0276Y-1.0945
X1.0433Y-0.9016
X1.0433Y-0.937
X1.06Y-0.8376
X1.0709Y-0.9646
X1.074Y-1.0458
X1.0758Y-2.3968
X1.0945Y-1.6496
X1.0992Y-2.0533
X1.1323Y-1.7787
X1.1327Y-0.8983
X1.1346Y-2.2314
X1.1346Y-2.5548
X1.1378Y-0.5354
X1.1654Y-1.2992
X1.1687Y-1.543
X1.1722Y-0.7323
X1.1811Y-0.8465
X1.2087Y-1.3661
X1.22Y-2.3462
X1.2244Y-1.4803
X1.2323Y-1.3425
X1.2545Y-0.1253
X1.2559Y-1.3189
X1.2598Y-0.937
X1.2677Y-0.5354
X1.2756Y-0.4094
X1.2768Y-1.2973
X1.3071Y-1.1614
X1.3071Y-1.1969
X1.3071Y-1.2323
X1.3071Y-1.2677
X1.3092Y-1.608
X1.311Y-0.7756
X1.3189Y-0.4094
X1.3189Y-2.5591
X1.3346Y-0.7992
X1.3357Y-0.3625
X1.3543Y-0.6417
X1.3543Y-2.4646
X1.3583Y-0.8228
X1.3623Y-2.2519
X1.3644Y-2.0521
X1.3644Y-1.845
X1.3819Y-0.8465
X1.4024Y-2.4382
X1.4055Y-0.8701
X1.4219Y-1.5154
X1.4291Y-0.8937
X1.4488Y-1.0945
X1.4488Y-1.1299
X1.4528Y-0.9528
X1.4528Y-0.9882
X1.4528Y-0.9173
X1.4549Y-0.4601
X1.4553Y-0.1275
X1.4724Y-1.0709
X1.4803Y-0.7677
X1.5079Y-1.0709
X1.5149Y-2.5144
X1.5157Y-0.811
X1.5388Y-2.1883
X1.5708Y-2.3709
X1.5748Y-2.5591
X1.5787Y-1.8375
X1.6677Y-1.5164
X1.6686Y-0.426
X1.6965Y-2.2467
X1.6984Y-0.2137
X1.7165Y-0.6811
X1.7165Y-2.4803
X1.7323Y-1.2165
X1.748Y-2.4646
X1.7638Y-1.2165
X1.7742Y-1.4032
X1.7756Y-1.5669
X1.7827Y-0.9266
X1.7875Y-2.0421
X1.7883Y-2.4025
X1.8086Y-1.1369
X1.8422Y-0.1637
X1.8758Y-2.1655
X1.9055Y-1.437
X1.9055Y-1.4055
X1.9173Y-1.6457
X1.9173Y-2.4488
X1.9409Y-1.7008
X1.9409Y-1.748
X1.9409Y-1.7953
X1.9409Y-2.4252
X1.9528Y-1.5
X1.9685Y-1.6772
X1.9685Y-1.7244
X1.9685Y-1.7717
X1.9685Y-2.5591
X1.9724Y-0.1378
X1.9843Y-1.5236
X2.0Y-0.185
X2.0126Y-2.37
X2.017Y-0.2477
X2.0206Y-2.0779
X2.0231Y-0.981
X2.0315Y-2.4252
X2.0591Y-1.2087
X2.0591Y-1.3228
X2.0591Y-1.3661
X2.0591Y-1.3996
X2.0669Y-0.2795
X2.0827Y-1.9921
X2.0827Y-2.0354
X2.0827Y-2.0787
X2.0827Y-2.122
X2.0827Y-2.1654
X2.0827Y-2.2441
X2.0827Y-2.2913
X2.0945Y-1.3228
X2.0945Y-2.3819
X2.122Y-2.4094
X2.1344Y-0.1567
X2.1417Y-1.9173
X2.1575Y-2.4252
X2.1585Y-0.4
X2.185Y-1.9055
X2.2008Y-2.4252
X2.2047Y-2.5276
X2.2087Y-0.0591
X2.2231Y-0.7484
X2.2242Y-0.5393
X2.2441Y-2.4252
X2.2756Y-1.9055
X2.2795Y-1.5669
X2.2874Y-2.4252
X2.2992Y-2.2992
X2.311Y-0.0591
X2.311Y-1.5354
X2.3189Y-1.9055
X2.3307Y-2.4252
X2.3374Y-0.4183
X2.3413Y-0.1553
X2.346Y-0.9912
X2.348Y-0.6368
X2.3622Y-1.9055
X2.3622Y-2.5591
X2.378Y-2.2992
X2.378Y-2.4449
X2.4248Y-0.2727
X2.4252Y-1.9055
X2.4659Y-1.6395
X2.466Y-0.5114
X2.4685Y-1.9055
X2.4724Y-2.3701
X2.4803Y-0.2795
X2.4845Y-1.3314
X2.5118Y-1.9055
X2.52Y-2.5743
X2.5205Y-0.932
X2.5531Y-1.5139
X2.556Y-0.3665
X2.5591Y-2.2992
X2.5591Y-2.4449
X2.563Y-2.1457
X2.563Y-2.2165
X2.5866Y-0.1575
X2.5984Y-2.4528
X2.6129Y-1.6957
X2.6142Y-1.0315
X2.6142Y-2.1457
X2.6142Y-2.2165
X2.622Y-0.0551
X2.626Y-2.4803
X2.6309Y-0.1521
X2.6331Y-0.8043
X2.6339Y-1.3976
X2.6339Y-1.5945
X2.6417Y-1.0551
X2.6614Y-2.5
X2.6693Y-1.0787
X2.6929Y-1.126
X2.6974Y-0.9606
X2.7021Y-0.6299
X2.7047Y-2.5
X2.7087Y-2.0236
X2.7165Y-1.0748
X2.7264Y-2.5734
X2.7288Y-0.0363
X2.7402Y-1.126
X2.7504Y-0.3016
X2.7598Y-2.3898
X2.8079Y-0.5458
X2.8131Y-0.8328
X2.815Y-2.5
X2.8583Y-2.5
X2.8661Y-1.2362
X2.8735Y-0.1585
X2.8858Y-2.4724
X2.8898Y-1.2638
X2.905Y-2.5427
X2.9134Y-1.2913
X2.9134Y-2.4449
X2.9567Y-2.4449
X2.9624Y-0.0447
X2.9672Y-1.1065
X2.9924Y-0.7142
X2.9961Y-2.1102
X3.0Y-2.4449
X3.0196Y-1.2543
X3.0246Y-0.9237
X3.0276Y-0.5425
X3.0276Y-0.5748
X3.0315Y-1.9055
X3.0354Y-2.1102
X3.0433Y-2.4449
X3.0748Y-1.9055
X3.0781Y-2.5222
X3.0787Y-2.0984
X3.0837Y-0.1631
X3.0866Y-2.4449
X3.1034Y-0.8035
X3.1091Y-0.5954
X3.1102Y-2.0669
X3.1181Y-1.9055
X3.1335Y-1.3383
X3.1417Y-2.0354
X3.1457Y-1.9331
X3.1496Y-1.5236
X3.1711Y-0.0338
X3.1732Y-1.9606
X3.1732Y-2.0039
X3.1732Y-2.185
X3.1732Y-2.2283
X3.1732Y-2.2717
X3.1732Y-2.315
X3.1732Y-2.3583
X3.185Y-1.5945
X3.2058Y-1.155
X3.224Y-0.725
X3.2291Y-0.5183
X3.2307Y-2.5739
X3.2319Y-1.9251
X3.2322Y-0.9256
X3.2911Y-1.7529
X3.2921Y-1.2726
X3.2948Y-1.5441
X3.3071Y-0.0591
X3.3071Y-0.2244
X3.3155Y-2.464
X3.34Y-0.8018
X3.3434Y-0.602
X3.374Y-0.2559
X3.3831Y-1.393
X3.4016Y-0.0512
X3.4252Y-2.1654
X3.432Y-1.9241
X3.4354Y-2.5487
X3.4567Y-2.1654
X3.461Y-0.7253
X3.4791Y-2.0827
X3.5166Y-1.7873
X3.5264Y-0.0622
X3.5315Y-0.2835
X3.6059Y-2.5854
X3.6072Y-0.1845
X3.6648Y-0.5776
X3.6658Y-1.3065
X3.6687Y-0.78
X3.6727Y-0.3377
X3.6773Y-1.5093
X3.6996Y-0.0466
X3.7586Y-2.1299
X3.7833Y-1.1269
X3.7901Y-1.9284
X3.7911Y-1.3941
X3.7913Y-0.8672
X3.7931Y-1.6113
X3.7962Y-0.659
X3.8803Y-0.2502
X3.8831Y-1.2518
T2
X0.5157Y-1.6142
X0.5787Y-0.5512
X0.5787Y-0.6142
X0.6102Y-0.9668
X0.6417Y-1.9724
X0.6969Y-0.7205
X0.752Y-1.2008
X0.7953Y-0.8465
X0.9685Y-0.7638
X0.9961Y-1.4685
X1.0551Y-0.4843
X1.2795Y-0.4843
X1.4646Y-1.4173
X1.5551Y-0.3209
X1.5945Y-0.3543
X1.6299Y-1.3976
X1.6496Y-1.2717
X1.8583Y-0.937
X2.0591Y-1.2835
X2.2087Y-1.1457
X2.4488Y-1.0827
X2.5551Y-1.4567
X2.5787Y-0.8504
X2.7756Y-1.5472
X2.811Y-0.4724
X2.8504Y-0.6299
X2.8937Y-1.1654
X2.9016Y-1.5433
X3.0824Y-0.4682
X3.1063Y-1.4173
X3.1102Y-0.5354
X3.2165Y-1.5433
X3.5866Y-2.5315
X3.6417Y-2.1457
X3.6772Y-2.1693
X3.5697Y-2.0551
X3.5697Y-2.0866
X3.5697Y-2.1181
X3.5697Y-2.1496
X3.5697Y-2.1811
X3.5697Y-2.2126
X3.5697Y-2.2441
X3.5697Y-2.2756
X3.5972Y-2.0709
X3.5972Y-2.1024
X3.5972Y-2.1339
X3.5972Y-2.1969
X3.5972Y-2.2283
X3.5972Y-2.2598
T3
X0.4409Y-0.3819
X0.5612Y-0.2608
X0.685Y-1.2638
X0.7323Y-0.8819
X0.7402Y-0.6142
X0.874Y-0.6142
X1.4331Y-0.5906
X1.5551Y-0.5906
X1.6181Y-0.7913
X1.7047Y-1.0827
X1.811Y-1.2087
X1.878Y-1.2441
X2.0591Y-1.2441
X2.2362Y-1.0787
X2.2402Y-0.9685
X2.5984Y-0.5
X3.4921Y-2.3307
X3.5039Y-0.4567
X3.5354Y-1.9961
X3.5472Y-2.3307
X3.5591Y-1.7205
X3.6063Y-1.7205
X3.6535Y-1.7205
X3.6575Y-2.2756
X3.689Y-2.0591
X3.8031Y-2.0591
X3.8031Y-2.2717
T4
X3.3071Y-2.0669
X3.5039Y-1.0827
T5
X3.0551Y-2.2756
X2.1732Y-2.185
X2.1732Y-2.2835
X1.9685Y-2.1378
X1.9685Y-2.2717
X3.0551Y-2.1772
T6
X3.2421Y-2.0669
X3.2421Y-2.1654
X3.2421Y-2.2638
X3.372Y-2.0669
X3.372Y-2.1654
X3.372Y-2.2638
T7
X0.3921Y-1.8504
X0.5921Y-1.8504
X0.6921Y-1.8504
X0.7921Y-1.8504
X0.8921Y-1.8504
X0.9921Y-1.8504
X1.0921Y-1.8504
X1.1921Y-1.8504
X1.2921Y-1.8504
X1.6921Y-1.8504
X1.7921Y-1.8504
X1.8921Y-1.8504
X1.9921Y-1.8504
X2.1921Y-1.8504
X2.5921Y-1.8504
X2.6921Y-1.8504
X2.7921Y-1.8504
X2.8921Y-1.8504
X2.9921Y-1.8504
X3.0921Y-1.8504
X3.1921Y-1.8504
X3.2921Y-1.8504
X3.3921Y-1.8504
X3.4921Y-1.8504
X1.6614Y-0.2953
X1.7614Y-0.2953
X1.8614Y-0.2953
X1.9614Y-0.2953
X0.1102Y-0.6535
X1.7717Y-0.8268
X2.3937Y-1.8504
X3.8386Y-1.8425
X1.9685Y-2.0079
X0.7323Y-0.2953
X0.8323Y-0.2953
X1.0472Y-0.2953
X1.1472Y-0.2953
X1.2472Y-0.2953
X1.3472Y-0.2953
X1.4472Y-0.2953
X0.1969Y-2.2047
X0.4961Y-2.2047
X3.0906Y-1.9882
X0.5236Y-2.4961
X1.4961Y-1.8504
X3.6811Y-1.8425
X2.5866Y-0.2953
X2.6866Y-0.2953
X2.9016Y-0.2953
X3.0016Y-0.2953
X3.1016Y-0.2953
X3.2016Y-0.2953
X2.1732Y-0.2953
X2.2732Y-0.2953
X2.3732Y-0.2953
X2.1654Y-0.8268
X3.8386Y-1.685
T8
X1.5039Y-2.0906
X1.6039Y-2.0906
X1.7039Y-2.0906
T9
X0.1181Y-0.1181
X3.8189Y-2.5197
X0.1181Y-2.5197
X3.8189Y-0.1181
T4
G00X3.6031Y-1.9972
M15
G01X3.6268Y-1.9972
M16
G05
G00X3.6031Y-2.3335
M15
G01X3.6268Y-2.3335
M16
G05
G00X3.7913Y-1.9972
M15
G01X3.815Y-1.9972
M16
G05
G00X3.7913Y-2.3335
M15
G01X3.815Y-2.3335
M16
G05
T0
M30
