M48
; DRILL file {KiCad 5.1.5-52549c5~84~ubuntu16.04.1} date Wed 25 Mar 2020 08:51:37 PM CET
; FORMAT={-:-/ absolute / metric / decimal}
; #@! TF.CreationDate,2020-03-25T20:51:37+01:00
; #@! TF.GenerationSoftware,Kicad,Pcbnew,5.1.5-52549c5~84~ubuntu16.04.1
FMAT,2
METRIC
T1C0.300
T2C0.400
T3C0.500
T4C0.600
T5C0.800
T6C0.900
T7C1.000
T8C1.200
T9C2.500
T10C0.750
T11C0.900
%
G90
G05
T1
X0.92Y-61.04
X0.989Y-55.645
X0.991Y-6.403
X1.119Y-26.685
X1.182Y-31.569
X1.839Y-37.009
X1.842Y-47.555
X1.932Y-42.086
X2.3Y-15.2
X2.451Y-51.87
X3.135Y-23.522
X3.857Y-8.597
X3.891Y-58.016
X4.1Y-21.1
X4.9Y-18.1
X5.0Y-37.4
X5.0Y-41.1
X5.0Y-44.9
X6.202Y-60.973
X6.5Y-53.4
X6.5Y-8.9
X6.858Y-65.511
X7.1Y-21.4
X7.2Y-26.5
X7.2Y-28.5
X7.25Y-53.394
X7.7Y-14.1
X8.0Y-10.0
X8.0Y-53.4
X8.504Y-38.59
X8.516Y-26.667
X8.8Y-53.4
X9.114Y-58.716
X9.2Y-36.4
X9.967Y-53.424
X10.014Y-63.297
X10.1Y-21.8
X10.3Y-6.0
X10.5Y-16.8
X11.0Y-8.9
X11.388Y-17.237
X11.8Y-26.493
X11.8Y-28.5
X12.3Y-17.2
X12.4Y-6.2
X12.7Y-23.7
X12.7Y-36.7
X12.7Y-30.6
X12.921Y-65.596
X13.2Y-17.2
X13.2Y-45.8
X13.6Y-23.7
X13.6Y-30.6
X13.6Y-36.7
X14.364Y-57.284
X14.4Y-16.9
X14.5Y-23.7
X14.5Y-30.6
X14.5Y-36.7
X14.621Y-41.542
X15.2Y-17.6
X15.308Y-61.914
X15.4Y-30.6
X15.4Y-55.0
X15.7Y-9.3
X15.8Y-12.3
X15.913Y-1.856
X16.1Y-24.5
X16.5Y-12.9
X17.4Y-38.8
X17.573Y-64.921
X17.7Y-16.5
X17.8Y-21.0
X18.0Y-34.8
X18.098Y-54.173
X18.1Y-41.4
X18.29Y-59.549
X18.4Y-11.0
X18.5Y-32.5
X19.2Y-34.8
X19.3Y-24.4
X19.3Y-25.2
X19.3Y-26.0
X19.4Y-21.0
X19.9Y-43.6
X20.043Y-20.357
X20.2Y-53.3
X20.3Y-12.2
X20.3Y-18.7
X20.383Y-2.616
X20.4Y-10.4
X20.5Y-37.6
X20.6Y-34.8
X20.6Y-35.8
X21.135Y-56.481
X21.2Y-55.0
X21.353Y-62.341
X21.5Y-13.0
X21.5Y-37.6
X21.6Y-10.4
X22.4Y-53.3
X22.494Y-37.6
X22.5Y-35.5
X22.585Y-39.08
X22.8Y-30.9
X23.0Y-5.2
X23.0Y-4.1
X23.3Y-16.5
X23.3Y-35.975
X23.3Y-37.125
X23.4Y-7.9
X23.513Y-65.587
X23.559Y-59.631
X23.921Y-24.825
X23.969Y-31.528
X24.0Y-10.5
X24.1Y-12.0
X24.276Y-19.024
X24.424Y-0.93
X24.6Y-24.3
X24.6Y-53.3
X24.872Y-55.093
X25.0Y-28.2
X25.617Y-22.668
X25.695Y-41.581
X25.7Y-53.3
X25.71Y-29.347
X26.1Y-28.025
X26.2Y-11.3
X26.5Y-22.9
X26.5Y-23.8
X26.924Y-21.275
X27.2Y-24.5
X27.324Y-60.879
X27.8Y-28.2
X27.8Y-41.9
X27.92Y-52.155
X28.0Y-13.1
X28.5Y-27.5
X28.6Y-22.9
X28.76Y-45.178
X28.819Y-56.678
X28.82Y-64.892
X29.4Y-27.5
X29.6Y-33.0
X29.685Y-39.191
X29.7Y-25.0
X29.7Y-25.825
X29.7Y-26.6
X29.775Y-18.3
X29.8Y-14.3
X29.8Y-10.45
X30.0Y-21.5
X30.7Y-34.7
X30.9Y-54.5
X30.988Y-59.595
X31.1Y-36.9
X31.225Y-26.1
X31.3Y-23.7
X31.3Y-32.9
X31.3Y-34.1
X31.5Y-10.4
X31.865Y-3.183
X31.9Y-33.5
X32.2Y-13.6
X32.2Y-18.8
X32.2Y-28.7
X32.3Y-66.1
X32.431Y-32.951
X33.2Y-29.5
X33.2Y-30.4
X33.2Y-31.3
X33.2Y-32.2
X33.254Y-40.842
X33.27Y-22.77
X33.3Y-10.4
X33.3Y-19.7
X33.5Y-65.0
X34.0Y-11.8
X34.0Y-27.8
X34.2Y-10.4
X34.2Y-20.7
X34.2Y-22.9
X34.4Y-16.3
X34.4Y-62.6
X34.602Y-57.199
X34.655Y-52.122
X34.655Y-46.862
X35.1Y-21.5
X35.62Y-61.931
X35.7Y-22.1
X35.8Y-9.7
X36.116Y-38.491
X36.3Y-22.7
X36.8Y-27.8
X36.8Y-28.7
X36.9Y-23.3
X36.953Y-11.685
X36.965Y-3.238
X37.4Y-27.2
X37.5Y-23.9
X37.6Y-19.5
X38.2Y-61.0
X38.3Y-27.2
X38.5Y-20.6
X38.6Y-66.1
X39.085Y-55.583
X39.898Y-60.22
X40.099Y-46.672
X41.1Y-25.9
X42.361Y-38.517
X42.382Y-10.821
X42.4Y-61.8
X43.091Y-57.065
X43.141Y-5.428
X43.6Y-17.3
X43.6Y-63.0
X44.0Y-24.2
X44.0Y-30.9
X44.4Y-62.6
X44.8Y-30.9
X45.066Y-35.642
X45.1Y-39.8
X45.1Y-66.1
X45.403Y-51.87
X45.424Y-61.024
X45.938Y-28.878
X46.2Y-23.8
X46.792Y-4.159
X47.2Y-61.0
X47.646Y-55.005
X48.3Y-61.2
X48.4Y-36.5
X48.4Y-35.7
X48.6Y-63.5
X48.7Y-41.8
X48.8Y-26.6
X49.3Y-43.2
X49.3Y-44.4
X49.3Y-45.6
X49.6Y-38.1
X50.0Y-42.6
X50.0Y-43.8
X50.0Y-45.0
X50.1Y-3.5
X50.4Y-38.7
X50.8Y-4.7
X51.12Y-60.199
X51.232Y-6.291
X51.323Y-52.779
X51.387Y-24.919
X51.6Y-61.6
X52.3Y-30.7
X52.3Y-33.6
X52.3Y-34.7
X52.3Y-35.55
X52.5Y-7.1
X52.9Y-50.6
X52.9Y-51.7
X52.9Y-52.8
X52.9Y-53.9
X52.9Y-55.0
X52.9Y-57.0
X52.9Y-58.2
X53.2Y-33.6
X53.2Y-37.2
X53.2Y-39.9
X53.2Y-60.5
X53.9Y-61.2
X54.05Y-31.35
X54.213Y-3.979
X54.4Y-48.7
X54.8Y-61.6
X54.826Y-10.16
X55.5Y-48.4
X55.6Y-66.1
X55.9Y-61.6
X56.0Y-64.2
X56.1Y-1.5
X56.466Y-19.009
X56.495Y-13.699
X56.6Y-48.4
X57.0Y-61.6
X57.7Y-48.4
X57.9Y-39.8
X58.1Y-61.6
X58.4Y-58.4
X58.7Y-1.5
X58.7Y-39.0
X58.9Y-64.2
X59.2Y-61.6
X59.371Y-10.625
X59.47Y-3.945
X59.589Y-25.176
X59.64Y-16.175
X59.9Y-28.2
X60.4Y-58.4
X60.4Y-62.1
X61.59Y-6.927
X61.6Y-48.4
X62.634Y-41.644
X62.637Y-12.991
X62.7Y-48.4
X62.8Y-60.2
X63.0Y-7.1
X63.106Y-33.818
X63.8Y-48.4
X64.02Y-23.672
X64.85Y-38.452
X64.923Y-9.309
X65.0Y-58.4
X65.0Y-62.1
X65.1Y-54.5
X65.1Y-56.3
X65.1Y-63.3
X65.3Y-35.4
X65.7Y-4.0
X66.0Y-62.3
X66.368Y-43.071
X66.4Y-26.2
X66.4Y-54.5
X66.4Y-56.3
X66.6Y-1.4
X66.7Y-63.0
X66.824Y-3.863
X66.881Y-20.428
X66.9Y-35.5
X66.9Y-40.5
X67.1Y-26.8
X67.6Y-63.5
X67.8Y-27.4
X68.4Y-28.6
X68.513Y-24.398
X68.632Y-15.999
X68.7Y-63.5
X68.8Y-51.4
X69.0Y-27.3
X69.25Y-65.363
X69.311Y-0.921
X69.6Y-28.6
X69.861Y-7.661
X70.1Y-60.7
X71.3Y-37.3
X71.453Y-21.152
X71.5Y-63.5
X72.6Y-63.5
X72.8Y-13.4
X72.8Y-31.4
X72.987Y-4.026
X73.3Y-62.8
X73.4Y-32.1
X73.787Y-64.585
X74.0Y-32.8
X74.0Y-43.5
X74.0Y-62.1
X75.1Y-62.1
X75.244Y-1.135
X75.368Y-28.105
X76.006Y-18.141
X76.1Y-53.6
X76.2Y-62.1
X76.699Y-31.859
X76.825Y-23.462
X76.9Y-13.779
X76.9Y-14.6
X77.0Y-48.4
X77.1Y-53.6
X77.3Y-62.1
X78.1Y-48.4
X78.184Y-64.065
X78.2Y-53.3
X78.327Y-4.143
X78.4Y-62.1
X78.826Y-20.409
X78.971Y-15.122
X79.0Y-52.5
X79.2Y-48.4
X79.591Y-33.992
X79.8Y-51.7
X79.9Y-49.1
X80.0Y-38.7
X80.546Y-0.859
X80.6Y-49.8
X80.6Y-50.9
X80.6Y-55.5
X80.6Y-56.6
X80.6Y-57.7
X80.6Y-58.8
X80.6Y-59.9
X80.9Y-40.5
X81.426Y-29.337
X81.89Y-18.415
X82.019Y-13.166
X82.09Y-48.898
X82.098Y-23.509
X82.2Y-64.3
X83.593Y-44.524
X83.62Y-32.324
X83.687Y-39.22
X84.0Y-1.5
X84.0Y-5.7
X84.215Y-62.586
X84.837Y-20.366
X84.921Y-15.291
X85.7Y-6.5
X85.932Y-35.382
X86.4Y-1.3
X87.0Y-55.0
X87.172Y-48.872
X87.8Y-55.0
X87.909Y-18.422
X88.37Y-52.9
X89.323Y-45.397
X89.5Y-3.2
X89.7Y-7.2
X90.3Y-65.9
X91.623Y-4.685
X92.1Y-46.4
X93.086Y-14.672
X93.11Y-33.186
X93.184Y-19.813
X93.288Y-8.577
X93.5Y-45.3
X93.7Y-49.4
X93.971Y-1.184
X94.0Y-40.7
X94.7Y-61.4
X95.2Y-55.1
X96.095Y-28.624
X96.293Y-35.411
X96.298Y-22.026
X96.423Y-16.738
X96.9Y-43.5
X97.4Y-45.7
X98.5Y-49.3
X98.559Y-6.355
X98.63Y-31.794
T2
X13.1Y-41.0
X16.3Y-50.1
X16.8Y-6.5
X19.1Y-30.8
X25.3Y-37.3
X27.2Y-11.4
X32.8Y-13.0
X36.7Y-36.0
X39.5Y-10.0
X40.5Y-10.7
X41.4Y-35.5
X41.9Y-32.3
X43.4Y-9.0
X47.2Y-23.8
X52.3Y-32.6
X56.1Y-29.1
X62.2Y-27.5
X64.9Y-37.3
X65.5Y-21.6
X66.5Y-13.8
X70.5Y-39.3
X71.4Y-12.0
X72.4Y-16.0
X73.5Y-29.6
X73.7Y-39.2
X77.8Y-11.6
X78.9Y-36.0
X79.0Y-13.6
X81.7Y-39.2
X90.67Y-52.2
X90.67Y-53.0
X90.67Y-53.8
X90.67Y-54.6
X90.67Y-55.4
X90.67Y-56.2
X90.67Y-57.0
X90.67Y-57.8
X91.37Y-52.6
X91.37Y-53.4
X91.37Y-54.2
X91.37Y-55.8
X91.37Y-56.6
X91.37Y-57.4
T3
X9.2Y-7.7
X14.2Y-6.1
X17.4Y-32.1
X17.8Y-22.1
X36.4Y-15.0
X39.5Y-15.0
X41.1Y-20.1
X43.3Y-27.5
X46.0Y-30.7
X47.7Y-31.6
X52.3Y-31.6
X56.8Y-26.9
X56.9Y-24.6
X66.0Y-12.7
X88.7Y-59.2
X89.0Y-11.6
X89.9Y-50.9
X89.9Y-59.1
X90.4Y-43.7
X91.6Y-43.7
X92.8Y-43.7
X93.7Y-52.3
X96.6Y-52.3
X96.6Y-57.7
T4
X84.0Y-52.5
X89.0Y-27.5
T5
X55.2Y-55.5
X55.2Y-58.0
X50.0Y-54.3
X50.0Y-57.7
X77.6Y-55.3
X77.6Y-57.8
T6
X82.35Y-52.5
X82.35Y-55.0
X82.35Y-57.5
X85.65Y-52.5
X85.65Y-55.0
X85.65Y-57.5
T7
X88.3Y-62.8
X78.5Y-50.5
X3.2Y-19.4
X50.0Y-51.0
X73.7Y-7.5
X76.24Y-7.5
X78.78Y-7.5
X81.32Y-7.5
X18.6Y-7.5
X21.14Y-7.5
X55.2Y-7.5
X57.74Y-7.5
X60.28Y-7.5
X9.96Y-47.0
X15.04Y-47.0
X17.58Y-47.0
X20.12Y-47.0
X22.66Y-47.0
X25.2Y-47.0
X27.74Y-47.0
X30.28Y-47.0
X32.82Y-47.0
X42.98Y-47.0
X45.52Y-47.0
X48.06Y-47.0
X50.6Y-47.0
X55.68Y-47.0
X65.84Y-47.0
X68.38Y-47.0
X70.92Y-47.0
X73.46Y-47.0
X76.0Y-47.0
X78.54Y-47.0
X81.08Y-47.0
X83.62Y-47.0
X86.16Y-47.0
X88.7Y-47.0
X45.0Y-21.0
X5.0Y-56.0
X12.6Y-56.0
X38.0Y-47.0
X60.8Y-47.0
X55.0Y-21.0
X65.7Y-7.5
X68.24Y-7.5
X92.3Y-62.8
X42.2Y-7.5
X44.74Y-7.5
X47.28Y-7.5
X49.82Y-7.5
X26.6Y-7.5
X29.14Y-7.5
X31.68Y-7.5
X34.22Y-7.5
X36.76Y-7.5
X97.5Y-40.1
X13.3Y-63.4
T8
X38.2Y-53.1
X40.74Y-53.1
X43.28Y-53.1
T9
X97.0Y-3.0
X3.0Y-64.0
X97.0Y-64.0
X3.0Y-3.0
T10
X40.0Y-63.625
X40.0Y-66.375
X60.0Y-63.625
X60.0Y-66.375
X50.0Y-63.625
X50.0Y-66.375
T11
X19.55Y-62.7
T4
G00X91.52Y-50.73
M15
G01X92.12Y-50.73
M16
G05
G00X91.52Y-59.27
M15
G01X92.12Y-59.27
M16
G05
G00X96.3Y-50.73
M15
G01X96.9Y-50.73
M16
G05
G00X96.3Y-59.27
M15
G01X96.9Y-59.27
M16
G05
T11
G00X27.15Y-62.7
M15
G01X27.95Y-62.7
M16
G05
T0
M30
