G04 #@! TF.GenerationSoftware,KiCad,Pcbnew,5.1.5-52549c5~84~ubuntu16.04.1*
G04 #@! TF.CreationDate,2020-03-25T20:51:20+01:00*
G04 #@! TF.ProjectId,EmergencyWake,456d6572-6765-46e6-9379-57616b652e6b,rev?*
G04 #@! TF.SameCoordinates,PX5f5e100PY5f5e100*
G04 #@! TF.FileFunction,Legend,Bot*
G04 #@! TF.FilePolarity,Positive*
%FSLAX46Y46*%
G04 Gerber Fmt 4.6, Leading zero omitted, Abs format (unit mm)*
G04 Created by KiCad (PCBNEW 5.1.5-52549c5~84~ubuntu16.04.1) date 2020-03-25 20:51:20*
%MOMM*%
%LPD*%
G04 APERTURE LIST*
%ADD10C,0.150000*%
%ADD11C,0.050000*%
%ADD12C,0.010000*%
%ADD13C,0.120000*%
G04 APERTURE END LIST*
D10*
X61558333Y-64939285D02*
X61436904Y-64979761D01*
X61396428Y-65020238D01*
X61355952Y-65101190D01*
X61355952Y-65222619D01*
X61396428Y-65303571D01*
X61436904Y-65344047D01*
X61517857Y-65384523D01*
X61841666Y-65384523D01*
X61841666Y-64534523D01*
X61558333Y-64534523D01*
X61477380Y-64575000D01*
X61436904Y-64615476D01*
X61396428Y-64696428D01*
X61396428Y-64777380D01*
X61436904Y-64858333D01*
X61477380Y-64898809D01*
X61558333Y-64939285D01*
X61841666Y-64939285D01*
X60829761Y-64534523D02*
X60667857Y-64534523D01*
X60586904Y-64575000D01*
X60505952Y-64655952D01*
X60465476Y-64817857D01*
X60465476Y-65101190D01*
X60505952Y-65263095D01*
X60586904Y-65344047D01*
X60667857Y-65384523D01*
X60829761Y-65384523D01*
X60910714Y-65344047D01*
X60991666Y-65263095D01*
X61032142Y-65101190D01*
X61032142Y-64817857D01*
X60991666Y-64655952D01*
X60910714Y-64575000D01*
X60829761Y-64534523D01*
X59939285Y-64534523D02*
X59777380Y-64534523D01*
X59696428Y-64575000D01*
X59615476Y-64655952D01*
X59575000Y-64817857D01*
X59575000Y-65101190D01*
X59615476Y-65263095D01*
X59696428Y-65344047D01*
X59777380Y-65384523D01*
X59939285Y-65384523D01*
X60020238Y-65344047D01*
X60101190Y-65263095D01*
X60141666Y-65101190D01*
X60141666Y-64817857D01*
X60101190Y-64655952D01*
X60020238Y-64575000D01*
X59939285Y-64534523D01*
X59332142Y-64534523D02*
X58846428Y-64534523D01*
X59089285Y-65384523D02*
X59089285Y-64534523D01*
X58401190Y-64534523D02*
X58320238Y-64534523D01*
X58239285Y-64575000D01*
X58198809Y-64615476D01*
X58158333Y-64696428D01*
X58117857Y-64858333D01*
X58117857Y-65060714D01*
X58158333Y-65222619D01*
X58198809Y-65303571D01*
X58239285Y-65344047D01*
X58320238Y-65384523D01*
X58401190Y-65384523D01*
X58482142Y-65344047D01*
X58522619Y-65303571D01*
X58563095Y-65222619D01*
X58603571Y-65060714D01*
X58603571Y-64858333D01*
X58563095Y-64696428D01*
X58522619Y-64615476D01*
X58482142Y-64575000D01*
X58401190Y-64534523D01*
X51214285Y-64534523D02*
X51214285Y-65222619D01*
X51173809Y-65303571D01*
X51133333Y-65344047D01*
X51052380Y-65384523D01*
X50890476Y-65384523D01*
X50809523Y-65344047D01*
X50769047Y-65303571D01*
X50728571Y-65222619D01*
X50728571Y-64534523D01*
X50364285Y-65344047D02*
X50283333Y-65384523D01*
X50121428Y-65384523D01*
X50040476Y-65344047D01*
X50000000Y-65263095D01*
X50000000Y-65222619D01*
X50040476Y-65141666D01*
X50121428Y-65101190D01*
X50242857Y-65101190D01*
X50323809Y-65060714D01*
X50364285Y-64979761D01*
X50364285Y-64939285D01*
X50323809Y-64858333D01*
X50242857Y-64817857D01*
X50121428Y-64817857D01*
X50040476Y-64858333D01*
X49311904Y-65344047D02*
X49392857Y-65384523D01*
X49554761Y-65384523D01*
X49635714Y-65344047D01*
X49676190Y-65263095D01*
X49676190Y-64939285D01*
X49635714Y-64858333D01*
X49554761Y-64817857D01*
X49392857Y-64817857D01*
X49311904Y-64858333D01*
X49271428Y-64939285D01*
X49271428Y-65020238D01*
X49676190Y-65101190D01*
X48907142Y-65384523D02*
X48907142Y-64817857D01*
X48907142Y-64979761D02*
X48866666Y-64898809D01*
X48826190Y-64858333D01*
X48745238Y-64817857D01*
X48664285Y-64817857D01*
X41052380Y-65384523D02*
X41335714Y-64979761D01*
X41538095Y-65384523D02*
X41538095Y-64534523D01*
X41214285Y-64534523D01*
X41133333Y-64575000D01*
X41092857Y-64615476D01*
X41052380Y-64696428D01*
X41052380Y-64817857D01*
X41092857Y-64898809D01*
X41133333Y-64939285D01*
X41214285Y-64979761D01*
X41538095Y-64979761D01*
X40364285Y-65344047D02*
X40445238Y-65384523D01*
X40607142Y-65384523D01*
X40688095Y-65344047D01*
X40728571Y-65263095D01*
X40728571Y-64939285D01*
X40688095Y-64858333D01*
X40607142Y-64817857D01*
X40445238Y-64817857D01*
X40364285Y-64858333D01*
X40323809Y-64939285D01*
X40323809Y-65020238D01*
X40728571Y-65101190D01*
X40000000Y-65344047D02*
X39919047Y-65384523D01*
X39757142Y-65384523D01*
X39676190Y-65344047D01*
X39635714Y-65263095D01*
X39635714Y-65222619D01*
X39676190Y-65141666D01*
X39757142Y-65101190D01*
X39878571Y-65101190D01*
X39959523Y-65060714D01*
X40000000Y-64979761D01*
X40000000Y-64939285D01*
X39959523Y-64858333D01*
X39878571Y-64817857D01*
X39757142Y-64817857D01*
X39676190Y-64858333D01*
X38947619Y-65344047D02*
X39028571Y-65384523D01*
X39190476Y-65384523D01*
X39271428Y-65344047D01*
X39311904Y-65263095D01*
X39311904Y-64939285D01*
X39271428Y-64858333D01*
X39190476Y-64817857D01*
X39028571Y-64817857D01*
X38947619Y-64858333D01*
X38907142Y-64939285D01*
X38907142Y-65020238D01*
X39311904Y-65101190D01*
X38664285Y-64817857D02*
X38340476Y-64817857D01*
X38542857Y-64534523D02*
X38542857Y-65263095D01*
X38502380Y-65344047D01*
X38421428Y-65384523D01*
X38340476Y-65384523D01*
X94500000Y-43000000D02*
X99500000Y-43000000D01*
X94500000Y-37000000D02*
X94500000Y-43000000D01*
X99500000Y-37000000D02*
X94500000Y-37000000D01*
X5500000Y-43000000D02*
X500000Y-43000000D01*
X5500000Y-37000000D02*
X5500000Y-43000000D01*
X500000Y-37000000D02*
X5500000Y-37000000D01*
X94500000Y-14500000D02*
X99500000Y-14500000D01*
X94500000Y-8500000D02*
X94500000Y-14500000D01*
X99500000Y-8500000D02*
X94500000Y-8500000D01*
X5500000Y-14500000D02*
X500000Y-14500000D01*
X5500000Y-8500000D02*
X5500000Y-14500000D01*
X500000Y-8500000D02*
X5500000Y-8500000D01*
D11*
X55000000Y-15000000D02*
G75*
G03X55000000Y-15000000I-5000000J0D01*
G01*
X3000000Y-67000000D02*
G75*
G02X0Y-64000000I0J3000000D01*
G01*
X100000000Y-64000000D02*
G75*
G02X97000000Y-67000000I-3000000J0D01*
G01*
X97000000Y0D02*
G75*
G02X100000000Y-3000000I0J-3000000D01*
G01*
X0Y-3000000D02*
G75*
G02X3000000Y0I3000000J0D01*
G01*
X0Y-64000000D02*
X0Y-3000000D01*
X97000000Y-67000000D02*
X3000000Y-67000000D01*
X100000000Y-3000000D02*
X100000000Y-64000000D01*
X3000000Y0D02*
X97000000Y0D01*
D12*
G36*
X61020256Y-52224815D02*
G01*
X60931903Y-52225759D01*
X60865235Y-52227414D01*
X60817331Y-52229869D01*
X60785272Y-52233213D01*
X60766138Y-52237535D01*
X60757008Y-52242923D01*
X60754963Y-52249468D01*
X60755796Y-52253580D01*
X60761787Y-52276428D01*
X60775764Y-52331386D01*
X60796949Y-52415351D01*
X60824565Y-52525222D01*
X60857833Y-52657896D01*
X60895977Y-52810272D01*
X60938219Y-52979247D01*
X60983780Y-53161719D01*
X61031882Y-53354587D01*
X61039000Y-53383143D01*
X61087404Y-53577251D01*
X61133378Y-53761407D01*
X61176142Y-53932511D01*
X61214921Y-54087459D01*
X61248936Y-54223153D01*
X61277410Y-54336489D01*
X61299565Y-54424366D01*
X61314624Y-54483683D01*
X61321808Y-54511340D01*
X61322150Y-54512536D01*
X61322356Y-54517971D01*
X61318040Y-54522749D01*
X61307029Y-54526913D01*
X61287149Y-54530505D01*
X61256227Y-54533566D01*
X61212091Y-54536139D01*
X61152568Y-54538266D01*
X61075484Y-54539989D01*
X60978667Y-54541351D01*
X60859944Y-54542392D01*
X60717141Y-54543156D01*
X60548087Y-54543684D01*
X60350607Y-54544019D01*
X60122529Y-54544202D01*
X59861680Y-54544276D01*
X59683320Y-54544286D01*
X59390102Y-54544278D01*
X59130853Y-54544349D01*
X58903255Y-54544639D01*
X58704993Y-54545287D01*
X58533749Y-54546435D01*
X58387207Y-54548221D01*
X58263050Y-54550787D01*
X58158960Y-54554273D01*
X58072621Y-54558818D01*
X58001717Y-54564564D01*
X57943930Y-54571649D01*
X57896943Y-54580215D01*
X57858440Y-54590402D01*
X57826104Y-54602349D01*
X57797619Y-54616197D01*
X57770666Y-54632086D01*
X57742930Y-54650157D01*
X57723814Y-54662855D01*
X57625697Y-54746813D01*
X57558705Y-54847292D01*
X57524364Y-54961581D01*
X57519916Y-55025071D01*
X57524615Y-55073015D01*
X57537657Y-55150436D01*
X57557707Y-55251843D01*
X57583432Y-55371740D01*
X57613498Y-55504635D01*
X57646570Y-55645034D01*
X57681315Y-55787444D01*
X57716399Y-55926372D01*
X57750487Y-56056322D01*
X57782245Y-56171803D01*
X57810341Y-56267321D01*
X57833439Y-56337382D01*
X57846292Y-56369117D01*
X57922621Y-56488424D01*
X58029325Y-56596797D01*
X58161210Y-56690463D01*
X58313080Y-56765655D01*
X58458477Y-56813379D01*
X58476207Y-56817704D01*
X58495163Y-56821656D01*
X58516967Y-56825253D01*
X58543242Y-56828508D01*
X58575611Y-56831439D01*
X58615696Y-56834062D01*
X58665120Y-56836391D01*
X58725506Y-56838444D01*
X58798475Y-56840236D01*
X58885651Y-56841782D01*
X58988655Y-56843099D01*
X59109112Y-56844203D01*
X59248643Y-56845110D01*
X59408870Y-56845834D01*
X59591417Y-56846393D01*
X59797906Y-56846803D01*
X60029960Y-56847078D01*
X60289200Y-56847235D01*
X60577251Y-56847290D01*
X60895734Y-56847259D01*
X61246271Y-56847157D01*
X61630486Y-56847001D01*
X61881009Y-56846886D01*
X62307252Y-56846633D01*
X62698512Y-56846287D01*
X63056095Y-56845837D01*
X63381303Y-56845275D01*
X63675440Y-56844591D01*
X63939811Y-56843775D01*
X64175718Y-56842820D01*
X64384466Y-56841714D01*
X64567358Y-56840450D01*
X64725698Y-56839017D01*
X64860791Y-56837407D01*
X64973938Y-56835610D01*
X65066445Y-56833616D01*
X65139615Y-56831418D01*
X65194752Y-56829004D01*
X65233159Y-56826367D01*
X65256141Y-56823496D01*
X65259328Y-56822815D01*
X65393066Y-56775258D01*
X65503152Y-56704821D01*
X65586919Y-56614525D01*
X65641701Y-56507391D01*
X65664832Y-56386440D01*
X65665429Y-56362707D01*
X65660781Y-56321828D01*
X65657963Y-56306595D01*
X65346903Y-56306595D01*
X65311130Y-56371935D01*
X65253541Y-56447755D01*
X65173977Y-56502330D01*
X65069669Y-56536745D01*
X64937848Y-56552083D01*
X64849583Y-56552713D01*
X64695952Y-56549072D01*
X64587546Y-56109107D01*
X64479140Y-55669143D01*
X64400999Y-55669143D01*
X64347771Y-55673284D01*
X64324768Y-55686881D01*
X64322857Y-55695422D01*
X64327125Y-55718961D01*
X64338772Y-55770639D01*
X64356067Y-55843473D01*
X64377277Y-55930478D01*
X64400671Y-56024672D01*
X64424517Y-56119070D01*
X64447081Y-56206688D01*
X64466634Y-56280544D01*
X64479457Y-56326822D01*
X64480407Y-56339620D01*
X64471019Y-56348443D01*
X64445901Y-56354021D01*
X64399662Y-56357081D01*
X64326910Y-56358352D01*
X64244598Y-56358572D01*
X64000608Y-56358572D01*
X63914643Y-56013857D01*
X63828678Y-55669143D01*
X63749196Y-55669143D01*
X63697839Y-55672232D01*
X63674197Y-55683617D01*
X63669714Y-55699903D01*
X63674038Y-55724742D01*
X63685831Y-55777599D01*
X63703331Y-55851400D01*
X63724775Y-55939073D01*
X63748397Y-56033544D01*
X63772434Y-56127739D01*
X63795123Y-56214586D01*
X63814699Y-56287011D01*
X63826044Y-56326822D01*
X63827115Y-56339634D01*
X63817819Y-56348462D01*
X63792766Y-56354037D01*
X63746562Y-56357091D01*
X63673815Y-56358356D01*
X63592153Y-56358572D01*
X63348861Y-56358572D01*
X63270859Y-56054679D01*
X63238623Y-55928884D01*
X63213774Y-55833841D01*
X63194294Y-55765256D01*
X63178163Y-55718837D01*
X63163363Y-55690290D01*
X63147876Y-55675322D01*
X63129683Y-55669639D01*
X63106765Y-55668948D01*
X63089592Y-55669143D01*
X63039353Y-55673415D01*
X63018260Y-55687831D01*
X63016572Y-55696963D01*
X63020838Y-55722011D01*
X63032791Y-55776803D01*
X63051161Y-55855918D01*
X63074676Y-55953939D01*
X63102068Y-56065445D01*
X63116357Y-56122714D01*
X63145104Y-56238151D01*
X63170610Y-56342098D01*
X63191612Y-56429290D01*
X63206851Y-56494460D01*
X63215064Y-56532343D01*
X63216143Y-56539394D01*
X63199172Y-56549420D01*
X63152780Y-56555999D01*
X63089996Y-56558143D01*
X62963849Y-56558143D01*
X62947660Y-56499179D01*
X62936975Y-56458271D01*
X62920159Y-56391627D01*
X62907146Y-56339189D01*
X62737716Y-56339189D01*
X62728106Y-56346264D01*
X62704300Y-56351398D01*
X62662132Y-56354893D01*
X62597435Y-56357050D01*
X62506043Y-56358170D01*
X62383790Y-56358555D01*
X62340271Y-56358572D01*
X62208630Y-56358497D01*
X62108739Y-56357978D01*
X62036061Y-56356574D01*
X61986061Y-56353841D01*
X61954202Y-56349339D01*
X61935949Y-56342625D01*
X61926766Y-56333258D01*
X61922116Y-56320795D01*
X61921292Y-56317750D01*
X61912530Y-56280092D01*
X61910105Y-56263322D01*
X61927320Y-56259411D01*
X61975704Y-56255940D01*
X62050140Y-56253079D01*
X62145511Y-56250998D01*
X62256702Y-56249869D01*
X62318072Y-56249714D01*
X62452717Y-56250042D01*
X62555139Y-56251196D01*
X62629395Y-56253431D01*
X62679545Y-56257004D01*
X62709644Y-56262171D01*
X62723752Y-56269186D01*
X62726286Y-56275445D01*
X62732650Y-56315341D01*
X62737298Y-56329873D01*
X62737716Y-56339189D01*
X62907146Y-56339189D01*
X62899599Y-56308780D01*
X62879570Y-56227036D01*
X62827667Y-56013857D01*
X62332477Y-56013857D01*
X62202665Y-56013380D01*
X62085553Y-56012033D01*
X61985790Y-56009945D01*
X61908031Y-56007243D01*
X61856927Y-56004055D01*
X61837131Y-56000508D01*
X61837038Y-56000250D01*
X61832561Y-55973497D01*
X61825851Y-55945822D01*
X61814911Y-55905000D01*
X62308107Y-55905000D01*
X62454732Y-55904871D01*
X62568974Y-55904311D01*
X62654732Y-55903066D01*
X62715909Y-55900879D01*
X62756405Y-55897494D01*
X62780121Y-55892655D01*
X62790959Y-55886105D01*
X62792820Y-55877590D01*
X62791829Y-55873250D01*
X62781956Y-55837090D01*
X62767918Y-55782269D01*
X62761238Y-55755322D01*
X62740121Y-55669143D01*
X62170775Y-55669143D01*
X61985785Y-55669739D01*
X61837043Y-55671526D01*
X61724531Y-55674505D01*
X61648232Y-55678677D01*
X61608127Y-55684042D01*
X61601429Y-55687892D01*
X61605675Y-55710228D01*
X61617574Y-55762473D01*
X61635865Y-55839360D01*
X61659287Y-55935624D01*
X61686577Y-56045999D01*
X61701214Y-56104571D01*
X61730035Y-56220735D01*
X61755592Y-56326109D01*
X61776616Y-56415256D01*
X61791835Y-56482741D01*
X61799978Y-56523126D01*
X61801000Y-56531317D01*
X61793586Y-56548926D01*
X61765933Y-56555790D01*
X61716604Y-56554601D01*
X61632208Y-56549072D01*
X61631053Y-56544536D01*
X61456689Y-56544536D01*
X61439333Y-56548711D01*
X61391186Y-56552368D01*
X61317742Y-56555296D01*
X61224494Y-56557286D01*
X61116936Y-56558129D01*
X61100559Y-56558143D01*
X60973786Y-56557652D01*
X60879610Y-56556020D01*
X60814350Y-56553005D01*
X60774330Y-56548367D01*
X60755871Y-56541865D01*
X60754023Y-56535464D01*
X60764287Y-56512389D01*
X60787222Y-56462045D01*
X60820238Y-56390086D01*
X60860741Y-56302160D01*
X60903837Y-56208893D01*
X61044460Y-55905000D01*
X61303121Y-55905000D01*
X61380107Y-56217964D01*
X61404938Y-56319728D01*
X61426391Y-56409216D01*
X61443079Y-56480510D01*
X61453612Y-56527689D01*
X61456689Y-56544536D01*
X61631053Y-56544536D01*
X61435856Y-55778000D01*
X61394861Y-55616955D01*
X61356746Y-55467108D01*
X61322420Y-55332042D01*
X61292792Y-55215340D01*
X61268772Y-55120583D01*
X61251267Y-55051352D01*
X61241188Y-55011231D01*
X61239037Y-55002393D01*
X61222772Y-54998518D01*
X61184389Y-54997470D01*
X61137825Y-54998793D01*
X61097022Y-55002032D01*
X61075918Y-55006730D01*
X61075286Y-55007745D01*
X61079447Y-55027480D01*
X61090778Y-55075437D01*
X61107555Y-55144662D01*
X61128051Y-55228197D01*
X61150541Y-55319089D01*
X61173298Y-55410381D01*
X61194598Y-55495117D01*
X61212713Y-55566343D01*
X61225919Y-55617102D01*
X61231514Y-55637393D01*
X61232328Y-55646836D01*
X61225845Y-55654202D01*
X61208161Y-55659747D01*
X61175377Y-55663727D01*
X61123590Y-55666399D01*
X61048899Y-55668018D01*
X60947402Y-55668841D01*
X60815198Y-55669124D01*
X60747996Y-55669143D01*
X60595801Y-55669482D01*
X60476664Y-55670599D01*
X60387364Y-55672646D01*
X60324677Y-55675772D01*
X60285382Y-55680129D01*
X60266256Y-55685868D01*
X60263403Y-55691822D01*
X60272416Y-55721395D01*
X60286366Y-55772575D01*
X60295989Y-55809750D01*
X60320146Y-55905000D01*
X60563585Y-55905000D01*
X60665820Y-55905778D01*
X60735994Y-55908381D01*
X60778305Y-55913216D01*
X60796949Y-55920689D01*
X60798177Y-55927679D01*
X60788003Y-55950740D01*
X60765104Y-56001052D01*
X60732073Y-56072968D01*
X60691502Y-56160844D01*
X60648206Y-56254250D01*
X60507083Y-56558143D01*
X60133256Y-56558143D01*
X60115282Y-56490107D01*
X60105538Y-56452240D01*
X60088649Y-56385560D01*
X60066224Y-56296468D01*
X60039874Y-56191364D01*
X60011209Y-56076650D01*
X60003468Y-56045607D01*
X59995554Y-56013857D01*
X59827661Y-56013857D01*
X59417330Y-56013857D01*
X59282300Y-56013532D01*
X59179502Y-56012386D01*
X59104889Y-56010166D01*
X59054412Y-56006618D01*
X59024023Y-56001487D01*
X59009673Y-55994522D01*
X59007000Y-55988127D01*
X59000636Y-55948230D01*
X58995988Y-55933698D01*
X58995573Y-55924403D01*
X59005167Y-55917339D01*
X59028927Y-55912207D01*
X59071009Y-55908708D01*
X59135569Y-55906543D01*
X59226766Y-55905413D01*
X59348755Y-55905019D01*
X59395130Y-55905000D01*
X59512766Y-55905574D01*
X59617246Y-55907182D01*
X59703460Y-55909655D01*
X59766293Y-55912823D01*
X59800633Y-55916518D01*
X59805534Y-55918607D01*
X59810011Y-55945361D01*
X59816721Y-55973036D01*
X59827661Y-56013857D01*
X59995554Y-56013857D01*
X59909628Y-55669143D01*
X59340385Y-55669143D01*
X59200802Y-55669559D01*
X59073598Y-55670740D01*
X58963115Y-55672580D01*
X58873692Y-55674977D01*
X58809671Y-55677827D01*
X58775390Y-55681025D01*
X58770757Y-55682750D01*
X58774743Y-55704203D01*
X58785995Y-55754530D01*
X58803039Y-55827388D01*
X58824402Y-55916432D01*
X58838200Y-55973036D01*
X58906029Y-56249714D01*
X59401015Y-56249714D01*
X59550740Y-56249971D01*
X59667896Y-56250869D01*
X59756195Y-56252602D01*
X59819350Y-56255362D01*
X59861074Y-56259343D01*
X59885079Y-56264737D01*
X59895080Y-56271739D01*
X59896000Y-56275445D01*
X59902364Y-56315341D01*
X59907013Y-56329873D01*
X59907298Y-56338453D01*
X59898239Y-56345149D01*
X59876011Y-56350191D01*
X59836791Y-56353807D01*
X59776753Y-56356224D01*
X59692073Y-56357672D01*
X59578927Y-56358378D01*
X59433490Y-56358571D01*
X59426227Y-56358572D01*
X59296908Y-56358732D01*
X59180331Y-56359183D01*
X59081157Y-56359884D01*
X59004050Y-56360790D01*
X58953672Y-56361858D01*
X58934686Y-56363046D01*
X58934644Y-56363107D01*
X58939024Y-56381622D01*
X58950070Y-56424470D01*
X58960216Y-56462893D01*
X58985573Y-56558143D01*
X58818190Y-56558143D01*
X58641051Y-56550288D01*
X58493137Y-56525946D01*
X58370780Y-56483948D01*
X58270313Y-56423127D01*
X58206061Y-56363286D01*
X58188402Y-56342559D01*
X58172758Y-56320003D01*
X58157876Y-56291693D01*
X58142503Y-56253700D01*
X58125387Y-56202096D01*
X58105276Y-56132955D01*
X58080917Y-56042347D01*
X58051056Y-55926347D01*
X58014443Y-55781026D01*
X57992879Y-55694808D01*
X57952126Y-55530819D01*
X57919770Y-55398229D01*
X57895075Y-55293319D01*
X57877307Y-55212372D01*
X57865731Y-55151668D01*
X57859614Y-55107488D01*
X57858220Y-55076114D01*
X57860814Y-55053827D01*
X57864109Y-55042929D01*
X57899878Y-54975505D01*
X57954473Y-54922021D01*
X58018214Y-54882534D01*
X58090786Y-54843643D01*
X61374643Y-54843643D01*
X61780660Y-54843657D01*
X62151987Y-54843708D01*
X62490221Y-54843813D01*
X62796957Y-54843986D01*
X63073791Y-54844242D01*
X63322320Y-54844597D01*
X63544139Y-54845066D01*
X63740844Y-54845664D01*
X63914032Y-54846407D01*
X64065299Y-54847309D01*
X64196240Y-54848386D01*
X64308452Y-54849654D01*
X64403530Y-54851127D01*
X64483071Y-54852820D01*
X64548670Y-54854750D01*
X64601925Y-54856930D01*
X64644429Y-54859378D01*
X64677781Y-54862106D01*
X64703575Y-54865132D01*
X64723408Y-54868469D01*
X64738876Y-54872134D01*
X64750848Y-54875887D01*
X64852883Y-54922344D01*
X64941396Y-54983266D01*
X65007290Y-55051770D01*
X65028613Y-55086114D01*
X65040956Y-55119543D01*
X65060475Y-55183472D01*
X65085863Y-55273118D01*
X65115814Y-55383702D01*
X65149024Y-55510442D01*
X65184185Y-55648557D01*
X65204301Y-55729333D01*
X65346903Y-56306595D01*
X65657963Y-56306595D01*
X65647723Y-56251261D01*
X65627584Y-56156275D01*
X65601689Y-56042135D01*
X65571367Y-55914110D01*
X65537946Y-55777467D01*
X65502754Y-55637474D01*
X65467117Y-55499396D01*
X65432364Y-55368503D01*
X65399822Y-55250060D01*
X65370819Y-55149336D01*
X65346683Y-55071597D01*
X65328741Y-55022112D01*
X65325980Y-55016000D01*
X65263033Y-54916017D01*
X65174426Y-54817165D01*
X65069846Y-54728779D01*
X64958977Y-54660194D01*
X64954487Y-54657964D01*
X64914919Y-54638526D01*
X64878648Y-54621451D01*
X64843159Y-54606587D01*
X64805939Y-54593779D01*
X64764472Y-54582875D01*
X64716244Y-54573720D01*
X64658741Y-54566160D01*
X64589449Y-54560043D01*
X64505853Y-54555214D01*
X64405438Y-54551521D01*
X64285691Y-54548808D01*
X64144096Y-54546923D01*
X63978140Y-54545713D01*
X63785307Y-54545022D01*
X63563085Y-54544699D01*
X63308957Y-54544589D01*
X63098207Y-54544554D01*
X61592342Y-54544286D01*
X61347197Y-53564572D01*
X61102051Y-52584857D01*
X62376577Y-52584857D01*
X62443890Y-52843393D01*
X62474900Y-52963398D01*
X62510330Y-53101937D01*
X62545927Y-53242309D01*
X62577440Y-53367813D01*
X62579000Y-53374072D01*
X62646797Y-53646214D01*
X62777804Y-53651556D01*
X62908810Y-53656898D01*
X62895961Y-53606199D01*
X62888734Y-53577467D01*
X62873763Y-53517778D01*
X62852110Y-53431375D01*
X62824839Y-53322502D01*
X62793013Y-53195402D01*
X62757694Y-53054318D01*
X62719945Y-52903495D01*
X62717390Y-52893286D01*
X62551669Y-52231072D01*
X61648915Y-52226366D01*
X61444623Y-52225357D01*
X61273696Y-52224702D01*
X61133214Y-52224492D01*
X61020256Y-52224815D01*
G37*
X61020256Y-52224815D02*
X60931903Y-52225759D01*
X60865235Y-52227414D01*
X60817331Y-52229869D01*
X60785272Y-52233213D01*
X60766138Y-52237535D01*
X60757008Y-52242923D01*
X60754963Y-52249468D01*
X60755796Y-52253580D01*
X60761787Y-52276428D01*
X60775764Y-52331386D01*
X60796949Y-52415351D01*
X60824565Y-52525222D01*
X60857833Y-52657896D01*
X60895977Y-52810272D01*
X60938219Y-52979247D01*
X60983780Y-53161719D01*
X61031882Y-53354587D01*
X61039000Y-53383143D01*
X61087404Y-53577251D01*
X61133378Y-53761407D01*
X61176142Y-53932511D01*
X61214921Y-54087459D01*
X61248936Y-54223153D01*
X61277410Y-54336489D01*
X61299565Y-54424366D01*
X61314624Y-54483683D01*
X61321808Y-54511340D01*
X61322150Y-54512536D01*
X61322356Y-54517971D01*
X61318040Y-54522749D01*
X61307029Y-54526913D01*
X61287149Y-54530505D01*
X61256227Y-54533566D01*
X61212091Y-54536139D01*
X61152568Y-54538266D01*
X61075484Y-54539989D01*
X60978667Y-54541351D01*
X60859944Y-54542392D01*
X60717141Y-54543156D01*
X60548087Y-54543684D01*
X60350607Y-54544019D01*
X60122529Y-54544202D01*
X59861680Y-54544276D01*
X59683320Y-54544286D01*
X59390102Y-54544278D01*
X59130853Y-54544349D01*
X58903255Y-54544639D01*
X58704993Y-54545287D01*
X58533749Y-54546435D01*
X58387207Y-54548221D01*
X58263050Y-54550787D01*
X58158960Y-54554273D01*
X58072621Y-54558818D01*
X58001717Y-54564564D01*
X57943930Y-54571649D01*
X57896943Y-54580215D01*
X57858440Y-54590402D01*
X57826104Y-54602349D01*
X57797619Y-54616197D01*
X57770666Y-54632086D01*
X57742930Y-54650157D01*
X57723814Y-54662855D01*
X57625697Y-54746813D01*
X57558705Y-54847292D01*
X57524364Y-54961581D01*
X57519916Y-55025071D01*
X57524615Y-55073015D01*
X57537657Y-55150436D01*
X57557707Y-55251843D01*
X57583432Y-55371740D01*
X57613498Y-55504635D01*
X57646570Y-55645034D01*
X57681315Y-55787444D01*
X57716399Y-55926372D01*
X57750487Y-56056322D01*
X57782245Y-56171803D01*
X57810341Y-56267321D01*
X57833439Y-56337382D01*
X57846292Y-56369117D01*
X57922621Y-56488424D01*
X58029325Y-56596797D01*
X58161210Y-56690463D01*
X58313080Y-56765655D01*
X58458477Y-56813379D01*
X58476207Y-56817704D01*
X58495163Y-56821656D01*
X58516967Y-56825253D01*
X58543242Y-56828508D01*
X58575611Y-56831439D01*
X58615696Y-56834062D01*
X58665120Y-56836391D01*
X58725506Y-56838444D01*
X58798475Y-56840236D01*
X58885651Y-56841782D01*
X58988655Y-56843099D01*
X59109112Y-56844203D01*
X59248643Y-56845110D01*
X59408870Y-56845834D01*
X59591417Y-56846393D01*
X59797906Y-56846803D01*
X60029960Y-56847078D01*
X60289200Y-56847235D01*
X60577251Y-56847290D01*
X60895734Y-56847259D01*
X61246271Y-56847157D01*
X61630486Y-56847001D01*
X61881009Y-56846886D01*
X62307252Y-56846633D01*
X62698512Y-56846287D01*
X63056095Y-56845837D01*
X63381303Y-56845275D01*
X63675440Y-56844591D01*
X63939811Y-56843775D01*
X64175718Y-56842820D01*
X64384466Y-56841714D01*
X64567358Y-56840450D01*
X64725698Y-56839017D01*
X64860791Y-56837407D01*
X64973938Y-56835610D01*
X65066445Y-56833616D01*
X65139615Y-56831418D01*
X65194752Y-56829004D01*
X65233159Y-56826367D01*
X65256141Y-56823496D01*
X65259328Y-56822815D01*
X65393066Y-56775258D01*
X65503152Y-56704821D01*
X65586919Y-56614525D01*
X65641701Y-56507391D01*
X65664832Y-56386440D01*
X65665429Y-56362707D01*
X65660781Y-56321828D01*
X65657963Y-56306595D01*
X65346903Y-56306595D01*
X65311130Y-56371935D01*
X65253541Y-56447755D01*
X65173977Y-56502330D01*
X65069669Y-56536745D01*
X64937848Y-56552083D01*
X64849583Y-56552713D01*
X64695952Y-56549072D01*
X64587546Y-56109107D01*
X64479140Y-55669143D01*
X64400999Y-55669143D01*
X64347771Y-55673284D01*
X64324768Y-55686881D01*
X64322857Y-55695422D01*
X64327125Y-55718961D01*
X64338772Y-55770639D01*
X64356067Y-55843473D01*
X64377277Y-55930478D01*
X64400671Y-56024672D01*
X64424517Y-56119070D01*
X64447081Y-56206688D01*
X64466634Y-56280544D01*
X64479457Y-56326822D01*
X64480407Y-56339620D01*
X64471019Y-56348443D01*
X64445901Y-56354021D01*
X64399662Y-56357081D01*
X64326910Y-56358352D01*
X64244598Y-56358572D01*
X64000608Y-56358572D01*
X63914643Y-56013857D01*
X63828678Y-55669143D01*
X63749196Y-55669143D01*
X63697839Y-55672232D01*
X63674197Y-55683617D01*
X63669714Y-55699903D01*
X63674038Y-55724742D01*
X63685831Y-55777599D01*
X63703331Y-55851400D01*
X63724775Y-55939073D01*
X63748397Y-56033544D01*
X63772434Y-56127739D01*
X63795123Y-56214586D01*
X63814699Y-56287011D01*
X63826044Y-56326822D01*
X63827115Y-56339634D01*
X63817819Y-56348462D01*
X63792766Y-56354037D01*
X63746562Y-56357091D01*
X63673815Y-56358356D01*
X63592153Y-56358572D01*
X63348861Y-56358572D01*
X63270859Y-56054679D01*
X63238623Y-55928884D01*
X63213774Y-55833841D01*
X63194294Y-55765256D01*
X63178163Y-55718837D01*
X63163363Y-55690290D01*
X63147876Y-55675322D01*
X63129683Y-55669639D01*
X63106765Y-55668948D01*
X63089592Y-55669143D01*
X63039353Y-55673415D01*
X63018260Y-55687831D01*
X63016572Y-55696963D01*
X63020838Y-55722011D01*
X63032791Y-55776803D01*
X63051161Y-55855918D01*
X63074676Y-55953939D01*
X63102068Y-56065445D01*
X63116357Y-56122714D01*
X63145104Y-56238151D01*
X63170610Y-56342098D01*
X63191612Y-56429290D01*
X63206851Y-56494460D01*
X63215064Y-56532343D01*
X63216143Y-56539394D01*
X63199172Y-56549420D01*
X63152780Y-56555999D01*
X63089996Y-56558143D01*
X62963849Y-56558143D01*
X62947660Y-56499179D01*
X62936975Y-56458271D01*
X62920159Y-56391627D01*
X62907146Y-56339189D01*
X62737716Y-56339189D01*
X62728106Y-56346264D01*
X62704300Y-56351398D01*
X62662132Y-56354893D01*
X62597435Y-56357050D01*
X62506043Y-56358170D01*
X62383790Y-56358555D01*
X62340271Y-56358572D01*
X62208630Y-56358497D01*
X62108739Y-56357978D01*
X62036061Y-56356574D01*
X61986061Y-56353841D01*
X61954202Y-56349339D01*
X61935949Y-56342625D01*
X61926766Y-56333258D01*
X61922116Y-56320795D01*
X61921292Y-56317750D01*
X61912530Y-56280092D01*
X61910105Y-56263322D01*
X61927320Y-56259411D01*
X61975704Y-56255940D01*
X62050140Y-56253079D01*
X62145511Y-56250998D01*
X62256702Y-56249869D01*
X62318072Y-56249714D01*
X62452717Y-56250042D01*
X62555139Y-56251196D01*
X62629395Y-56253431D01*
X62679545Y-56257004D01*
X62709644Y-56262171D01*
X62723752Y-56269186D01*
X62726286Y-56275445D01*
X62732650Y-56315341D01*
X62737298Y-56329873D01*
X62737716Y-56339189D01*
X62907146Y-56339189D01*
X62899599Y-56308780D01*
X62879570Y-56227036D01*
X62827667Y-56013857D01*
X62332477Y-56013857D01*
X62202665Y-56013380D01*
X62085553Y-56012033D01*
X61985790Y-56009945D01*
X61908031Y-56007243D01*
X61856927Y-56004055D01*
X61837131Y-56000508D01*
X61837038Y-56000250D01*
X61832561Y-55973497D01*
X61825851Y-55945822D01*
X61814911Y-55905000D01*
X62308107Y-55905000D01*
X62454732Y-55904871D01*
X62568974Y-55904311D01*
X62654732Y-55903066D01*
X62715909Y-55900879D01*
X62756405Y-55897494D01*
X62780121Y-55892655D01*
X62790959Y-55886105D01*
X62792820Y-55877590D01*
X62791829Y-55873250D01*
X62781956Y-55837090D01*
X62767918Y-55782269D01*
X62761238Y-55755322D01*
X62740121Y-55669143D01*
X62170775Y-55669143D01*
X61985785Y-55669739D01*
X61837043Y-55671526D01*
X61724531Y-55674505D01*
X61648232Y-55678677D01*
X61608127Y-55684042D01*
X61601429Y-55687892D01*
X61605675Y-55710228D01*
X61617574Y-55762473D01*
X61635865Y-55839360D01*
X61659287Y-55935624D01*
X61686577Y-56045999D01*
X61701214Y-56104571D01*
X61730035Y-56220735D01*
X61755592Y-56326109D01*
X61776616Y-56415256D01*
X61791835Y-56482741D01*
X61799978Y-56523126D01*
X61801000Y-56531317D01*
X61793586Y-56548926D01*
X61765933Y-56555790D01*
X61716604Y-56554601D01*
X61632208Y-56549072D01*
X61631053Y-56544536D01*
X61456689Y-56544536D01*
X61439333Y-56548711D01*
X61391186Y-56552368D01*
X61317742Y-56555296D01*
X61224494Y-56557286D01*
X61116936Y-56558129D01*
X61100559Y-56558143D01*
X60973786Y-56557652D01*
X60879610Y-56556020D01*
X60814350Y-56553005D01*
X60774330Y-56548367D01*
X60755871Y-56541865D01*
X60754023Y-56535464D01*
X60764287Y-56512389D01*
X60787222Y-56462045D01*
X60820238Y-56390086D01*
X60860741Y-56302160D01*
X60903837Y-56208893D01*
X61044460Y-55905000D01*
X61303121Y-55905000D01*
X61380107Y-56217964D01*
X61404938Y-56319728D01*
X61426391Y-56409216D01*
X61443079Y-56480510D01*
X61453612Y-56527689D01*
X61456689Y-56544536D01*
X61631053Y-56544536D01*
X61435856Y-55778000D01*
X61394861Y-55616955D01*
X61356746Y-55467108D01*
X61322420Y-55332042D01*
X61292792Y-55215340D01*
X61268772Y-55120583D01*
X61251267Y-55051352D01*
X61241188Y-55011231D01*
X61239037Y-55002393D01*
X61222772Y-54998518D01*
X61184389Y-54997470D01*
X61137825Y-54998793D01*
X61097022Y-55002032D01*
X61075918Y-55006730D01*
X61075286Y-55007745D01*
X61079447Y-55027480D01*
X61090778Y-55075437D01*
X61107555Y-55144662D01*
X61128051Y-55228197D01*
X61150541Y-55319089D01*
X61173298Y-55410381D01*
X61194598Y-55495117D01*
X61212713Y-55566343D01*
X61225919Y-55617102D01*
X61231514Y-55637393D01*
X61232328Y-55646836D01*
X61225845Y-55654202D01*
X61208161Y-55659747D01*
X61175377Y-55663727D01*
X61123590Y-55666399D01*
X61048899Y-55668018D01*
X60947402Y-55668841D01*
X60815198Y-55669124D01*
X60747996Y-55669143D01*
X60595801Y-55669482D01*
X60476664Y-55670599D01*
X60387364Y-55672646D01*
X60324677Y-55675772D01*
X60285382Y-55680129D01*
X60266256Y-55685868D01*
X60263403Y-55691822D01*
X60272416Y-55721395D01*
X60286366Y-55772575D01*
X60295989Y-55809750D01*
X60320146Y-55905000D01*
X60563585Y-55905000D01*
X60665820Y-55905778D01*
X60735994Y-55908381D01*
X60778305Y-55913216D01*
X60796949Y-55920689D01*
X60798177Y-55927679D01*
X60788003Y-55950740D01*
X60765104Y-56001052D01*
X60732073Y-56072968D01*
X60691502Y-56160844D01*
X60648206Y-56254250D01*
X60507083Y-56558143D01*
X60133256Y-56558143D01*
X60115282Y-56490107D01*
X60105538Y-56452240D01*
X60088649Y-56385560D01*
X60066224Y-56296468D01*
X60039874Y-56191364D01*
X60011209Y-56076650D01*
X60003468Y-56045607D01*
X59995554Y-56013857D01*
X59827661Y-56013857D01*
X59417330Y-56013857D01*
X59282300Y-56013532D01*
X59179502Y-56012386D01*
X59104889Y-56010166D01*
X59054412Y-56006618D01*
X59024023Y-56001487D01*
X59009673Y-55994522D01*
X59007000Y-55988127D01*
X59000636Y-55948230D01*
X58995988Y-55933698D01*
X58995573Y-55924403D01*
X59005167Y-55917339D01*
X59028927Y-55912207D01*
X59071009Y-55908708D01*
X59135569Y-55906543D01*
X59226766Y-55905413D01*
X59348755Y-55905019D01*
X59395130Y-55905000D01*
X59512766Y-55905574D01*
X59617246Y-55907182D01*
X59703460Y-55909655D01*
X59766293Y-55912823D01*
X59800633Y-55916518D01*
X59805534Y-55918607D01*
X59810011Y-55945361D01*
X59816721Y-55973036D01*
X59827661Y-56013857D01*
X59995554Y-56013857D01*
X59909628Y-55669143D01*
X59340385Y-55669143D01*
X59200802Y-55669559D01*
X59073598Y-55670740D01*
X58963115Y-55672580D01*
X58873692Y-55674977D01*
X58809671Y-55677827D01*
X58775390Y-55681025D01*
X58770757Y-55682750D01*
X58774743Y-55704203D01*
X58785995Y-55754530D01*
X58803039Y-55827388D01*
X58824402Y-55916432D01*
X58838200Y-55973036D01*
X58906029Y-56249714D01*
X59401015Y-56249714D01*
X59550740Y-56249971D01*
X59667896Y-56250869D01*
X59756195Y-56252602D01*
X59819350Y-56255362D01*
X59861074Y-56259343D01*
X59885079Y-56264737D01*
X59895080Y-56271739D01*
X59896000Y-56275445D01*
X59902364Y-56315341D01*
X59907013Y-56329873D01*
X59907298Y-56338453D01*
X59898239Y-56345149D01*
X59876011Y-56350191D01*
X59836791Y-56353807D01*
X59776753Y-56356224D01*
X59692073Y-56357672D01*
X59578927Y-56358378D01*
X59433490Y-56358571D01*
X59426227Y-56358572D01*
X59296908Y-56358732D01*
X59180331Y-56359183D01*
X59081157Y-56359884D01*
X59004050Y-56360790D01*
X58953672Y-56361858D01*
X58934686Y-56363046D01*
X58934644Y-56363107D01*
X58939024Y-56381622D01*
X58950070Y-56424470D01*
X58960216Y-56462893D01*
X58985573Y-56558143D01*
X58818190Y-56558143D01*
X58641051Y-56550288D01*
X58493137Y-56525946D01*
X58370780Y-56483948D01*
X58270313Y-56423127D01*
X58206061Y-56363286D01*
X58188402Y-56342559D01*
X58172758Y-56320003D01*
X58157876Y-56291693D01*
X58142503Y-56253700D01*
X58125387Y-56202096D01*
X58105276Y-56132955D01*
X58080917Y-56042347D01*
X58051056Y-55926347D01*
X58014443Y-55781026D01*
X57992879Y-55694808D01*
X57952126Y-55530819D01*
X57919770Y-55398229D01*
X57895075Y-55293319D01*
X57877307Y-55212372D01*
X57865731Y-55151668D01*
X57859614Y-55107488D01*
X57858220Y-55076114D01*
X57860814Y-55053827D01*
X57864109Y-55042929D01*
X57899878Y-54975505D01*
X57954473Y-54922021D01*
X58018214Y-54882534D01*
X58090786Y-54843643D01*
X61374643Y-54843643D01*
X61780660Y-54843657D01*
X62151987Y-54843708D01*
X62490221Y-54843813D01*
X62796957Y-54843986D01*
X63073791Y-54844242D01*
X63322320Y-54844597D01*
X63544139Y-54845066D01*
X63740844Y-54845664D01*
X63914032Y-54846407D01*
X64065299Y-54847309D01*
X64196240Y-54848386D01*
X64308452Y-54849654D01*
X64403530Y-54851127D01*
X64483071Y-54852820D01*
X64548670Y-54854750D01*
X64601925Y-54856930D01*
X64644429Y-54859378D01*
X64677781Y-54862106D01*
X64703575Y-54865132D01*
X64723408Y-54868469D01*
X64738876Y-54872134D01*
X64750848Y-54875887D01*
X64852883Y-54922344D01*
X64941396Y-54983266D01*
X65007290Y-55051770D01*
X65028613Y-55086114D01*
X65040956Y-55119543D01*
X65060475Y-55183472D01*
X65085863Y-55273118D01*
X65115814Y-55383702D01*
X65149024Y-55510442D01*
X65184185Y-55648557D01*
X65204301Y-55729333D01*
X65346903Y-56306595D01*
X65657963Y-56306595D01*
X65647723Y-56251261D01*
X65627584Y-56156275D01*
X65601689Y-56042135D01*
X65571367Y-55914110D01*
X65537946Y-55777467D01*
X65502754Y-55637474D01*
X65467117Y-55499396D01*
X65432364Y-55368503D01*
X65399822Y-55250060D01*
X65370819Y-55149336D01*
X65346683Y-55071597D01*
X65328741Y-55022112D01*
X65325980Y-55016000D01*
X65263033Y-54916017D01*
X65174426Y-54817165D01*
X65069846Y-54728779D01*
X64958977Y-54660194D01*
X64954487Y-54657964D01*
X64914919Y-54638526D01*
X64878648Y-54621451D01*
X64843159Y-54606587D01*
X64805939Y-54593779D01*
X64764472Y-54582875D01*
X64716244Y-54573720D01*
X64658741Y-54566160D01*
X64589449Y-54560043D01*
X64505853Y-54555214D01*
X64405438Y-54551521D01*
X64285691Y-54548808D01*
X64144096Y-54546923D01*
X63978140Y-54545713D01*
X63785307Y-54545022D01*
X63563085Y-54544699D01*
X63308957Y-54544589D01*
X63098207Y-54544554D01*
X61592342Y-54544286D01*
X61347197Y-53564572D01*
X61102051Y-52584857D01*
X62376577Y-52584857D01*
X62443890Y-52843393D01*
X62474900Y-52963398D01*
X62510330Y-53101937D01*
X62545927Y-53242309D01*
X62577440Y-53367813D01*
X62579000Y-53374072D01*
X62646797Y-53646214D01*
X62777804Y-53651556D01*
X62908810Y-53656898D01*
X62895961Y-53606199D01*
X62888734Y-53577467D01*
X62873763Y-53517778D01*
X62852110Y-53431375D01*
X62824839Y-53322502D01*
X62793013Y-53195402D01*
X62757694Y-53054318D01*
X62719945Y-52903495D01*
X62717390Y-52893286D01*
X62551669Y-52231072D01*
X61648915Y-52226366D01*
X61444623Y-52225357D01*
X61273696Y-52224702D01*
X61133214Y-52224492D01*
X61020256Y-52224815D01*
G36*
X65320528Y-52224813D02*
G01*
X65232100Y-52225755D01*
X65165366Y-52227407D01*
X65117406Y-52229858D01*
X65085304Y-52233197D01*
X65066140Y-52237513D01*
X65056995Y-52242893D01*
X65054953Y-52249428D01*
X65055810Y-52253580D01*
X65062007Y-52276738D01*
X65076278Y-52331760D01*
X65097776Y-52415334D01*
X65125655Y-52524152D01*
X65159070Y-52654904D01*
X65197173Y-52804280D01*
X65239119Y-52968971D01*
X65284061Y-53145667D01*
X65312132Y-53256143D01*
X65358798Y-53439841D01*
X65403219Y-53614632D01*
X65444511Y-53777044D01*
X65481792Y-53923606D01*
X65514177Y-54050846D01*
X65540784Y-54155291D01*
X65560727Y-54233472D01*
X65573125Y-54281914D01*
X65576459Y-54294821D01*
X65594256Y-54362857D01*
X66492851Y-54362857D01*
X66696684Y-54362798D01*
X66867157Y-54362553D01*
X67007196Y-54362015D01*
X67119726Y-54361081D01*
X67207674Y-54359647D01*
X67273964Y-54357609D01*
X67321522Y-54354860D01*
X67353274Y-54351298D01*
X67372146Y-54346818D01*
X67381064Y-54341315D01*
X67382952Y-54334684D01*
X67382231Y-54331107D01*
X67371999Y-54293341D01*
X67358267Y-54239811D01*
X67355016Y-54226786D01*
X67337993Y-54159117D01*
X67319592Y-54087284D01*
X67316951Y-54077107D01*
X67296887Y-54000000D01*
X65760598Y-54000000D01*
X65722085Y-53846442D01*
X65704682Y-53775012D01*
X65691371Y-53716493D01*
X65684233Y-53680192D01*
X65683572Y-53674085D01*
X65700605Y-53668797D01*
X65751941Y-53664393D01*
X65837928Y-53660866D01*
X65958919Y-53658205D01*
X66115263Y-53656404D01*
X66307311Y-53655453D01*
X66447013Y-53655286D01*
X67210455Y-53655286D01*
X67199489Y-53605393D01*
X67192643Y-53576869D01*
X67177930Y-53517407D01*
X67156412Y-53431237D01*
X67129151Y-53322592D01*
X67115680Y-53269075D01*
X66856485Y-53269075D01*
X66850667Y-53275849D01*
X66834916Y-53281175D01*
X66805791Y-53285225D01*
X66759850Y-53288172D01*
X66693649Y-53290189D01*
X66603746Y-53291450D01*
X66486700Y-53292127D01*
X66339068Y-53292394D01*
X66224019Y-53292429D01*
X65582736Y-53292429D01*
X65503173Y-52970393D01*
X65477243Y-52865517D01*
X65453927Y-52771357D01*
X65434778Y-52694178D01*
X65421350Y-52640243D01*
X65415404Y-52616607D01*
X65415086Y-52608177D01*
X65421253Y-52601382D01*
X65437369Y-52596048D01*
X65466897Y-52591998D01*
X65513301Y-52589058D01*
X65580046Y-52587052D01*
X65670595Y-52585805D01*
X65788412Y-52585142D01*
X65936960Y-52584887D01*
X66042906Y-52584857D01*
X66678615Y-52584857D01*
X66697419Y-52643821D01*
X66708452Y-52682340D01*
X66725969Y-52748039D01*
X66747866Y-52832847D01*
X66772042Y-52928687D01*
X66781274Y-52965857D01*
X66804866Y-53060834D01*
X66825973Y-53145009D01*
X66842792Y-53211257D01*
X66853523Y-53252452D01*
X66855814Y-53260679D01*
X66856485Y-53269075D01*
X67115680Y-53269075D01*
X67097210Y-53195701D01*
X67061649Y-53054798D01*
X67023531Y-52904112D01*
X67020789Y-52893286D01*
X66853055Y-52231072D01*
X65949536Y-52226366D01*
X65745153Y-52225357D01*
X65574136Y-52224703D01*
X65433567Y-52224492D01*
X65320528Y-52224813D01*
G37*
X65320528Y-52224813D02*
X65232100Y-52225755D01*
X65165366Y-52227407D01*
X65117406Y-52229858D01*
X65085304Y-52233197D01*
X65066140Y-52237513D01*
X65056995Y-52242893D01*
X65054953Y-52249428D01*
X65055810Y-52253580D01*
X65062007Y-52276738D01*
X65076278Y-52331760D01*
X65097776Y-52415334D01*
X65125655Y-52524152D01*
X65159070Y-52654904D01*
X65197173Y-52804280D01*
X65239119Y-52968971D01*
X65284061Y-53145667D01*
X65312132Y-53256143D01*
X65358798Y-53439841D01*
X65403219Y-53614632D01*
X65444511Y-53777044D01*
X65481792Y-53923606D01*
X65514177Y-54050846D01*
X65540784Y-54155291D01*
X65560727Y-54233472D01*
X65573125Y-54281914D01*
X65576459Y-54294821D01*
X65594256Y-54362857D01*
X66492851Y-54362857D01*
X66696684Y-54362798D01*
X66867157Y-54362553D01*
X67007196Y-54362015D01*
X67119726Y-54361081D01*
X67207674Y-54359647D01*
X67273964Y-54357609D01*
X67321522Y-54354860D01*
X67353274Y-54351298D01*
X67372146Y-54346818D01*
X67381064Y-54341315D01*
X67382952Y-54334684D01*
X67382231Y-54331107D01*
X67371999Y-54293341D01*
X67358267Y-54239811D01*
X67355016Y-54226786D01*
X67337993Y-54159117D01*
X67319592Y-54087284D01*
X67316951Y-54077107D01*
X67296887Y-54000000D01*
X65760598Y-54000000D01*
X65722085Y-53846442D01*
X65704682Y-53775012D01*
X65691371Y-53716493D01*
X65684233Y-53680192D01*
X65683572Y-53674085D01*
X65700605Y-53668797D01*
X65751941Y-53664393D01*
X65837928Y-53660866D01*
X65958919Y-53658205D01*
X66115263Y-53656404D01*
X66307311Y-53655453D01*
X66447013Y-53655286D01*
X67210455Y-53655286D01*
X67199489Y-53605393D01*
X67192643Y-53576869D01*
X67177930Y-53517407D01*
X67156412Y-53431237D01*
X67129151Y-53322592D01*
X67115680Y-53269075D01*
X66856485Y-53269075D01*
X66850667Y-53275849D01*
X66834916Y-53281175D01*
X66805791Y-53285225D01*
X66759850Y-53288172D01*
X66693649Y-53290189D01*
X66603746Y-53291450D01*
X66486700Y-53292127D01*
X66339068Y-53292394D01*
X66224019Y-53292429D01*
X65582736Y-53292429D01*
X65503173Y-52970393D01*
X65477243Y-52865517D01*
X65453927Y-52771357D01*
X65434778Y-52694178D01*
X65421350Y-52640243D01*
X65415404Y-52616607D01*
X65415086Y-52608177D01*
X65421253Y-52601382D01*
X65437369Y-52596048D01*
X65466897Y-52591998D01*
X65513301Y-52589058D01*
X65580046Y-52587052D01*
X65670595Y-52585805D01*
X65788412Y-52585142D01*
X65936960Y-52584887D01*
X66042906Y-52584857D01*
X66678615Y-52584857D01*
X66697419Y-52643821D01*
X66708452Y-52682340D01*
X66725969Y-52748039D01*
X66747866Y-52832847D01*
X66772042Y-52928687D01*
X66781274Y-52965857D01*
X66804866Y-53060834D01*
X66825973Y-53145009D01*
X66842792Y-53211257D01*
X66853523Y-53252452D01*
X66855814Y-53260679D01*
X66856485Y-53269075D01*
X67115680Y-53269075D01*
X67097210Y-53195701D01*
X67061649Y-53054798D01*
X67023531Y-52904112D01*
X67020789Y-52893286D01*
X66853055Y-52231072D01*
X65949536Y-52226366D01*
X65745153Y-52225357D01*
X65574136Y-52224703D01*
X65433567Y-52224492D01*
X65320528Y-52224813D01*
G36*
X57873381Y-52223791D02*
G01*
X57828336Y-52228500D01*
X57809779Y-52235136D01*
X57809709Y-52235607D01*
X57814096Y-52255985D01*
X57826442Y-52307028D01*
X57845625Y-52384268D01*
X57870526Y-52483240D01*
X57900025Y-52599474D01*
X57933003Y-52728505D01*
X57943864Y-52770821D01*
X58077882Y-53292429D01*
X56799032Y-53292429D01*
X56663172Y-52761750D01*
X56527311Y-52231072D01*
X56397370Y-52225741D01*
X56334156Y-52224981D01*
X56288166Y-52227928D01*
X56268376Y-52233952D01*
X56268185Y-52234812D01*
X56272691Y-52254520D01*
X56285409Y-52306284D01*
X56305556Y-52387008D01*
X56332352Y-52493594D01*
X56365013Y-52622945D01*
X56402759Y-52771964D01*
X56444807Y-52937555D01*
X56490375Y-53116620D01*
X56537516Y-53301500D01*
X56806091Y-54353786D01*
X57704903Y-54358490D01*
X58603714Y-54363194D01*
X58512642Y-54000000D01*
X56976399Y-54000000D01*
X56958694Y-53931964D01*
X56943924Y-53874852D01*
X56925401Y-53802768D01*
X56914360Y-53759607D01*
X56887730Y-53655286D01*
X57658302Y-53655286D01*
X57845795Y-53655214D01*
X58000153Y-53654912D01*
X58124527Y-53654248D01*
X58222070Y-53653090D01*
X58295932Y-53651307D01*
X58349264Y-53648767D01*
X58385217Y-53645340D01*
X58406942Y-53640893D01*
X58417592Y-53635295D01*
X58420316Y-53628415D01*
X58419433Y-53623536D01*
X58412925Y-53598987D01*
X58398677Y-53543498D01*
X58377767Y-53461326D01*
X58351273Y-53356728D01*
X58320275Y-53233963D01*
X58285850Y-53097287D01*
X58255097Y-52974929D01*
X58218118Y-52827899D01*
X58183198Y-52689494D01*
X58151501Y-52564302D01*
X58124194Y-52456908D01*
X58102441Y-52371900D01*
X58087409Y-52313863D01*
X58081034Y-52290036D01*
X58061866Y-52222000D01*
X57935719Y-52222000D01*
X57873381Y-52223791D01*
G37*
X57873381Y-52223791D02*
X57828336Y-52228500D01*
X57809779Y-52235136D01*
X57809709Y-52235607D01*
X57814096Y-52255985D01*
X57826442Y-52307028D01*
X57845625Y-52384268D01*
X57870526Y-52483240D01*
X57900025Y-52599474D01*
X57933003Y-52728505D01*
X57943864Y-52770821D01*
X58077882Y-53292429D01*
X56799032Y-53292429D01*
X56663172Y-52761750D01*
X56527311Y-52231072D01*
X56397370Y-52225741D01*
X56334156Y-52224981D01*
X56288166Y-52227928D01*
X56268376Y-52233952D01*
X56268185Y-52234812D01*
X56272691Y-52254520D01*
X56285409Y-52306284D01*
X56305556Y-52387008D01*
X56332352Y-52493594D01*
X56365013Y-52622945D01*
X56402759Y-52771964D01*
X56444807Y-52937555D01*
X56490375Y-53116620D01*
X56537516Y-53301500D01*
X56806091Y-54353786D01*
X57704903Y-54358490D01*
X58603714Y-54363194D01*
X58512642Y-54000000D01*
X56976399Y-54000000D01*
X56958694Y-53931964D01*
X56943924Y-53874852D01*
X56925401Y-53802768D01*
X56914360Y-53759607D01*
X56887730Y-53655286D01*
X57658302Y-53655286D01*
X57845795Y-53655214D01*
X58000153Y-53654912D01*
X58124527Y-53654248D01*
X58222070Y-53653090D01*
X58295932Y-53651307D01*
X58349264Y-53648767D01*
X58385217Y-53645340D01*
X58406942Y-53640893D01*
X58417592Y-53635295D01*
X58420316Y-53628415D01*
X58419433Y-53623536D01*
X58412925Y-53598987D01*
X58398677Y-53543498D01*
X58377767Y-53461326D01*
X58351273Y-53356728D01*
X58320275Y-53233963D01*
X58285850Y-53097287D01*
X58255097Y-52974929D01*
X58218118Y-52827899D01*
X58183198Y-52689494D01*
X58151501Y-52564302D01*
X58124194Y-52456908D01*
X58102441Y-52371900D01*
X58087409Y-52313863D01*
X58081034Y-52290036D01*
X58061866Y-52222000D01*
X57935719Y-52222000D01*
X57873381Y-52223791D01*
G36*
X74573187Y-51154387D02*
G01*
X74484767Y-51155331D01*
X74418030Y-51156986D01*
X74370054Y-51159441D01*
X74337919Y-51162783D01*
X74318705Y-51167103D01*
X74309492Y-51172490D01*
X74307358Y-51179031D01*
X74308144Y-51183151D01*
X74318263Y-51220442D01*
X74332206Y-51274544D01*
X74336634Y-51292179D01*
X74354197Y-51361859D01*
X74372264Y-51432456D01*
X74374699Y-51441857D01*
X74393542Y-51514429D01*
X75932887Y-51514429D01*
X75950788Y-51582464D01*
X75961330Y-51623400D01*
X75978667Y-51691686D01*
X76000812Y-51779464D01*
X76025782Y-51878876D01*
X76040147Y-51936250D01*
X76111604Y-52222000D01*
X75341365Y-52222000D01*
X75153913Y-52222072D01*
X74999594Y-52222374D01*
X74875255Y-52223040D01*
X74777744Y-52224199D01*
X74703906Y-52225984D01*
X74650591Y-52228527D01*
X74614645Y-52231958D01*
X74592915Y-52236409D01*
X74582249Y-52242012D01*
X74579494Y-52248898D01*
X74580340Y-52253750D01*
X74590423Y-52290920D01*
X74604343Y-52344946D01*
X74608777Y-52362607D01*
X74626339Y-52432288D01*
X74644407Y-52502884D01*
X74646842Y-52512286D01*
X74665684Y-52584857D01*
X76205030Y-52584857D01*
X76222931Y-52652893D01*
X76233473Y-52693829D01*
X76250809Y-52762115D01*
X76272955Y-52849892D01*
X76297925Y-52949304D01*
X76312290Y-53006679D01*
X76383747Y-53292429D01*
X75614731Y-53292429D01*
X75451644Y-53292675D01*
X75300352Y-53293379D01*
X75164585Y-53294489D01*
X75048074Y-53295951D01*
X74954550Y-53297714D01*
X74887743Y-53299725D01*
X74851385Y-53301931D01*
X74845714Y-53303243D01*
X74850245Y-53325448D01*
X74861875Y-53370828D01*
X74871947Y-53407565D01*
X74891826Y-53479738D01*
X74911367Y-53552708D01*
X74918004Y-53578179D01*
X74937827Y-53655286D01*
X75835199Y-53655286D01*
X76011757Y-53655019D01*
X76176771Y-53654255D01*
X76326791Y-53653046D01*
X76458368Y-53651443D01*
X76568051Y-53649500D01*
X76652393Y-53647269D01*
X76707942Y-53644801D01*
X76731249Y-53642150D01*
X76731757Y-53641679D01*
X76727271Y-53622260D01*
X76714569Y-53570524D01*
X76694367Y-53489324D01*
X76667383Y-53381512D01*
X76634333Y-53249939D01*
X76595936Y-53097458D01*
X76552907Y-52926921D01*
X76505964Y-52741179D01*
X76455825Y-52543086D01*
X76418134Y-52394357D01*
X76105326Y-51160643D01*
X75202100Y-51155937D01*
X74997746Y-51154928D01*
X74826756Y-51154274D01*
X74686210Y-51154064D01*
X74573187Y-51154387D01*
G37*
X74573187Y-51154387D02*
X74484767Y-51155331D01*
X74418030Y-51156986D01*
X74370054Y-51159441D01*
X74337919Y-51162783D01*
X74318705Y-51167103D01*
X74309492Y-51172490D01*
X74307358Y-51179031D01*
X74308144Y-51183151D01*
X74318263Y-51220442D01*
X74332206Y-51274544D01*
X74336634Y-51292179D01*
X74354197Y-51361859D01*
X74372264Y-51432456D01*
X74374699Y-51441857D01*
X74393542Y-51514429D01*
X75932887Y-51514429D01*
X75950788Y-51582464D01*
X75961330Y-51623400D01*
X75978667Y-51691686D01*
X76000812Y-51779464D01*
X76025782Y-51878876D01*
X76040147Y-51936250D01*
X76111604Y-52222000D01*
X75341365Y-52222000D01*
X75153913Y-52222072D01*
X74999594Y-52222374D01*
X74875255Y-52223040D01*
X74777744Y-52224199D01*
X74703906Y-52225984D01*
X74650591Y-52228527D01*
X74614645Y-52231958D01*
X74592915Y-52236409D01*
X74582249Y-52242012D01*
X74579494Y-52248898D01*
X74580340Y-52253750D01*
X74590423Y-52290920D01*
X74604343Y-52344946D01*
X74608777Y-52362607D01*
X74626339Y-52432288D01*
X74644407Y-52502884D01*
X74646842Y-52512286D01*
X74665684Y-52584857D01*
X76205030Y-52584857D01*
X76222931Y-52652893D01*
X76233473Y-52693829D01*
X76250809Y-52762115D01*
X76272955Y-52849892D01*
X76297925Y-52949304D01*
X76312290Y-53006679D01*
X76383747Y-53292429D01*
X75614731Y-53292429D01*
X75451644Y-53292675D01*
X75300352Y-53293379D01*
X75164585Y-53294489D01*
X75048074Y-53295951D01*
X74954550Y-53297714D01*
X74887743Y-53299725D01*
X74851385Y-53301931D01*
X74845714Y-53303243D01*
X74850245Y-53325448D01*
X74861875Y-53370828D01*
X74871947Y-53407565D01*
X74891826Y-53479738D01*
X74911367Y-53552708D01*
X74918004Y-53578179D01*
X74937827Y-53655286D01*
X75835199Y-53655286D01*
X76011757Y-53655019D01*
X76176771Y-53654255D01*
X76326791Y-53653046D01*
X76458368Y-53651443D01*
X76568051Y-53649500D01*
X76652393Y-53647269D01*
X76707942Y-53644801D01*
X76731249Y-53642150D01*
X76731757Y-53641679D01*
X76727271Y-53622260D01*
X76714569Y-53570524D01*
X76694367Y-53489324D01*
X76667383Y-53381512D01*
X76634333Y-53249939D01*
X76595936Y-53097458D01*
X76552907Y-52926921D01*
X76505964Y-52741179D01*
X76455825Y-52543086D01*
X76418134Y-52394357D01*
X76105326Y-51160643D01*
X75202100Y-51155937D01*
X74997746Y-51154928D01*
X74826756Y-51154274D01*
X74686210Y-51154064D01*
X74573187Y-51154387D01*
G36*
X71891479Y-52870607D02*
G01*
X71929140Y-53021295D01*
X71964682Y-53163309D01*
X71996991Y-53292204D01*
X72024948Y-53403537D01*
X72047440Y-53492863D01*
X72063348Y-53555738D01*
X72071435Y-53587250D01*
X72089399Y-53655286D01*
X72215699Y-53655286D01*
X72284062Y-53652729D01*
X72328200Y-53645689D01*
X72342000Y-53636338D01*
X72337645Y-53614459D01*
X72325348Y-53562112D01*
X72306261Y-53483956D01*
X72281535Y-53384651D01*
X72252323Y-53268855D01*
X72219776Y-53141229D01*
X72215000Y-53122609D01*
X72182060Y-52993540D01*
X72152297Y-52875502D01*
X72126864Y-52773186D01*
X72106915Y-52691281D01*
X72093604Y-52634477D01*
X72088085Y-52607465D01*
X72088000Y-52606343D01*
X72098448Y-52598630D01*
X72131792Y-52592808D01*
X72191028Y-52588705D01*
X72279154Y-52586153D01*
X72399168Y-52584980D01*
X72466102Y-52584857D01*
X72844204Y-52584857D01*
X72979171Y-53115536D01*
X73114139Y-53646214D01*
X73245141Y-53651545D01*
X73308714Y-53653459D01*
X73355127Y-53653572D01*
X73375402Y-53651884D01*
X73375652Y-53651545D01*
X73371275Y-53633296D01*
X73359125Y-53584204D01*
X73340286Y-53508616D01*
X73315844Y-53410874D01*
X73286885Y-53295325D01*
X73254493Y-53166313D01*
X73241641Y-53115181D01*
X73108121Y-52584148D01*
X73491017Y-52589038D01*
X73873912Y-52593929D01*
X74008926Y-53124607D01*
X74143939Y-53655286D01*
X74268041Y-53655286D01*
X74332810Y-53652807D01*
X74376802Y-53646148D01*
X74392143Y-53636973D01*
X74387875Y-53615884D01*
X74375699Y-53563475D01*
X74356558Y-53483619D01*
X74331396Y-53380186D01*
X74301157Y-53257047D01*
X74266782Y-53118073D01*
X74229216Y-52967134D01*
X74217522Y-52920330D01*
X74042901Y-52222000D01*
X71729486Y-52222000D01*
X71891479Y-52870607D01*
G37*
X71891479Y-52870607D02*
X71929140Y-53021295D01*
X71964682Y-53163309D01*
X71996991Y-53292204D01*
X72024948Y-53403537D01*
X72047440Y-53492863D01*
X72063348Y-53555738D01*
X72071435Y-53587250D01*
X72089399Y-53655286D01*
X72215699Y-53655286D01*
X72284062Y-53652729D01*
X72328200Y-53645689D01*
X72342000Y-53636338D01*
X72337645Y-53614459D01*
X72325348Y-53562112D01*
X72306261Y-53483956D01*
X72281535Y-53384651D01*
X72252323Y-53268855D01*
X72219776Y-53141229D01*
X72215000Y-53122609D01*
X72182060Y-52993540D01*
X72152297Y-52875502D01*
X72126864Y-52773186D01*
X72106915Y-52691281D01*
X72093604Y-52634477D01*
X72088085Y-52607465D01*
X72088000Y-52606343D01*
X72098448Y-52598630D01*
X72131792Y-52592808D01*
X72191028Y-52588705D01*
X72279154Y-52586153D01*
X72399168Y-52584980D01*
X72466102Y-52584857D01*
X72844204Y-52584857D01*
X72979171Y-53115536D01*
X73114139Y-53646214D01*
X73245141Y-53651545D01*
X73308714Y-53653459D01*
X73355127Y-53653572D01*
X73375402Y-53651884D01*
X73375652Y-53651545D01*
X73371275Y-53633296D01*
X73359125Y-53584204D01*
X73340286Y-53508616D01*
X73315844Y-53410874D01*
X73286885Y-53295325D01*
X73254493Y-53166313D01*
X73241641Y-53115181D01*
X73108121Y-52584148D01*
X73491017Y-52589038D01*
X73873912Y-52593929D01*
X74008926Y-53124607D01*
X74143939Y-53655286D01*
X74268041Y-53655286D01*
X74332810Y-53652807D01*
X74376802Y-53646148D01*
X74392143Y-53636973D01*
X74387875Y-53615884D01*
X74375699Y-53563475D01*
X74356558Y-53483619D01*
X74331396Y-53380186D01*
X74301157Y-53257047D01*
X74266782Y-53118073D01*
X74229216Y-52967134D01*
X74217522Y-52920330D01*
X74042901Y-52222000D01*
X71729486Y-52222000D01*
X71891479Y-52870607D01*
G36*
X69630831Y-52604345D02*
G01*
X69660887Y-52721531D01*
X69689048Y-52831021D01*
X69713668Y-52926437D01*
X69733101Y-53001402D01*
X69745700Y-53049538D01*
X69747934Y-53057916D01*
X69767113Y-53129143D01*
X71303924Y-53129143D01*
X71315823Y-53179036D01*
X71328221Y-53228259D01*
X71337156Y-53260679D01*
X71337715Y-53268405D01*
X71332269Y-53274770D01*
X71317668Y-53279903D01*
X71290759Y-53283936D01*
X71248392Y-53287001D01*
X71187414Y-53289229D01*
X71104674Y-53290752D01*
X70997022Y-53291702D01*
X70861304Y-53292209D01*
X70694371Y-53292405D01*
X70576147Y-53292429D01*
X69805707Y-53292429D01*
X69838217Y-53423964D01*
X69855922Y-53496136D01*
X69871550Y-53560775D01*
X69881819Y-53604307D01*
X69882066Y-53605393D01*
X69893406Y-53655286D01*
X70793247Y-53655286D01*
X70997250Y-53655227D01*
X71167894Y-53654980D01*
X71308107Y-53654442D01*
X71420816Y-53653507D01*
X71508948Y-53652073D01*
X71575432Y-53650034D01*
X71623193Y-53647286D01*
X71655160Y-53643725D01*
X71674260Y-53639247D01*
X71683419Y-53633748D01*
X71685566Y-53627123D01*
X71684971Y-53623536D01*
X71678894Y-53599334D01*
X71665049Y-53543938D01*
X71644438Y-53461364D01*
X71618061Y-53355628D01*
X71586921Y-53230746D01*
X71552019Y-53090733D01*
X71514358Y-52939606D01*
X71506207Y-52906893D01*
X71465524Y-52743607D01*
X71198899Y-52743607D01*
X71191374Y-52749906D01*
X71166812Y-52755007D01*
X71122326Y-52759014D01*
X71055028Y-52762029D01*
X70962029Y-52764158D01*
X70840442Y-52765503D01*
X70687379Y-52766169D01*
X70566872Y-52766286D01*
X69934744Y-52766286D01*
X69913729Y-52696145D01*
X69900275Y-52646439D01*
X69893087Y-52610532D01*
X69892714Y-52605431D01*
X69904025Y-52599502D01*
X69939347Y-52594682D01*
X70000763Y-52590905D01*
X70090354Y-52588101D01*
X70210203Y-52586205D01*
X70362394Y-52585147D01*
X70526862Y-52584857D01*
X71161009Y-52584857D01*
X71179903Y-52652893D01*
X71192252Y-52702793D01*
X71198655Y-52739266D01*
X71198899Y-52743607D01*
X71465524Y-52743607D01*
X71335561Y-52222000D01*
X69532909Y-52222000D01*
X69630831Y-52604345D01*
G37*
X69630831Y-52604345D02*
X69660887Y-52721531D01*
X69689048Y-52831021D01*
X69713668Y-52926437D01*
X69733101Y-53001402D01*
X69745700Y-53049538D01*
X69747934Y-53057916D01*
X69767113Y-53129143D01*
X71303924Y-53129143D01*
X71315823Y-53179036D01*
X71328221Y-53228259D01*
X71337156Y-53260679D01*
X71337715Y-53268405D01*
X71332269Y-53274770D01*
X71317668Y-53279903D01*
X71290759Y-53283936D01*
X71248392Y-53287001D01*
X71187414Y-53289229D01*
X71104674Y-53290752D01*
X70997022Y-53291702D01*
X70861304Y-53292209D01*
X70694371Y-53292405D01*
X70576147Y-53292429D01*
X69805707Y-53292429D01*
X69838217Y-53423964D01*
X69855922Y-53496136D01*
X69871550Y-53560775D01*
X69881819Y-53604307D01*
X69882066Y-53605393D01*
X69893406Y-53655286D01*
X70793247Y-53655286D01*
X70997250Y-53655227D01*
X71167894Y-53654980D01*
X71308107Y-53654442D01*
X71420816Y-53653507D01*
X71508948Y-53652073D01*
X71575432Y-53650034D01*
X71623193Y-53647286D01*
X71655160Y-53643725D01*
X71674260Y-53639247D01*
X71683419Y-53633748D01*
X71685566Y-53627123D01*
X71684971Y-53623536D01*
X71678894Y-53599334D01*
X71665049Y-53543938D01*
X71644438Y-53461364D01*
X71618061Y-53355628D01*
X71586921Y-53230746D01*
X71552019Y-53090733D01*
X71514358Y-52939606D01*
X71506207Y-52906893D01*
X71465524Y-52743607D01*
X71198899Y-52743607D01*
X71191374Y-52749906D01*
X71166812Y-52755007D01*
X71122326Y-52759014D01*
X71055028Y-52762029D01*
X70962029Y-52764158D01*
X70840442Y-52765503D01*
X70687379Y-52766169D01*
X70566872Y-52766286D01*
X69934744Y-52766286D01*
X69913729Y-52696145D01*
X69900275Y-52646439D01*
X69893087Y-52610532D01*
X69892714Y-52605431D01*
X69904025Y-52599502D01*
X69939347Y-52594682D01*
X70000763Y-52590905D01*
X70090354Y-52588101D01*
X70210203Y-52586205D01*
X70362394Y-52585147D01*
X70526862Y-52584857D01*
X71161009Y-52584857D01*
X71179903Y-52652893D01*
X71192252Y-52702793D01*
X71198655Y-52739266D01*
X71198899Y-52743607D01*
X71465524Y-52743607D01*
X71335561Y-52222000D01*
X69532909Y-52222000D01*
X69630831Y-52604345D01*
G36*
X67365185Y-52335393D02*
G01*
X67382158Y-52408380D01*
X67399040Y-52478223D01*
X67408813Y-52516821D01*
X67426684Y-52584857D01*
X68966030Y-52584857D01*
X68983584Y-52652893D01*
X68992914Y-52689275D01*
X69009724Y-52755053D01*
X69032544Y-52844463D01*
X69059902Y-52951736D01*
X69090327Y-53071105D01*
X69112045Y-53156357D01*
X69143111Y-53278104D01*
X69171596Y-53389311D01*
X69196157Y-53484777D01*
X69215455Y-53559299D01*
X69228147Y-53607676D01*
X69232484Y-53623536D01*
X69243622Y-53640608D01*
X69269513Y-53650351D01*
X69318102Y-53654599D01*
X69369910Y-53655286D01*
X69436703Y-53654286D01*
X69474274Y-53650045D01*
X69489658Y-53640695D01*
X69489894Y-53624373D01*
X69489685Y-53623536D01*
X69483609Y-53599334D01*
X69469764Y-53543938D01*
X69449152Y-53461364D01*
X69422775Y-53355628D01*
X69391635Y-53230746D01*
X69356733Y-53090733D01*
X69319072Y-52939606D01*
X69310921Y-52906893D01*
X69140276Y-52222000D01*
X67339429Y-52222000D01*
X67365185Y-52335393D01*
G37*
X67365185Y-52335393D02*
X67382158Y-52408380D01*
X67399040Y-52478223D01*
X67408813Y-52516821D01*
X67426684Y-52584857D01*
X68966030Y-52584857D01*
X68983584Y-52652893D01*
X68992914Y-52689275D01*
X69009724Y-52755053D01*
X69032544Y-52844463D01*
X69059902Y-52951736D01*
X69090327Y-53071105D01*
X69112045Y-53156357D01*
X69143111Y-53278104D01*
X69171596Y-53389311D01*
X69196157Y-53484777D01*
X69215455Y-53559299D01*
X69228147Y-53607676D01*
X69232484Y-53623536D01*
X69243622Y-53640608D01*
X69269513Y-53650351D01*
X69318102Y-53654599D01*
X69369910Y-53655286D01*
X69436703Y-53654286D01*
X69474274Y-53650045D01*
X69489658Y-53640695D01*
X69489894Y-53624373D01*
X69489685Y-53623536D01*
X69483609Y-53599334D01*
X69469764Y-53543938D01*
X69449152Y-53461364D01*
X69422775Y-53355628D01*
X69391635Y-53230746D01*
X69356733Y-53090733D01*
X69319072Y-52939606D01*
X69310921Y-52906893D01*
X69140276Y-52222000D01*
X67339429Y-52222000D01*
X67365185Y-52335393D01*
G36*
X62954249Y-52261996D02*
G01*
X62962245Y-52290683D01*
X62977648Y-52349010D01*
X62999024Y-52431428D01*
X63024938Y-52532385D01*
X63053954Y-52646332D01*
X63070381Y-52711202D01*
X63173710Y-53120071D01*
X63945937Y-53124801D01*
X64718163Y-53129530D01*
X64730015Y-53179229D01*
X64742405Y-53228415D01*
X64751299Y-53260679D01*
X64751856Y-53268391D01*
X64746418Y-53274747D01*
X64731840Y-53279875D01*
X64704977Y-53283908D01*
X64662684Y-53286975D01*
X64601814Y-53289207D01*
X64519222Y-53290735D01*
X64411764Y-53291690D01*
X64276293Y-53292203D01*
X64109664Y-53292404D01*
X63987214Y-53292429D01*
X63799328Y-53292500D01*
X63644581Y-53292801D01*
X63519827Y-53293462D01*
X63421919Y-53294615D01*
X63347712Y-53296389D01*
X63294060Y-53298916D01*
X63257815Y-53302326D01*
X63235832Y-53306750D01*
X63224964Y-53312319D01*
X63222065Y-53319163D01*
X63222912Y-53324179D01*
X63233144Y-53361945D01*
X63246876Y-53415475D01*
X63250127Y-53428500D01*
X63267150Y-53496169D01*
X63285551Y-53568002D01*
X63288192Y-53578179D01*
X63308256Y-53655286D01*
X65103691Y-53655286D01*
X65090775Y-53605393D01*
X65083568Y-53576838D01*
X65068684Y-53517304D01*
X65047177Y-53431032D01*
X65020104Y-53322261D01*
X64988519Y-53195232D01*
X64953478Y-53054185D01*
X64916037Y-52903360D01*
X64913537Y-52893286D01*
X64876396Y-52743607D01*
X64613042Y-52743607D01*
X64605521Y-52749897D01*
X64580974Y-52754992D01*
X64536518Y-52758996D01*
X64469269Y-52762013D01*
X64376342Y-52764144D01*
X64254854Y-52765493D01*
X64101921Y-52766164D01*
X63978996Y-52766286D01*
X63344849Y-52766286D01*
X63325954Y-52698250D01*
X63313605Y-52648350D01*
X63307203Y-52611877D01*
X63306958Y-52607536D01*
X63314479Y-52601246D01*
X63339026Y-52596151D01*
X63383482Y-52592147D01*
X63450731Y-52589130D01*
X63543658Y-52586999D01*
X63665146Y-52585650D01*
X63818079Y-52584979D01*
X63941004Y-52584857D01*
X64575152Y-52584857D01*
X64594046Y-52652893D01*
X64606395Y-52702793D01*
X64612797Y-52739266D01*
X64613042Y-52743607D01*
X64876396Y-52743607D01*
X64749214Y-52231072D01*
X63845331Y-52226366D01*
X62941447Y-52221660D01*
X62954249Y-52261996D01*
G37*
X62954249Y-52261996D02*
X62962245Y-52290683D01*
X62977648Y-52349010D01*
X62999024Y-52431428D01*
X63024938Y-52532385D01*
X63053954Y-52646332D01*
X63070381Y-52711202D01*
X63173710Y-53120071D01*
X63945937Y-53124801D01*
X64718163Y-53129530D01*
X64730015Y-53179229D01*
X64742405Y-53228415D01*
X64751299Y-53260679D01*
X64751856Y-53268391D01*
X64746418Y-53274747D01*
X64731840Y-53279875D01*
X64704977Y-53283908D01*
X64662684Y-53286975D01*
X64601814Y-53289207D01*
X64519222Y-53290735D01*
X64411764Y-53291690D01*
X64276293Y-53292203D01*
X64109664Y-53292404D01*
X63987214Y-53292429D01*
X63799328Y-53292500D01*
X63644581Y-53292801D01*
X63519827Y-53293462D01*
X63421919Y-53294615D01*
X63347712Y-53296389D01*
X63294060Y-53298916D01*
X63257815Y-53302326D01*
X63235832Y-53306750D01*
X63224964Y-53312319D01*
X63222065Y-53319163D01*
X63222912Y-53324179D01*
X63233144Y-53361945D01*
X63246876Y-53415475D01*
X63250127Y-53428500D01*
X63267150Y-53496169D01*
X63285551Y-53568002D01*
X63288192Y-53578179D01*
X63308256Y-53655286D01*
X65103691Y-53655286D01*
X65090775Y-53605393D01*
X65083568Y-53576838D01*
X65068684Y-53517304D01*
X65047177Y-53431032D01*
X65020104Y-53322261D01*
X64988519Y-53195232D01*
X64953478Y-53054185D01*
X64916037Y-52903360D01*
X64913537Y-52893286D01*
X64876396Y-52743607D01*
X64613042Y-52743607D01*
X64605521Y-52749897D01*
X64580974Y-52754992D01*
X64536518Y-52758996D01*
X64469269Y-52762013D01*
X64376342Y-52764144D01*
X64254854Y-52765493D01*
X64101921Y-52766164D01*
X63978996Y-52766286D01*
X63344849Y-52766286D01*
X63325954Y-52698250D01*
X63313605Y-52648350D01*
X63307203Y-52611877D01*
X63306958Y-52607536D01*
X63314479Y-52601246D01*
X63339026Y-52596151D01*
X63383482Y-52592147D01*
X63450731Y-52589130D01*
X63543658Y-52586999D01*
X63665146Y-52585650D01*
X63818079Y-52584979D01*
X63941004Y-52584857D01*
X64575152Y-52584857D01*
X64594046Y-52652893D01*
X64606395Y-52702793D01*
X64612797Y-52739266D01*
X64613042Y-52743607D01*
X64876396Y-52743607D01*
X64749214Y-52231072D01*
X63845331Y-52226366D01*
X62941447Y-52221660D01*
X62954249Y-52261996D01*
G36*
X58562809Y-52262652D02*
G01*
X58571779Y-52300002D01*
X58585993Y-52360393D01*
X58602554Y-52431508D01*
X58604454Y-52439714D01*
X58635943Y-52575786D01*
X59408634Y-52580514D01*
X60181326Y-52585243D01*
X60362078Y-53283357D01*
X58824978Y-53292819D01*
X58835043Y-53333445D01*
X58843965Y-53370601D01*
X58858140Y-53430836D01*
X58874681Y-53501868D01*
X58876598Y-53510143D01*
X58908087Y-53646214D01*
X59810646Y-53650920D01*
X60713205Y-53655625D01*
X60700515Y-53605563D01*
X60693326Y-53576980D01*
X60678391Y-53517435D01*
X60656772Y-53431165D01*
X60629530Y-53322410D01*
X60597728Y-53195407D01*
X60562427Y-53054395D01*
X60524689Y-52903612D01*
X60522104Y-52893286D01*
X60356383Y-52231072D01*
X59454518Y-52226366D01*
X58552652Y-52221661D01*
X58562809Y-52262652D01*
G37*
X58562809Y-52262652D02*
X58571779Y-52300002D01*
X58585993Y-52360393D01*
X58602554Y-52431508D01*
X58604454Y-52439714D01*
X58635943Y-52575786D01*
X59408634Y-52580514D01*
X60181326Y-52585243D01*
X60362078Y-53283357D01*
X58824978Y-53292819D01*
X58835043Y-53333445D01*
X58843965Y-53370601D01*
X58858140Y-53430836D01*
X58874681Y-53501868D01*
X58876598Y-53510143D01*
X58908087Y-53646214D01*
X59810646Y-53650920D01*
X60713205Y-53655625D01*
X60700515Y-53605563D01*
X60693326Y-53576980D01*
X60678391Y-53517435D01*
X60656772Y-53431165D01*
X60629530Y-53322410D01*
X60597728Y-53195407D01*
X60562427Y-53054395D01*
X60524689Y-52903612D01*
X60522104Y-52893286D01*
X60356383Y-52231072D01*
X59454518Y-52226366D01*
X58552652Y-52221661D01*
X58562809Y-52262652D01*
D10*
X90000000Y-42500000D02*
X10000000Y-42500000D01*
X90000000Y-9000000D02*
X10000000Y-9000000D01*
D13*
X52118249Y-57544513D02*
G75*
G02X47850000Y-57500000I-2118249J1544513D01*
G01*
X47834474Y-54471766D02*
G75*
G02X52150000Y-54450000I2165526J-1528234D01*
G01*
X47850000Y-54450000D02*
X47850000Y-57500000D01*
X52150000Y-54450000D02*
X52150000Y-57500000D01*
D10*
X47484523Y-55453571D02*
X47079761Y-55170238D01*
X47484523Y-54967857D02*
X46634523Y-54967857D01*
X46634523Y-55291666D01*
X46675000Y-55372619D01*
X46715476Y-55413095D01*
X46796428Y-55453571D01*
X46917857Y-55453571D01*
X46998809Y-55413095D01*
X47039285Y-55372619D01*
X47079761Y-55291666D01*
X47079761Y-54967857D01*
X46715476Y-55777380D02*
X46675000Y-55817857D01*
X46634523Y-55898809D01*
X46634523Y-56101190D01*
X46675000Y-56182142D01*
X46715476Y-56222619D01*
X46796428Y-56263095D01*
X46877380Y-56263095D01*
X46998809Y-56222619D01*
X47484523Y-55736904D01*
X47484523Y-56263095D01*
X46917857Y-56991666D02*
X47484523Y-56991666D01*
X46594047Y-56789285D02*
X47201190Y-56586904D01*
X47201190Y-57113095D01*
M02*
