G04 #@! TF.GenerationSoftware,KiCad,Pcbnew,5.1.5-52549c5~84~ubuntu16.04.1*
G04 #@! TF.CreationDate,2020-02-20T20:55:12+01:00*
G04 #@! TF.ProjectId,EmergencyWake,456d6572-6765-46e6-9379-57616b652e6b,rev?*
G04 #@! TF.SameCoordinates,PX5f5e100PY5f5e100*
G04 #@! TF.FileFunction,Soldermask,Bot*
G04 #@! TF.FilePolarity,Negative*
%FSLAX46Y46*%
G04 Gerber Fmt 4.6, Leading zero omitted, Abs format (unit mm)*
G04 Created by KiCad (PCBNEW 5.1.5-52549c5~84~ubuntu16.04.1) date 2020-02-20 20:55:12*
%MOMM*%
%LPD*%
G04 APERTURE LIST*
%ADD10C,0.050000*%
%ADD11C,0.150000*%
G04 APERTURE END LIST*
D10*
X55000000Y-15000000D02*
G75*
G03X55000000Y-15000000I-5000000J0D01*
G01*
X3000000Y-67000000D02*
G75*
G02X0Y-64000000I0J3000000D01*
G01*
X100000000Y-64000000D02*
G75*
G02X97000000Y-67000000I-3000000J0D01*
G01*
X97000000Y0D02*
G75*
G02X100000000Y-3000000I0J-3000000D01*
G01*
X0Y-3000000D02*
G75*
G02X3000000Y0I3000000J0D01*
G01*
X0Y-64000000D02*
X0Y-3000000D01*
X97000000Y-67000000D02*
X3000000Y-67000000D01*
X100000000Y-3000000D02*
X100000000Y-64000000D01*
X3000000Y0D02*
X97000000Y0D01*
D11*
G36*
X40123966Y-65966332D02*
G01*
X40123969Y-65966333D01*
X40123968Y-65966333D01*
X40201313Y-65998370D01*
X40270921Y-66044881D01*
X40330119Y-66104079D01*
X40376630Y-66173687D01*
X40403171Y-66237763D01*
X40408668Y-66251034D01*
X40425000Y-66333140D01*
X40425000Y-66416860D01*
X40408668Y-66498966D01*
X40408667Y-66498968D01*
X40376630Y-66576313D01*
X40330119Y-66645921D01*
X40270921Y-66705119D01*
X40201313Y-66751630D01*
X40137237Y-66778171D01*
X40123966Y-66783668D01*
X40041860Y-66800000D01*
X39958140Y-66800000D01*
X39876034Y-66783668D01*
X39862763Y-66778171D01*
X39798687Y-66751630D01*
X39729079Y-66705119D01*
X39669881Y-66645921D01*
X39623370Y-66576313D01*
X39591333Y-66498968D01*
X39591332Y-66498966D01*
X39575000Y-66416860D01*
X39575000Y-66333140D01*
X39591332Y-66251034D01*
X39596829Y-66237763D01*
X39623370Y-66173687D01*
X39669881Y-66104079D01*
X39729079Y-66044881D01*
X39798687Y-65998370D01*
X39876032Y-65966333D01*
X39876031Y-65966333D01*
X39876034Y-65966332D01*
X39958140Y-65950000D01*
X40041860Y-65950000D01*
X40123966Y-65966332D01*
G37*
G36*
X50123966Y-65966332D02*
G01*
X50123969Y-65966333D01*
X50123968Y-65966333D01*
X50201313Y-65998370D01*
X50270921Y-66044881D01*
X50330119Y-66104079D01*
X50376630Y-66173687D01*
X50403171Y-66237763D01*
X50408668Y-66251034D01*
X50425000Y-66333140D01*
X50425000Y-66416860D01*
X50408668Y-66498966D01*
X50408667Y-66498968D01*
X50376630Y-66576313D01*
X50330119Y-66645921D01*
X50270921Y-66705119D01*
X50201313Y-66751630D01*
X50137237Y-66778171D01*
X50123966Y-66783668D01*
X50041860Y-66800000D01*
X49958140Y-66800000D01*
X49876034Y-66783668D01*
X49862763Y-66778171D01*
X49798687Y-66751630D01*
X49729079Y-66705119D01*
X49669881Y-66645921D01*
X49623370Y-66576313D01*
X49591333Y-66498968D01*
X49591332Y-66498966D01*
X49575000Y-66416860D01*
X49575000Y-66333140D01*
X49591332Y-66251034D01*
X49596829Y-66237763D01*
X49623370Y-66173687D01*
X49669881Y-66104079D01*
X49729079Y-66044881D01*
X49798687Y-65998370D01*
X49876032Y-65966333D01*
X49876031Y-65966333D01*
X49876034Y-65966332D01*
X49958140Y-65950000D01*
X50041860Y-65950000D01*
X50123966Y-65966332D01*
G37*
G36*
X60123966Y-65966332D02*
G01*
X60123969Y-65966333D01*
X60123968Y-65966333D01*
X60201313Y-65998370D01*
X60270921Y-66044881D01*
X60330119Y-66104079D01*
X60376630Y-66173687D01*
X60403171Y-66237763D01*
X60408668Y-66251034D01*
X60425000Y-66333140D01*
X60425000Y-66416860D01*
X60408668Y-66498966D01*
X60408667Y-66498968D01*
X60376630Y-66576313D01*
X60330119Y-66645921D01*
X60270921Y-66705119D01*
X60201313Y-66751630D01*
X60137237Y-66778171D01*
X60123966Y-66783668D01*
X60041860Y-66800000D01*
X59958140Y-66800000D01*
X59876034Y-66783668D01*
X59862763Y-66778171D01*
X59798687Y-66751630D01*
X59729079Y-66705119D01*
X59669881Y-66645921D01*
X59623370Y-66576313D01*
X59591333Y-66498968D01*
X59591332Y-66498966D01*
X59575000Y-66416860D01*
X59575000Y-66333140D01*
X59591332Y-66251034D01*
X59596829Y-66237763D01*
X59623370Y-66173687D01*
X59669881Y-66104079D01*
X59729079Y-66044881D01*
X59798687Y-65998370D01*
X59876032Y-65966333D01*
X59876031Y-65966333D01*
X59876034Y-65966332D01*
X59958140Y-65950000D01*
X60041860Y-65950000D01*
X60123966Y-65966332D01*
G37*
G36*
X97579589Y-61515330D02*
G01*
X97743807Y-61547995D01*
X98207878Y-61740220D01*
X98418120Y-61880699D01*
X98625529Y-62019285D01*
X98980715Y-62374471D01*
X99100776Y-62554155D01*
X99259780Y-62792122D01*
X99452005Y-63256193D01*
X99460039Y-63296583D01*
X99550000Y-63748845D01*
X99550000Y-64251155D01*
X99452005Y-64743806D01*
X99259781Y-65207876D01*
X98980715Y-65625529D01*
X98625529Y-65980715D01*
X98440901Y-66104079D01*
X98207878Y-66259780D01*
X97743807Y-66452005D01*
X97579589Y-66484670D01*
X97251155Y-66550000D01*
X96748845Y-66550000D01*
X96420411Y-66484670D01*
X96256193Y-66452005D01*
X95792122Y-66259780D01*
X95559099Y-66104079D01*
X95374471Y-65980715D01*
X95019285Y-65625529D01*
X94740219Y-65207876D01*
X94547995Y-64743806D01*
X94450000Y-64251155D01*
X94450000Y-63748845D01*
X94539961Y-63296583D01*
X94547995Y-63256193D01*
X94740220Y-62792122D01*
X94899224Y-62554155D01*
X95019285Y-62374471D01*
X95374471Y-62019285D01*
X95581880Y-61880699D01*
X95792122Y-61740220D01*
X96256193Y-61547995D01*
X96420411Y-61515330D01*
X96748845Y-61450000D01*
X97251155Y-61450000D01*
X97579589Y-61515330D01*
G37*
G36*
X3579589Y-61515330D02*
G01*
X3743807Y-61547995D01*
X4207878Y-61740220D01*
X4418120Y-61880699D01*
X4625529Y-62019285D01*
X4980715Y-62374471D01*
X5100776Y-62554155D01*
X5259780Y-62792122D01*
X5452005Y-63256193D01*
X5460039Y-63296583D01*
X5550000Y-63748845D01*
X5550000Y-64251155D01*
X5452005Y-64743806D01*
X5259781Y-65207876D01*
X4980715Y-65625529D01*
X4625529Y-65980715D01*
X4440901Y-66104079D01*
X4207878Y-66259780D01*
X3743807Y-66452005D01*
X3579589Y-66484670D01*
X3251155Y-66550000D01*
X2748845Y-66550000D01*
X2420411Y-66484670D01*
X2256193Y-66452005D01*
X1792122Y-66259780D01*
X1559099Y-66104079D01*
X1374471Y-65980715D01*
X1019285Y-65625529D01*
X740219Y-65207876D01*
X547995Y-64743806D01*
X450000Y-64251155D01*
X450000Y-63748845D01*
X539961Y-63296583D01*
X547995Y-63256193D01*
X740220Y-62792122D01*
X899224Y-62554155D01*
X1019285Y-62374471D01*
X1374471Y-62019285D01*
X1581880Y-61880699D01*
X1792122Y-61740220D01*
X2256193Y-61547995D01*
X2420411Y-61515330D01*
X2748845Y-61450000D01*
X3251155Y-61450000D01*
X3579589Y-61515330D01*
G37*
G36*
X13428687Y-62355027D02*
G01*
X13606274Y-62390350D01*
X13797362Y-62469502D01*
X13969336Y-62584411D01*
X14115589Y-62730664D01*
X14230498Y-62902638D01*
X14309650Y-63093726D01*
X14350000Y-63296584D01*
X14350000Y-63503416D01*
X14309650Y-63706274D01*
X14230498Y-63897362D01*
X14115589Y-64069336D01*
X13969336Y-64215589D01*
X13797362Y-64330498D01*
X13606274Y-64409650D01*
X13428687Y-64444973D01*
X13403417Y-64450000D01*
X13196583Y-64450000D01*
X13171313Y-64444973D01*
X12993726Y-64409650D01*
X12802638Y-64330498D01*
X12630664Y-64215589D01*
X12484411Y-64069336D01*
X12369502Y-63897362D01*
X12290350Y-63706274D01*
X12250000Y-63503416D01*
X12250000Y-63296584D01*
X12290350Y-63093726D01*
X12369502Y-62902638D01*
X12484411Y-62730664D01*
X12630664Y-62584411D01*
X12802638Y-62469502D01*
X12993726Y-62390350D01*
X13171313Y-62355027D01*
X13196583Y-62350000D01*
X13403417Y-62350000D01*
X13428687Y-62355027D01*
G37*
G36*
X40123966Y-63216332D02*
G01*
X40123969Y-63216333D01*
X40123968Y-63216333D01*
X40201313Y-63248370D01*
X40270921Y-63294881D01*
X40330119Y-63354079D01*
X40376630Y-63423687D01*
X40403171Y-63487763D01*
X40408668Y-63501034D01*
X40425000Y-63583140D01*
X40425000Y-63666860D01*
X40408668Y-63748966D01*
X40408667Y-63748968D01*
X40376630Y-63826313D01*
X40330119Y-63895921D01*
X40270921Y-63955119D01*
X40201313Y-64001630D01*
X40137237Y-64028171D01*
X40123966Y-64033668D01*
X40041860Y-64050000D01*
X39958140Y-64050000D01*
X39876034Y-64033668D01*
X39862763Y-64028171D01*
X39798687Y-64001630D01*
X39729079Y-63955119D01*
X39669881Y-63895921D01*
X39623370Y-63826313D01*
X39591333Y-63748968D01*
X39591332Y-63748966D01*
X39575000Y-63666860D01*
X39575000Y-63583140D01*
X39591332Y-63501034D01*
X39596829Y-63487763D01*
X39623370Y-63423687D01*
X39669881Y-63354079D01*
X39729079Y-63294881D01*
X39798687Y-63248370D01*
X39876032Y-63216333D01*
X39876031Y-63216333D01*
X39876034Y-63216332D01*
X39958140Y-63200000D01*
X40041860Y-63200000D01*
X40123966Y-63216332D01*
G37*
G36*
X60123966Y-63216332D02*
G01*
X60123969Y-63216333D01*
X60123968Y-63216333D01*
X60201313Y-63248370D01*
X60270921Y-63294881D01*
X60330119Y-63354079D01*
X60376630Y-63423687D01*
X60403171Y-63487763D01*
X60408668Y-63501034D01*
X60425000Y-63583140D01*
X60425000Y-63666860D01*
X60408668Y-63748966D01*
X60408667Y-63748968D01*
X60376630Y-63826313D01*
X60330119Y-63895921D01*
X60270921Y-63955119D01*
X60201313Y-64001630D01*
X60137237Y-64028171D01*
X60123966Y-64033668D01*
X60041860Y-64050000D01*
X59958140Y-64050000D01*
X59876034Y-64033668D01*
X59862763Y-64028171D01*
X59798687Y-64001630D01*
X59729079Y-63955119D01*
X59669881Y-63895921D01*
X59623370Y-63826313D01*
X59591333Y-63748968D01*
X59591332Y-63748966D01*
X59575000Y-63666860D01*
X59575000Y-63583140D01*
X59591332Y-63501034D01*
X59596829Y-63487763D01*
X59623370Y-63423687D01*
X59669881Y-63354079D01*
X59729079Y-63294881D01*
X59798687Y-63248370D01*
X59876032Y-63216333D01*
X59876031Y-63216333D01*
X59876034Y-63216332D01*
X59958140Y-63200000D01*
X60041860Y-63200000D01*
X60123966Y-63216332D01*
G37*
G36*
X50123966Y-63216332D02*
G01*
X50123969Y-63216333D01*
X50123968Y-63216333D01*
X50201313Y-63248370D01*
X50270921Y-63294881D01*
X50330119Y-63354079D01*
X50376630Y-63423687D01*
X50403171Y-63487763D01*
X50408668Y-63501034D01*
X50425000Y-63583140D01*
X50425000Y-63666860D01*
X50408668Y-63748966D01*
X50408667Y-63748968D01*
X50376630Y-63826313D01*
X50330119Y-63895921D01*
X50270921Y-63955119D01*
X50201313Y-64001630D01*
X50137237Y-64028171D01*
X50123966Y-64033668D01*
X50041860Y-64050000D01*
X49958140Y-64050000D01*
X49876034Y-64033668D01*
X49862763Y-64028171D01*
X49798687Y-64001630D01*
X49729079Y-63955119D01*
X49669881Y-63895921D01*
X49623370Y-63826313D01*
X49591333Y-63748968D01*
X49591332Y-63748966D01*
X49575000Y-63666860D01*
X49575000Y-63583140D01*
X49591332Y-63501034D01*
X49596829Y-63487763D01*
X49623370Y-63423687D01*
X49669881Y-63354079D01*
X49729079Y-63294881D01*
X49798687Y-63248370D01*
X49876032Y-63216333D01*
X49876031Y-63216333D01*
X49876034Y-63216332D01*
X49958140Y-63200000D01*
X50041860Y-63200000D01*
X50123966Y-63216332D01*
G37*
G36*
X19695843Y-62219214D02*
G01*
X19786837Y-62256905D01*
X19786839Y-62256906D01*
X19824772Y-62282252D01*
X19868730Y-62311624D01*
X19938376Y-62381270D01*
X19993095Y-62463163D01*
X20030786Y-62554157D01*
X20050000Y-62650753D01*
X20050000Y-62749247D01*
X20030786Y-62845843D01*
X20011556Y-62892269D01*
X19993094Y-62936839D01*
X19938375Y-63018731D01*
X19868731Y-63088375D01*
X19786839Y-63143094D01*
X19786838Y-63143095D01*
X19786837Y-63143095D01*
X19695843Y-63180786D01*
X19599247Y-63200000D01*
X19500753Y-63200000D01*
X19404157Y-63180786D01*
X19313163Y-63143095D01*
X19313162Y-63143095D01*
X19313161Y-63143094D01*
X19231269Y-63088375D01*
X19161625Y-63018731D01*
X19106906Y-62936839D01*
X19088444Y-62892269D01*
X19069214Y-62845843D01*
X19050000Y-62749247D01*
X19050000Y-62650753D01*
X19069214Y-62554157D01*
X19106905Y-62463163D01*
X19161624Y-62381270D01*
X19231270Y-62311624D01*
X19275228Y-62282252D01*
X19313161Y-62256906D01*
X19313163Y-62256905D01*
X19404157Y-62219214D01*
X19500753Y-62200000D01*
X19599247Y-62200000D01*
X19695843Y-62219214D01*
G37*
G36*
X28048017Y-62207234D02*
G01*
X28115663Y-62227755D01*
X28142267Y-62235825D01*
X28142269Y-62235826D01*
X28229127Y-62282252D01*
X28305264Y-62344736D01*
X28367748Y-62420873D01*
X28414174Y-62507731D01*
X28442766Y-62601983D01*
X28452419Y-62700000D01*
X28442766Y-62798017D01*
X28414174Y-62892269D01*
X28367748Y-62979127D01*
X28305264Y-63055264D01*
X28229127Y-63117748D01*
X28142269Y-63164174D01*
X28142267Y-63164175D01*
X28115663Y-63172245D01*
X28048017Y-63192766D01*
X27974564Y-63200000D01*
X27125436Y-63200000D01*
X27051983Y-63192766D01*
X26984337Y-63172245D01*
X26957733Y-63164175D01*
X26957731Y-63164174D01*
X26870873Y-63117748D01*
X26794736Y-63055264D01*
X26732252Y-62979127D01*
X26685826Y-62892269D01*
X26657234Y-62798017D01*
X26647581Y-62700000D01*
X26657234Y-62601983D01*
X26685826Y-62507731D01*
X26732252Y-62420873D01*
X26794736Y-62344736D01*
X26870873Y-62282252D01*
X26957731Y-62235826D01*
X26957733Y-62235825D01*
X26984337Y-62227755D01*
X27051983Y-62207234D01*
X27125436Y-62200000D01*
X27974564Y-62200000D01*
X28048017Y-62207234D01*
G37*
G36*
X92200885Y-58725305D02*
G01*
X92227819Y-58727958D01*
X92262377Y-58738441D01*
X92331496Y-58759408D01*
X92427039Y-58810477D01*
X92427040Y-58810478D01*
X92427042Y-58810479D01*
X92475198Y-58850000D01*
X92510790Y-58879210D01*
X92579523Y-58962961D01*
X92630592Y-59058504D01*
X92662042Y-59162182D01*
X92672661Y-59270000D01*
X92662042Y-59377818D01*
X92630592Y-59481496D01*
X92579523Y-59577039D01*
X92579521Y-59577042D01*
X92510790Y-59660790D01*
X92427042Y-59729521D01*
X92427040Y-59729522D01*
X92427039Y-59729523D01*
X92331496Y-59780592D01*
X92262377Y-59801559D01*
X92227819Y-59812042D01*
X92200885Y-59814695D01*
X92147020Y-59820000D01*
X91492980Y-59820000D01*
X91439115Y-59814695D01*
X91412181Y-59812042D01*
X91377623Y-59801559D01*
X91308504Y-59780592D01*
X91212961Y-59729523D01*
X91212960Y-59729522D01*
X91212958Y-59729521D01*
X91129210Y-59660790D01*
X91060479Y-59577042D01*
X91060477Y-59577039D01*
X91009408Y-59481496D01*
X90977958Y-59377818D01*
X90967339Y-59270000D01*
X90977958Y-59162182D01*
X91009408Y-59058504D01*
X91060477Y-58962961D01*
X91129210Y-58879210D01*
X91164802Y-58850000D01*
X91212958Y-58810479D01*
X91212960Y-58810478D01*
X91212961Y-58810477D01*
X91308504Y-58759408D01*
X91377623Y-58738441D01*
X91412181Y-58727958D01*
X91439115Y-58725305D01*
X91492980Y-58720000D01*
X92147020Y-58720000D01*
X92200885Y-58725305D01*
G37*
G36*
X96980885Y-58725305D02*
G01*
X97007819Y-58727958D01*
X97042377Y-58738441D01*
X97111496Y-58759408D01*
X97207039Y-58810477D01*
X97207040Y-58810478D01*
X97207042Y-58810479D01*
X97255198Y-58850000D01*
X97290790Y-58879210D01*
X97359523Y-58962961D01*
X97410592Y-59058504D01*
X97442042Y-59162182D01*
X97452661Y-59270000D01*
X97442042Y-59377818D01*
X97410592Y-59481496D01*
X97359523Y-59577039D01*
X97359521Y-59577042D01*
X97290790Y-59660790D01*
X97207042Y-59729521D01*
X97207040Y-59729522D01*
X97207039Y-59729523D01*
X97111496Y-59780592D01*
X97042377Y-59801559D01*
X97007819Y-59812042D01*
X96980885Y-59814695D01*
X96927020Y-59820000D01*
X96272980Y-59820000D01*
X96219115Y-59814695D01*
X96192181Y-59812042D01*
X96157623Y-59801559D01*
X96088504Y-59780592D01*
X95992961Y-59729523D01*
X95992960Y-59729522D01*
X95992958Y-59729521D01*
X95909210Y-59660790D01*
X95840479Y-59577042D01*
X95840477Y-59577039D01*
X95789408Y-59481496D01*
X95757958Y-59377818D01*
X95747339Y-59270000D01*
X95757958Y-59162182D01*
X95789408Y-59058504D01*
X95840477Y-58962961D01*
X95909210Y-58879210D01*
X95944802Y-58850000D01*
X95992958Y-58810479D01*
X95992960Y-58810478D01*
X95992961Y-58810477D01*
X96088504Y-58759408D01*
X96157623Y-58738441D01*
X96192181Y-58727958D01*
X96219115Y-58725305D01*
X96272980Y-58720000D01*
X96927020Y-58720000D01*
X96980885Y-58725305D01*
G37*
G36*
X56050000Y-58850000D02*
G01*
X54350000Y-58850000D01*
X54350000Y-57150000D01*
X56050000Y-57150000D01*
X56050000Y-58850000D01*
G37*
G36*
X77847934Y-56982664D02*
G01*
X78002625Y-57046739D01*
X78050305Y-57078598D01*
X78141844Y-57139762D01*
X78260238Y-57258156D01*
X78282371Y-57291281D01*
X78353261Y-57397375D01*
X78417336Y-57552066D01*
X78450000Y-57716281D01*
X78450000Y-57883719D01*
X78417336Y-58047934D01*
X78353261Y-58202625D01*
X78353260Y-58202626D01*
X78260238Y-58341844D01*
X78141844Y-58460238D01*
X78128346Y-58469257D01*
X78002625Y-58553261D01*
X77847934Y-58617336D01*
X77683719Y-58650000D01*
X77516281Y-58650000D01*
X77352066Y-58617336D01*
X77197375Y-58553261D01*
X77071654Y-58469257D01*
X77058156Y-58460238D01*
X76939762Y-58341844D01*
X76846740Y-58202626D01*
X76846739Y-58202625D01*
X76782664Y-58047934D01*
X76750000Y-57883719D01*
X76750000Y-57716281D01*
X76782664Y-57552066D01*
X76846739Y-57397375D01*
X76917629Y-57291281D01*
X76939762Y-57258156D01*
X77058156Y-57139762D01*
X77149695Y-57078598D01*
X77197375Y-57046739D01*
X77352066Y-56982664D01*
X77516281Y-56950000D01*
X77683719Y-56950000D01*
X77847934Y-56982664D01*
G37*
G36*
X50181832Y-56920495D02*
G01*
X50233351Y-56930743D01*
X50279841Y-56950000D01*
X50378941Y-56991048D01*
X50509969Y-57078598D01*
X50621402Y-57190031D01*
X50708952Y-57321059D01*
X50737609Y-57390245D01*
X50757975Y-57439411D01*
X50769257Y-57466650D01*
X50800000Y-57621205D01*
X50800000Y-57778795D01*
X50788435Y-57836934D01*
X50769257Y-57933351D01*
X50750917Y-57977627D01*
X50708952Y-58078941D01*
X50621402Y-58209969D01*
X50509969Y-58321402D01*
X50378941Y-58408952D01*
X50293656Y-58444278D01*
X50233351Y-58469257D01*
X50181832Y-58479505D01*
X50078795Y-58500000D01*
X49921205Y-58500000D01*
X49818168Y-58479505D01*
X49766649Y-58469257D01*
X49706344Y-58444278D01*
X49621059Y-58408952D01*
X49490031Y-58321402D01*
X49378598Y-58209969D01*
X49291048Y-58078941D01*
X49249083Y-57977627D01*
X49230743Y-57933351D01*
X49211565Y-57836934D01*
X49200000Y-57778795D01*
X49200000Y-57621205D01*
X49230743Y-57466650D01*
X49242026Y-57439411D01*
X49262391Y-57390245D01*
X49291048Y-57321059D01*
X49378598Y-57190031D01*
X49490031Y-57078598D01*
X49621059Y-56991048D01*
X49720159Y-56950000D01*
X49766649Y-56930743D01*
X49818168Y-56920495D01*
X49921205Y-56900000D01*
X50078795Y-56900000D01*
X50181832Y-56920495D01*
G37*
G36*
X85854181Y-56826900D02*
G01*
X85981573Y-56879667D01*
X85998956Y-56891282D01*
X86096224Y-56956274D01*
X86193726Y-57053776D01*
X86230437Y-57108718D01*
X86270333Y-57168427D01*
X86323100Y-57295819D01*
X86350000Y-57431055D01*
X86350000Y-57568945D01*
X86323100Y-57704181D01*
X86270333Y-57831573D01*
X86270332Y-57831574D01*
X86193726Y-57946224D01*
X86096224Y-58043726D01*
X86043519Y-58078942D01*
X85981573Y-58120333D01*
X85854181Y-58173100D01*
X85718945Y-58200000D01*
X85581055Y-58200000D01*
X85445819Y-58173100D01*
X85318427Y-58120333D01*
X85256481Y-58078942D01*
X85203776Y-58043726D01*
X85106274Y-57946224D01*
X85029668Y-57831574D01*
X85029667Y-57831573D01*
X84976900Y-57704181D01*
X84950000Y-57568945D01*
X84950000Y-57431055D01*
X84976900Y-57295819D01*
X85029667Y-57168427D01*
X85069563Y-57108718D01*
X85106274Y-57053776D01*
X85203776Y-56956274D01*
X85301044Y-56891282D01*
X85318427Y-56879667D01*
X85445819Y-56826900D01*
X85581055Y-56800000D01*
X85718945Y-56800000D01*
X85854181Y-56826900D01*
G37*
G36*
X82554181Y-56826900D02*
G01*
X82681573Y-56879667D01*
X82698956Y-56891282D01*
X82796224Y-56956274D01*
X82893726Y-57053776D01*
X82930437Y-57108718D01*
X82970333Y-57168427D01*
X83023100Y-57295819D01*
X83050000Y-57431055D01*
X83050000Y-57568945D01*
X83023100Y-57704181D01*
X82970333Y-57831573D01*
X82970332Y-57831574D01*
X82893726Y-57946224D01*
X82796224Y-58043726D01*
X82743519Y-58078942D01*
X82681573Y-58120333D01*
X82554181Y-58173100D01*
X82418945Y-58200000D01*
X82281055Y-58200000D01*
X82145819Y-58173100D01*
X82018427Y-58120333D01*
X81956481Y-58078942D01*
X81903776Y-58043726D01*
X81806274Y-57946224D01*
X81729668Y-57831574D01*
X81729667Y-57831573D01*
X81676900Y-57704181D01*
X81650000Y-57568945D01*
X81650000Y-57431055D01*
X81676900Y-57295819D01*
X81729667Y-57168427D01*
X81769563Y-57108718D01*
X81806274Y-57053776D01*
X81903776Y-56956274D01*
X82001044Y-56891282D01*
X82018427Y-56879667D01*
X82145819Y-56826900D01*
X82281055Y-56800000D01*
X82418945Y-56800000D01*
X82554181Y-56826900D01*
G37*
G36*
X90779383Y-51839411D02*
G01*
X90839919Y-51864486D01*
X90847629Y-51867680D01*
X90865569Y-51879667D01*
X90909047Y-51908718D01*
X90961282Y-51960953D01*
X91002321Y-52022373D01*
X91030589Y-52090617D01*
X91045000Y-52163065D01*
X91045000Y-52236935D01*
X91037989Y-52272179D01*
X91037028Y-52281933D01*
X91037989Y-52291688D01*
X91040834Y-52301067D01*
X91045454Y-52309711D01*
X91051672Y-52317288D01*
X91059248Y-52323506D01*
X91067893Y-52328127D01*
X91077272Y-52330972D01*
X91087026Y-52331933D01*
X91096781Y-52330972D01*
X91106160Y-52328127D01*
X91114804Y-52323507D01*
X91122382Y-52317289D01*
X91130953Y-52308718D01*
X91185638Y-52272179D01*
X91192371Y-52267680D01*
X91260617Y-52239411D01*
X91273070Y-52236934D01*
X91333065Y-52225000D01*
X91406935Y-52225000D01*
X91466930Y-52236934D01*
X91479383Y-52239411D01*
X91547629Y-52267680D01*
X91554362Y-52272179D01*
X91609047Y-52308718D01*
X91661282Y-52360953D01*
X91702321Y-52422373D01*
X91730589Y-52490617D01*
X91745000Y-52563065D01*
X91745000Y-52636935D01*
X91738884Y-52667680D01*
X91730589Y-52709383D01*
X91702320Y-52777629D01*
X91661281Y-52839048D01*
X91609048Y-52891281D01*
X91547629Y-52932320D01*
X91547628Y-52932321D01*
X91547627Y-52932321D01*
X91495756Y-52953807D01*
X91487112Y-52958427D01*
X91479535Y-52964645D01*
X91473317Y-52972222D01*
X91468697Y-52980866D01*
X91465852Y-52990246D01*
X91464891Y-53000000D01*
X91465852Y-53009755D01*
X91468697Y-53019134D01*
X91473317Y-53027778D01*
X91479535Y-53035355D01*
X91487112Y-53041573D01*
X91495756Y-53046193D01*
X91547629Y-53067680D01*
X91554362Y-53072179D01*
X91609047Y-53108718D01*
X91661282Y-53160953D01*
X91702321Y-53222373D01*
X91730589Y-53290617D01*
X91745000Y-53363065D01*
X91745000Y-53436935D01*
X91730589Y-53509383D01*
X91716163Y-53544211D01*
X91702320Y-53577629D01*
X91661281Y-53639048D01*
X91609048Y-53691281D01*
X91547629Y-53732320D01*
X91547628Y-53732321D01*
X91547627Y-53732321D01*
X91495756Y-53753807D01*
X91487112Y-53758427D01*
X91479535Y-53764645D01*
X91473317Y-53772222D01*
X91468697Y-53780866D01*
X91465852Y-53790246D01*
X91464891Y-53800000D01*
X91465852Y-53809755D01*
X91468697Y-53819134D01*
X91473317Y-53827778D01*
X91479535Y-53835355D01*
X91487112Y-53841573D01*
X91495756Y-53846193D01*
X91547629Y-53867680D01*
X91554362Y-53872179D01*
X91609047Y-53908718D01*
X91661282Y-53960953D01*
X91702321Y-54022373D01*
X91730589Y-54090617D01*
X91745000Y-54163065D01*
X91745000Y-54236935D01*
X91738884Y-54267680D01*
X91730589Y-54309383D01*
X91702320Y-54377629D01*
X91661281Y-54439048D01*
X91609048Y-54491281D01*
X91547629Y-54532320D01*
X91547628Y-54532321D01*
X91547627Y-54532321D01*
X91479383Y-54560589D01*
X91406935Y-54575000D01*
X91333065Y-54575000D01*
X91260617Y-54560589D01*
X91192373Y-54532321D01*
X91192372Y-54532321D01*
X91192371Y-54532320D01*
X91130952Y-54491281D01*
X91122382Y-54482711D01*
X91114805Y-54476493D01*
X91106161Y-54471873D01*
X91096781Y-54469028D01*
X91087027Y-54468067D01*
X91077273Y-54469028D01*
X91067893Y-54471873D01*
X91059249Y-54476493D01*
X91051672Y-54482711D01*
X91045454Y-54490288D01*
X91040834Y-54498932D01*
X91037989Y-54508312D01*
X91037028Y-54518066D01*
X91037989Y-54527818D01*
X91045000Y-54563066D01*
X91045000Y-54636934D01*
X91030589Y-54709383D01*
X91002320Y-54777629D01*
X90961281Y-54839048D01*
X90909048Y-54891281D01*
X90847629Y-54932320D01*
X90847628Y-54932321D01*
X90847627Y-54932321D01*
X90795756Y-54953807D01*
X90787112Y-54958427D01*
X90779535Y-54964645D01*
X90773317Y-54972222D01*
X90768697Y-54980866D01*
X90765852Y-54990246D01*
X90764891Y-55000000D01*
X90765852Y-55009755D01*
X90768697Y-55019134D01*
X90773317Y-55027778D01*
X90779535Y-55035355D01*
X90787112Y-55041573D01*
X90795756Y-55046193D01*
X90847629Y-55067680D01*
X90878546Y-55088338D01*
X90909047Y-55108718D01*
X90961282Y-55160953D01*
X91002321Y-55222373D01*
X91030589Y-55290617D01*
X91045000Y-55363065D01*
X91045000Y-55436935D01*
X91037989Y-55472179D01*
X91037028Y-55481933D01*
X91037989Y-55491688D01*
X91040834Y-55501067D01*
X91045454Y-55509711D01*
X91051672Y-55517288D01*
X91059248Y-55523506D01*
X91067893Y-55528127D01*
X91077272Y-55530972D01*
X91087026Y-55531933D01*
X91096781Y-55530972D01*
X91106160Y-55528127D01*
X91114804Y-55523507D01*
X91122382Y-55517289D01*
X91130953Y-55508718D01*
X91185638Y-55472179D01*
X91192371Y-55467680D01*
X91260617Y-55439411D01*
X91273070Y-55436934D01*
X91333065Y-55425000D01*
X91406935Y-55425000D01*
X91466930Y-55436934D01*
X91479383Y-55439411D01*
X91547629Y-55467680D01*
X91554362Y-55472179D01*
X91609047Y-55508718D01*
X91661282Y-55560953D01*
X91681662Y-55591454D01*
X91700958Y-55620332D01*
X91702321Y-55622373D01*
X91730589Y-55690617D01*
X91745000Y-55763065D01*
X91745000Y-55836935D01*
X91738884Y-55867680D01*
X91730589Y-55909383D01*
X91702320Y-55977629D01*
X91661281Y-56039048D01*
X91609048Y-56091281D01*
X91547629Y-56132320D01*
X91547628Y-56132321D01*
X91547627Y-56132321D01*
X91495756Y-56153807D01*
X91487112Y-56158427D01*
X91479535Y-56164645D01*
X91473317Y-56172222D01*
X91468697Y-56180866D01*
X91465852Y-56190246D01*
X91464891Y-56200000D01*
X91465852Y-56209755D01*
X91468697Y-56219134D01*
X91473317Y-56227778D01*
X91479535Y-56235355D01*
X91487112Y-56241573D01*
X91495756Y-56246193D01*
X91547629Y-56267680D01*
X91554362Y-56272179D01*
X91609047Y-56308718D01*
X91661282Y-56360953D01*
X91702321Y-56422373D01*
X91730589Y-56490617D01*
X91745000Y-56563065D01*
X91745000Y-56636935D01*
X91730589Y-56709383D01*
X91702321Y-56777627D01*
X91669398Y-56826901D01*
X91661281Y-56839048D01*
X91609048Y-56891281D01*
X91547629Y-56932320D01*
X91547628Y-56932321D01*
X91547627Y-56932321D01*
X91495756Y-56953807D01*
X91487112Y-56958427D01*
X91479535Y-56964645D01*
X91473317Y-56972222D01*
X91468697Y-56980866D01*
X91465852Y-56990246D01*
X91464891Y-57000000D01*
X91465852Y-57009755D01*
X91468697Y-57019134D01*
X91473317Y-57027778D01*
X91479535Y-57035355D01*
X91487112Y-57041573D01*
X91495756Y-57046193D01*
X91514063Y-57053776D01*
X91547629Y-57067680D01*
X91554362Y-57072179D01*
X91609047Y-57108718D01*
X91661282Y-57160953D01*
X91702321Y-57222373D01*
X91730589Y-57290617D01*
X91745000Y-57363065D01*
X91745000Y-57436935D01*
X91730589Y-57509383D01*
X91702321Y-57577627D01*
X91661282Y-57639047D01*
X91609047Y-57691282D01*
X91583559Y-57708312D01*
X91547629Y-57732320D01*
X91547628Y-57732321D01*
X91547627Y-57732321D01*
X91479383Y-57760589D01*
X91406935Y-57775000D01*
X91333065Y-57775000D01*
X91260617Y-57760589D01*
X91192373Y-57732321D01*
X91192372Y-57732321D01*
X91192371Y-57732320D01*
X91156441Y-57708312D01*
X91130953Y-57691282D01*
X91122382Y-57682711D01*
X91114805Y-57676493D01*
X91106161Y-57671873D01*
X91096781Y-57669028D01*
X91087027Y-57668067D01*
X91077273Y-57669028D01*
X91067893Y-57671873D01*
X91059249Y-57676493D01*
X91051672Y-57682711D01*
X91045454Y-57690288D01*
X91040834Y-57698932D01*
X91037989Y-57708312D01*
X91037028Y-57718066D01*
X91037989Y-57727818D01*
X91045000Y-57763066D01*
X91045000Y-57836934D01*
X91030589Y-57909383D01*
X91002320Y-57977629D01*
X90961281Y-58039048D01*
X90909048Y-58091281D01*
X90847629Y-58132320D01*
X90847628Y-58132321D01*
X90847627Y-58132321D01*
X90779383Y-58160589D01*
X90706935Y-58175000D01*
X90633065Y-58175000D01*
X90560617Y-58160589D01*
X90492373Y-58132321D01*
X90492372Y-58132321D01*
X90492371Y-58132320D01*
X90430952Y-58091281D01*
X90378719Y-58039048D01*
X90337680Y-57977629D01*
X90309411Y-57909383D01*
X90295000Y-57836934D01*
X90295000Y-57763066D01*
X90301116Y-57732321D01*
X90309411Y-57690617D01*
X90337679Y-57622373D01*
X90378718Y-57560953D01*
X90430953Y-57508718D01*
X90461454Y-57488338D01*
X90492371Y-57467680D01*
X90494858Y-57466650D01*
X90544244Y-57446193D01*
X90552888Y-57441573D01*
X90560465Y-57435355D01*
X90566683Y-57427778D01*
X90571303Y-57419134D01*
X90574148Y-57409754D01*
X90575109Y-57400000D01*
X90764891Y-57400000D01*
X90765852Y-57409755D01*
X90768697Y-57419134D01*
X90773317Y-57427778D01*
X90779535Y-57435355D01*
X90787112Y-57441573D01*
X90795756Y-57446193D01*
X90845143Y-57466650D01*
X90847629Y-57467680D01*
X90878546Y-57488338D01*
X90909047Y-57508718D01*
X90917618Y-57517289D01*
X90925195Y-57523507D01*
X90933839Y-57528127D01*
X90943219Y-57530972D01*
X90952973Y-57531933D01*
X90962727Y-57530972D01*
X90972107Y-57528127D01*
X90980751Y-57523507D01*
X90988328Y-57517289D01*
X90994546Y-57509712D01*
X90999166Y-57501068D01*
X91002011Y-57491688D01*
X91002972Y-57481934D01*
X91002011Y-57472179D01*
X90995000Y-57436935D01*
X90995000Y-57363065D01*
X91002011Y-57327821D01*
X91002972Y-57318067D01*
X91002011Y-57308312D01*
X90999166Y-57298933D01*
X90994546Y-57290289D01*
X90988328Y-57282712D01*
X90980752Y-57276494D01*
X90972107Y-57271873D01*
X90962728Y-57269028D01*
X90952974Y-57268067D01*
X90943219Y-57269028D01*
X90933840Y-57271873D01*
X90925196Y-57276493D01*
X90917618Y-57282711D01*
X90909047Y-57291282D01*
X90897596Y-57298933D01*
X90847629Y-57332320D01*
X90847628Y-57332321D01*
X90847627Y-57332321D01*
X90795756Y-57353807D01*
X90787112Y-57358427D01*
X90779535Y-57364645D01*
X90773317Y-57372222D01*
X90768697Y-57380866D01*
X90765852Y-57390246D01*
X90764891Y-57400000D01*
X90575109Y-57400000D01*
X90574148Y-57390245D01*
X90571303Y-57380866D01*
X90566683Y-57372222D01*
X90560465Y-57364645D01*
X90552888Y-57358427D01*
X90544244Y-57353807D01*
X90492373Y-57332321D01*
X90492372Y-57332321D01*
X90492371Y-57332320D01*
X90442404Y-57298933D01*
X90430953Y-57291282D01*
X90378718Y-57239047D01*
X90337679Y-57177627D01*
X90309411Y-57109383D01*
X90295000Y-57036935D01*
X90295000Y-56963065D01*
X90303950Y-56918066D01*
X91037028Y-56918066D01*
X91037989Y-56927818D01*
X91038884Y-56932320D01*
X91045000Y-56963065D01*
X91045000Y-57036935D01*
X91037989Y-57072179D01*
X91037028Y-57081933D01*
X91037989Y-57091688D01*
X91040834Y-57101067D01*
X91045454Y-57109711D01*
X91051672Y-57117288D01*
X91059248Y-57123506D01*
X91067893Y-57128127D01*
X91077272Y-57130972D01*
X91087026Y-57131933D01*
X91096781Y-57130972D01*
X91106160Y-57128127D01*
X91114804Y-57123507D01*
X91122382Y-57117289D01*
X91130953Y-57108718D01*
X91185638Y-57072179D01*
X91192371Y-57067680D01*
X91225938Y-57053776D01*
X91244244Y-57046193D01*
X91252888Y-57041573D01*
X91260465Y-57035355D01*
X91266683Y-57027778D01*
X91271303Y-57019134D01*
X91274148Y-57009754D01*
X91275109Y-57000000D01*
X91274148Y-56990245D01*
X91271303Y-56980866D01*
X91266683Y-56972222D01*
X91260465Y-56964645D01*
X91252888Y-56958427D01*
X91244244Y-56953807D01*
X91192373Y-56932321D01*
X91192372Y-56932321D01*
X91192371Y-56932320D01*
X91130952Y-56891281D01*
X91122382Y-56882711D01*
X91114805Y-56876493D01*
X91106161Y-56871873D01*
X91096781Y-56869028D01*
X91087027Y-56868067D01*
X91077273Y-56869028D01*
X91067893Y-56871873D01*
X91059249Y-56876493D01*
X91051672Y-56882711D01*
X91045454Y-56890288D01*
X91040834Y-56898932D01*
X91037989Y-56908312D01*
X91037028Y-56918066D01*
X90303950Y-56918066D01*
X90309411Y-56890617D01*
X90337679Y-56822373D01*
X90378718Y-56760953D01*
X90430953Y-56708718D01*
X90461454Y-56688338D01*
X90492371Y-56667680D01*
X90544244Y-56646193D01*
X90552888Y-56641573D01*
X90560465Y-56635355D01*
X90566683Y-56627778D01*
X90571303Y-56619134D01*
X90574148Y-56609754D01*
X90575109Y-56600000D01*
X90764891Y-56600000D01*
X90765852Y-56609755D01*
X90768697Y-56619134D01*
X90773317Y-56627778D01*
X90779535Y-56635355D01*
X90787112Y-56641573D01*
X90795756Y-56646193D01*
X90847629Y-56667680D01*
X90878546Y-56688338D01*
X90909047Y-56708718D01*
X90917618Y-56717289D01*
X90925195Y-56723507D01*
X90933839Y-56728127D01*
X90943219Y-56730972D01*
X90952973Y-56731933D01*
X90962727Y-56730972D01*
X90972107Y-56728127D01*
X90980751Y-56723507D01*
X90988328Y-56717289D01*
X90994546Y-56709712D01*
X90999166Y-56701068D01*
X91002011Y-56691688D01*
X91002972Y-56681934D01*
X91002011Y-56672179D01*
X90995000Y-56636935D01*
X90995000Y-56563065D01*
X91002011Y-56527821D01*
X91002972Y-56518067D01*
X91002011Y-56508312D01*
X90999166Y-56498933D01*
X90994546Y-56490289D01*
X90988328Y-56482712D01*
X90980752Y-56476494D01*
X90972107Y-56471873D01*
X90962728Y-56469028D01*
X90952974Y-56468067D01*
X90943219Y-56469028D01*
X90933840Y-56471873D01*
X90925196Y-56476493D01*
X90917618Y-56482711D01*
X90909047Y-56491282D01*
X90897596Y-56498933D01*
X90847629Y-56532320D01*
X90847628Y-56532321D01*
X90847627Y-56532321D01*
X90795756Y-56553807D01*
X90787112Y-56558427D01*
X90779535Y-56564645D01*
X90773317Y-56572222D01*
X90768697Y-56580866D01*
X90765852Y-56590246D01*
X90764891Y-56600000D01*
X90575109Y-56600000D01*
X90574148Y-56590245D01*
X90571303Y-56580866D01*
X90566683Y-56572222D01*
X90560465Y-56564645D01*
X90552888Y-56558427D01*
X90544244Y-56553807D01*
X90492373Y-56532321D01*
X90492372Y-56532321D01*
X90492371Y-56532320D01*
X90442404Y-56498933D01*
X90430953Y-56491282D01*
X90378718Y-56439047D01*
X90337679Y-56377627D01*
X90309411Y-56309383D01*
X90295000Y-56236935D01*
X90295000Y-56163065D01*
X90303950Y-56118066D01*
X91037028Y-56118066D01*
X91037989Y-56127821D01*
X91045000Y-56163065D01*
X91045000Y-56236935D01*
X91037989Y-56272179D01*
X91037028Y-56281933D01*
X91037989Y-56291688D01*
X91040834Y-56301067D01*
X91045454Y-56309711D01*
X91051672Y-56317288D01*
X91059248Y-56323506D01*
X91067893Y-56328127D01*
X91077272Y-56330972D01*
X91087026Y-56331933D01*
X91096781Y-56330972D01*
X91106160Y-56328127D01*
X91114804Y-56323507D01*
X91122382Y-56317289D01*
X91130953Y-56308718D01*
X91185638Y-56272179D01*
X91192371Y-56267680D01*
X91244244Y-56246193D01*
X91252888Y-56241573D01*
X91260465Y-56235355D01*
X91266683Y-56227778D01*
X91271303Y-56219134D01*
X91274148Y-56209754D01*
X91275109Y-56200000D01*
X91274148Y-56190245D01*
X91271303Y-56180866D01*
X91266683Y-56172222D01*
X91260465Y-56164645D01*
X91252888Y-56158427D01*
X91244244Y-56153807D01*
X91192373Y-56132321D01*
X91192372Y-56132321D01*
X91192371Y-56132320D01*
X91130952Y-56091281D01*
X91122382Y-56082711D01*
X91114805Y-56076493D01*
X91106161Y-56071873D01*
X91096781Y-56069028D01*
X91087027Y-56068067D01*
X91077273Y-56069028D01*
X91067893Y-56071873D01*
X91059249Y-56076493D01*
X91051672Y-56082711D01*
X91045454Y-56090288D01*
X91040834Y-56098932D01*
X91037989Y-56108312D01*
X91037028Y-56118066D01*
X90303950Y-56118066D01*
X90309411Y-56090617D01*
X90337679Y-56022373D01*
X90378718Y-55960953D01*
X90430953Y-55908718D01*
X90461454Y-55888338D01*
X90492371Y-55867680D01*
X90544244Y-55846193D01*
X90552888Y-55841573D01*
X90560465Y-55835355D01*
X90566683Y-55827778D01*
X90571303Y-55819134D01*
X90574148Y-55809754D01*
X90575109Y-55800000D01*
X90764891Y-55800000D01*
X90765852Y-55809755D01*
X90768697Y-55819134D01*
X90773317Y-55827778D01*
X90779535Y-55835355D01*
X90787112Y-55841573D01*
X90795756Y-55846193D01*
X90847629Y-55867680D01*
X90878546Y-55888338D01*
X90909047Y-55908718D01*
X90917618Y-55917289D01*
X90925195Y-55923507D01*
X90933839Y-55928127D01*
X90943219Y-55930972D01*
X90952973Y-55931933D01*
X90962727Y-55930972D01*
X90972107Y-55928127D01*
X90980751Y-55923507D01*
X90988328Y-55917289D01*
X90994546Y-55909712D01*
X90999166Y-55901068D01*
X91002011Y-55891688D01*
X91002972Y-55881934D01*
X91002011Y-55872179D01*
X90995000Y-55836935D01*
X90995000Y-55763065D01*
X91002011Y-55727821D01*
X91002972Y-55718067D01*
X91002011Y-55708312D01*
X90999166Y-55698933D01*
X90994546Y-55690289D01*
X90988328Y-55682712D01*
X90980752Y-55676494D01*
X90972107Y-55671873D01*
X90962728Y-55669028D01*
X90952974Y-55668067D01*
X90943219Y-55669028D01*
X90933840Y-55671873D01*
X90925196Y-55676493D01*
X90917618Y-55682711D01*
X90909048Y-55691281D01*
X90847629Y-55732320D01*
X90847628Y-55732321D01*
X90847627Y-55732321D01*
X90795756Y-55753807D01*
X90787112Y-55758427D01*
X90779535Y-55764645D01*
X90773317Y-55772222D01*
X90768697Y-55780866D01*
X90765852Y-55790246D01*
X90764891Y-55800000D01*
X90575109Y-55800000D01*
X90574148Y-55790245D01*
X90571303Y-55780866D01*
X90566683Y-55772222D01*
X90560465Y-55764645D01*
X90552888Y-55758427D01*
X90544244Y-55753807D01*
X90492373Y-55732321D01*
X90492372Y-55732321D01*
X90492371Y-55732320D01*
X90430952Y-55691281D01*
X90378719Y-55639048D01*
X90337680Y-55577629D01*
X90309411Y-55509383D01*
X90301116Y-55467680D01*
X90295000Y-55436935D01*
X90295000Y-55363065D01*
X90309411Y-55290617D01*
X90337679Y-55222373D01*
X90378718Y-55160953D01*
X90430953Y-55108718D01*
X90461454Y-55088338D01*
X90492371Y-55067680D01*
X90544244Y-55046193D01*
X90552888Y-55041573D01*
X90560465Y-55035355D01*
X90566683Y-55027778D01*
X90571303Y-55019134D01*
X90574148Y-55009754D01*
X90575109Y-55000000D01*
X90574148Y-54990245D01*
X90571303Y-54980866D01*
X90566683Y-54972222D01*
X90560465Y-54964645D01*
X90552888Y-54958427D01*
X90544244Y-54953807D01*
X90492373Y-54932321D01*
X90492372Y-54932321D01*
X90492371Y-54932320D01*
X90430952Y-54891281D01*
X90378719Y-54839048D01*
X90337680Y-54777629D01*
X90309411Y-54709383D01*
X90295000Y-54636934D01*
X90295000Y-54563066D01*
X90301116Y-54532321D01*
X90309411Y-54490617D01*
X90337679Y-54422373D01*
X90378718Y-54360953D01*
X90430953Y-54308718D01*
X90461454Y-54288338D01*
X90492371Y-54267680D01*
X90530363Y-54251943D01*
X90544244Y-54246193D01*
X90552888Y-54241573D01*
X90560465Y-54235355D01*
X90566683Y-54227778D01*
X90571303Y-54219134D01*
X90574148Y-54209754D01*
X90575109Y-54200000D01*
X90764891Y-54200000D01*
X90765852Y-54209755D01*
X90768697Y-54219134D01*
X90773317Y-54227778D01*
X90779535Y-54235355D01*
X90787112Y-54241573D01*
X90795756Y-54246193D01*
X90809638Y-54251943D01*
X90847629Y-54267680D01*
X90878546Y-54288338D01*
X90909047Y-54308718D01*
X90917618Y-54317289D01*
X90925195Y-54323507D01*
X90933839Y-54328127D01*
X90943219Y-54330972D01*
X90952973Y-54331933D01*
X90962727Y-54330972D01*
X90972107Y-54328127D01*
X90980751Y-54323507D01*
X90988328Y-54317289D01*
X90994546Y-54309712D01*
X90999166Y-54301068D01*
X91002011Y-54291688D01*
X91002972Y-54281934D01*
X91002011Y-54272179D01*
X90997986Y-54251943D01*
X90995000Y-54236934D01*
X90995000Y-54163066D01*
X91002011Y-54127818D01*
X91002972Y-54118067D01*
X91002011Y-54108312D01*
X90999166Y-54098933D01*
X90994546Y-54090289D01*
X90988328Y-54082712D01*
X90980752Y-54076494D01*
X90972107Y-54071873D01*
X90962728Y-54069028D01*
X90952974Y-54068067D01*
X90943219Y-54069028D01*
X90933840Y-54071873D01*
X90925196Y-54076493D01*
X90917618Y-54082711D01*
X90909048Y-54091281D01*
X90847629Y-54132320D01*
X90847628Y-54132321D01*
X90847627Y-54132321D01*
X90795756Y-54153807D01*
X90787112Y-54158427D01*
X90779535Y-54164645D01*
X90773317Y-54172222D01*
X90768697Y-54180866D01*
X90765852Y-54190246D01*
X90764891Y-54200000D01*
X90575109Y-54200000D01*
X90574148Y-54190245D01*
X90571303Y-54180866D01*
X90566683Y-54172222D01*
X90560465Y-54164645D01*
X90552888Y-54158427D01*
X90544244Y-54153807D01*
X90492373Y-54132321D01*
X90492372Y-54132321D01*
X90492371Y-54132320D01*
X90430952Y-54091281D01*
X90378719Y-54039048D01*
X90337680Y-53977629D01*
X90309411Y-53909383D01*
X90301116Y-53867680D01*
X90295000Y-53836935D01*
X90295000Y-53763065D01*
X90303950Y-53718066D01*
X91037028Y-53718066D01*
X91037989Y-53727821D01*
X91045000Y-53763065D01*
X91045000Y-53836935D01*
X91037989Y-53872179D01*
X91037028Y-53881933D01*
X91037989Y-53891688D01*
X91040834Y-53901067D01*
X91045454Y-53909711D01*
X91051672Y-53917288D01*
X91059248Y-53923506D01*
X91067893Y-53928127D01*
X91077272Y-53930972D01*
X91087026Y-53931933D01*
X91096781Y-53930972D01*
X91106160Y-53928127D01*
X91114804Y-53923507D01*
X91122382Y-53917289D01*
X91130953Y-53908718D01*
X91185638Y-53872179D01*
X91192371Y-53867680D01*
X91244244Y-53846193D01*
X91252888Y-53841573D01*
X91260465Y-53835355D01*
X91266683Y-53827778D01*
X91271303Y-53819134D01*
X91274148Y-53809754D01*
X91275109Y-53800000D01*
X91274148Y-53790245D01*
X91271303Y-53780866D01*
X91266683Y-53772222D01*
X91260465Y-53764645D01*
X91252888Y-53758427D01*
X91244244Y-53753807D01*
X91192373Y-53732321D01*
X91192372Y-53732321D01*
X91192371Y-53732320D01*
X91130952Y-53691281D01*
X91122382Y-53682711D01*
X91114805Y-53676493D01*
X91106161Y-53671873D01*
X91096781Y-53669028D01*
X91087027Y-53668067D01*
X91077273Y-53669028D01*
X91067893Y-53671873D01*
X91059249Y-53676493D01*
X91051672Y-53682711D01*
X91045454Y-53690288D01*
X91040834Y-53698932D01*
X91037989Y-53708312D01*
X91037028Y-53718066D01*
X90303950Y-53718066D01*
X90309411Y-53690617D01*
X90337679Y-53622373D01*
X90378718Y-53560953D01*
X90430953Y-53508718D01*
X90461454Y-53488338D01*
X90492371Y-53467680D01*
X90544244Y-53446193D01*
X90552888Y-53441573D01*
X90560465Y-53435355D01*
X90566683Y-53427778D01*
X90571303Y-53419134D01*
X90574148Y-53409754D01*
X90575109Y-53400000D01*
X90764891Y-53400000D01*
X90765852Y-53409755D01*
X90768697Y-53419134D01*
X90773317Y-53427778D01*
X90779535Y-53435355D01*
X90787112Y-53441573D01*
X90795756Y-53446193D01*
X90847629Y-53467680D01*
X90878546Y-53488338D01*
X90909047Y-53508718D01*
X90917618Y-53517289D01*
X90925195Y-53523507D01*
X90933839Y-53528127D01*
X90943219Y-53530972D01*
X90952973Y-53531933D01*
X90962727Y-53530972D01*
X90972107Y-53528127D01*
X90980751Y-53523507D01*
X90988328Y-53517289D01*
X90994546Y-53509712D01*
X90999166Y-53501068D01*
X91002011Y-53491688D01*
X91002972Y-53481934D01*
X91002011Y-53472179D01*
X90995000Y-53436935D01*
X90995000Y-53363065D01*
X91002011Y-53327821D01*
X91002972Y-53318067D01*
X91002011Y-53308312D01*
X90999166Y-53298933D01*
X90994546Y-53290289D01*
X90988328Y-53282712D01*
X90980752Y-53276494D01*
X90972107Y-53271873D01*
X90962728Y-53269028D01*
X90952974Y-53268067D01*
X90943219Y-53269028D01*
X90933840Y-53271873D01*
X90925196Y-53276493D01*
X90917618Y-53282711D01*
X90909048Y-53291281D01*
X90847629Y-53332320D01*
X90847628Y-53332321D01*
X90847627Y-53332321D01*
X90795756Y-53353807D01*
X90787112Y-53358427D01*
X90779535Y-53364645D01*
X90773317Y-53372222D01*
X90768697Y-53380866D01*
X90765852Y-53390246D01*
X90764891Y-53400000D01*
X90575109Y-53400000D01*
X90574148Y-53390245D01*
X90571303Y-53380866D01*
X90566683Y-53372222D01*
X90560465Y-53364645D01*
X90552888Y-53358427D01*
X90544244Y-53353807D01*
X90492373Y-53332321D01*
X90492372Y-53332321D01*
X90492371Y-53332320D01*
X90430952Y-53291281D01*
X90378719Y-53239048D01*
X90337680Y-53177629D01*
X90335804Y-53173099D01*
X90309411Y-53109383D01*
X90295000Y-53036935D01*
X90295000Y-52963065D01*
X90303950Y-52918066D01*
X91037028Y-52918066D01*
X91037989Y-52927821D01*
X91045000Y-52963065D01*
X91045000Y-53036935D01*
X91037989Y-53072179D01*
X91037028Y-53081933D01*
X91037989Y-53091688D01*
X91040834Y-53101067D01*
X91045454Y-53109711D01*
X91051672Y-53117288D01*
X91059248Y-53123506D01*
X91067893Y-53128127D01*
X91077272Y-53130972D01*
X91087026Y-53131933D01*
X91096781Y-53130972D01*
X91106160Y-53128127D01*
X91114804Y-53123507D01*
X91122382Y-53117289D01*
X91130953Y-53108718D01*
X91185638Y-53072179D01*
X91192371Y-53067680D01*
X91244244Y-53046193D01*
X91252888Y-53041573D01*
X91260465Y-53035355D01*
X91266683Y-53027778D01*
X91271303Y-53019134D01*
X91274148Y-53009754D01*
X91275109Y-53000000D01*
X91274148Y-52990245D01*
X91271303Y-52980866D01*
X91266683Y-52972222D01*
X91260465Y-52964645D01*
X91252888Y-52958427D01*
X91244244Y-52953807D01*
X91192373Y-52932321D01*
X91192372Y-52932321D01*
X91192371Y-52932320D01*
X91130952Y-52891281D01*
X91122382Y-52882711D01*
X91114805Y-52876493D01*
X91106161Y-52871873D01*
X91096781Y-52869028D01*
X91087027Y-52868067D01*
X91077273Y-52869028D01*
X91067893Y-52871873D01*
X91059249Y-52876493D01*
X91051672Y-52882711D01*
X91045454Y-52890288D01*
X91040834Y-52898932D01*
X91037989Y-52908312D01*
X91037028Y-52918066D01*
X90303950Y-52918066D01*
X90309411Y-52890617D01*
X90337679Y-52822373D01*
X90378718Y-52760953D01*
X90430953Y-52708718D01*
X90461454Y-52688338D01*
X90492371Y-52667680D01*
X90521066Y-52655794D01*
X90544244Y-52646193D01*
X90552888Y-52641573D01*
X90560465Y-52635355D01*
X90566683Y-52627778D01*
X90571303Y-52619134D01*
X90574148Y-52609754D01*
X90575109Y-52600000D01*
X90764891Y-52600000D01*
X90765852Y-52609755D01*
X90768697Y-52619134D01*
X90773317Y-52627778D01*
X90779535Y-52635355D01*
X90787112Y-52641573D01*
X90795756Y-52646193D01*
X90818935Y-52655794D01*
X90847629Y-52667680D01*
X90878546Y-52688338D01*
X90909047Y-52708718D01*
X90917618Y-52717289D01*
X90925195Y-52723507D01*
X90933839Y-52728127D01*
X90943219Y-52730972D01*
X90952973Y-52731933D01*
X90962727Y-52730972D01*
X90972107Y-52728127D01*
X90980751Y-52723507D01*
X90988328Y-52717289D01*
X90994546Y-52709712D01*
X90999166Y-52701068D01*
X91002011Y-52691688D01*
X91002972Y-52681934D01*
X91002011Y-52672179D01*
X90998752Y-52655794D01*
X90995000Y-52636934D01*
X90995000Y-52563066D01*
X91002011Y-52527818D01*
X91002972Y-52518067D01*
X91002011Y-52508312D01*
X90999166Y-52498933D01*
X90994546Y-52490289D01*
X90988328Y-52482712D01*
X90980752Y-52476494D01*
X90972107Y-52471873D01*
X90962728Y-52469028D01*
X90952974Y-52468067D01*
X90943219Y-52469028D01*
X90933840Y-52471873D01*
X90925196Y-52476493D01*
X90917618Y-52482711D01*
X90909048Y-52491281D01*
X90847629Y-52532320D01*
X90847628Y-52532321D01*
X90847627Y-52532321D01*
X90795756Y-52553807D01*
X90787112Y-52558427D01*
X90779535Y-52564645D01*
X90773317Y-52572222D01*
X90768697Y-52580866D01*
X90765852Y-52590246D01*
X90764891Y-52600000D01*
X90575109Y-52600000D01*
X90574148Y-52590245D01*
X90571303Y-52580866D01*
X90566683Y-52572222D01*
X90560465Y-52564645D01*
X90552888Y-52558427D01*
X90544244Y-52553807D01*
X90492373Y-52532321D01*
X90492372Y-52532321D01*
X90492371Y-52532320D01*
X90430952Y-52491281D01*
X90378719Y-52439048D01*
X90337680Y-52377629D01*
X90309411Y-52309383D01*
X90301116Y-52267680D01*
X90295000Y-52236935D01*
X90295000Y-52163065D01*
X90309411Y-52090617D01*
X90337679Y-52022373D01*
X90378718Y-51960953D01*
X90430953Y-51908718D01*
X90474431Y-51879667D01*
X90492371Y-51867680D01*
X90500082Y-51864486D01*
X90560617Y-51839411D01*
X90633065Y-51825000D01*
X90706935Y-51825000D01*
X90779383Y-51839411D01*
G37*
G36*
X12722556Y-54953807D02*
G01*
X12906274Y-54990350D01*
X13097362Y-55069502D01*
X13269336Y-55184411D01*
X13415589Y-55330664D01*
X13530498Y-55502638D01*
X13609650Y-55693726D01*
X13650000Y-55896584D01*
X13650000Y-56103416D01*
X13609650Y-56306274D01*
X13530498Y-56497362D01*
X13415589Y-56669336D01*
X13269336Y-56815589D01*
X13097362Y-56930498D01*
X12906274Y-57009650D01*
X12745782Y-57041573D01*
X12703417Y-57050000D01*
X12496583Y-57050000D01*
X12454218Y-57041573D01*
X12293726Y-57009650D01*
X12102638Y-56930498D01*
X11930664Y-56815589D01*
X11784411Y-56669336D01*
X11669502Y-56497362D01*
X11590350Y-56306274D01*
X11550000Y-56103416D01*
X11550000Y-55896584D01*
X11590350Y-55693726D01*
X11669502Y-55502638D01*
X11784411Y-55330664D01*
X11930664Y-55184411D01*
X12102638Y-55069502D01*
X12293726Y-54990350D01*
X12477444Y-54953807D01*
X12496583Y-54950000D01*
X12703417Y-54950000D01*
X12722556Y-54953807D01*
G37*
G36*
X6050000Y-57050000D02*
G01*
X3950000Y-57050000D01*
X3950000Y-54950000D01*
X6050000Y-54950000D01*
X6050000Y-57050000D01*
G37*
G36*
X55447934Y-54682664D02*
G01*
X55602625Y-54746739D01*
X55602626Y-54746740D01*
X55741844Y-54839762D01*
X55860238Y-54958156D01*
X55875412Y-54980866D01*
X55953261Y-55097375D01*
X56017336Y-55252066D01*
X56050000Y-55416281D01*
X56050000Y-55583719D01*
X56017336Y-55747934D01*
X55953261Y-55902625D01*
X55943463Y-55917289D01*
X55860238Y-56041844D01*
X55741844Y-56160238D01*
X55682336Y-56200000D01*
X55602625Y-56253261D01*
X55447934Y-56317336D01*
X55283719Y-56350000D01*
X55116281Y-56350000D01*
X54952066Y-56317336D01*
X54797375Y-56253261D01*
X54717664Y-56200000D01*
X54658156Y-56160238D01*
X54539762Y-56041844D01*
X54456537Y-55917289D01*
X54446739Y-55902625D01*
X54382664Y-55747934D01*
X54350000Y-55583719D01*
X54350000Y-55416281D01*
X54382664Y-55252066D01*
X54446739Y-55097375D01*
X54524588Y-54980866D01*
X54539762Y-54958156D01*
X54658156Y-54839762D01*
X54797374Y-54746740D01*
X54797375Y-54746739D01*
X54952066Y-54682664D01*
X55116281Y-54650000D01*
X55283719Y-54650000D01*
X55447934Y-54682664D01*
G37*
G36*
X78450000Y-56150000D02*
G01*
X76750000Y-56150000D01*
X76750000Y-54450000D01*
X78450000Y-54450000D01*
X78450000Y-56150000D01*
G37*
G36*
X85854181Y-54326900D02*
G01*
X85981573Y-54379667D01*
X86012003Y-54400000D01*
X86096224Y-54456274D01*
X86193726Y-54553776D01*
X86199933Y-54563066D01*
X86270333Y-54668427D01*
X86323100Y-54795819D01*
X86350000Y-54931055D01*
X86350000Y-55068945D01*
X86323100Y-55204181D01*
X86270333Y-55331573D01*
X86270332Y-55331574D01*
X86193726Y-55446224D01*
X86096224Y-55543726D01*
X86019617Y-55594913D01*
X85981573Y-55620333D01*
X85854181Y-55673100D01*
X85718945Y-55700000D01*
X85581055Y-55700000D01*
X85445819Y-55673100D01*
X85318427Y-55620333D01*
X85280383Y-55594913D01*
X85203776Y-55543726D01*
X85106274Y-55446224D01*
X85029668Y-55331574D01*
X85029667Y-55331573D01*
X84976900Y-55204181D01*
X84950000Y-55068945D01*
X84950000Y-54931055D01*
X84976900Y-54795819D01*
X85029667Y-54668427D01*
X85100067Y-54563066D01*
X85106274Y-54553776D01*
X85203776Y-54456274D01*
X85287997Y-54400000D01*
X85318427Y-54379667D01*
X85445819Y-54326900D01*
X85581055Y-54300000D01*
X85718945Y-54300000D01*
X85854181Y-54326900D01*
G37*
G36*
X82554181Y-54326900D02*
G01*
X82681573Y-54379667D01*
X82712003Y-54400000D01*
X82796224Y-54456274D01*
X82893726Y-54553776D01*
X82899933Y-54563066D01*
X82970333Y-54668427D01*
X83023100Y-54795819D01*
X83050000Y-54931055D01*
X83050000Y-55068945D01*
X83023100Y-55204181D01*
X82970333Y-55331573D01*
X82970332Y-55331574D01*
X82893726Y-55446224D01*
X82796224Y-55543726D01*
X82719617Y-55594913D01*
X82681573Y-55620333D01*
X82554181Y-55673100D01*
X82418945Y-55700000D01*
X82281055Y-55700000D01*
X82145819Y-55673100D01*
X82018427Y-55620333D01*
X81980383Y-55594913D01*
X81903776Y-55543726D01*
X81806274Y-55446224D01*
X81729668Y-55331574D01*
X81729667Y-55331573D01*
X81676900Y-55204181D01*
X81650000Y-55068945D01*
X81650000Y-54931055D01*
X81676900Y-54795819D01*
X81729667Y-54668427D01*
X81800067Y-54563066D01*
X81806274Y-54553776D01*
X81903776Y-54456274D01*
X81987997Y-54400000D01*
X82018427Y-54379667D01*
X82145819Y-54326900D01*
X82281055Y-54300000D01*
X82418945Y-54300000D01*
X82554181Y-54326900D01*
G37*
G36*
X50165712Y-53517289D02*
G01*
X50233351Y-53530743D01*
X50293656Y-53555722D01*
X50378941Y-53591048D01*
X50509969Y-53678598D01*
X50621402Y-53790031D01*
X50708952Y-53921059D01*
X50713058Y-53930972D01*
X50769257Y-54066649D01*
X50774157Y-54091282D01*
X50800000Y-54221205D01*
X50800000Y-54378795D01*
X50799826Y-54379668D01*
X50769257Y-54533351D01*
X50752005Y-54575000D01*
X50708952Y-54678941D01*
X50621402Y-54809969D01*
X50509969Y-54921402D01*
X50378941Y-55008952D01*
X50300186Y-55041573D01*
X50233351Y-55069257D01*
X50181832Y-55079505D01*
X50078795Y-55100000D01*
X49921205Y-55100000D01*
X49818168Y-55079505D01*
X49766649Y-55069257D01*
X49699814Y-55041573D01*
X49621059Y-55008952D01*
X49490031Y-54921402D01*
X49378598Y-54809969D01*
X49291048Y-54678941D01*
X49247995Y-54575000D01*
X49230743Y-54533351D01*
X49200174Y-54379668D01*
X49200000Y-54378795D01*
X49200000Y-54221205D01*
X49225843Y-54091282D01*
X49230743Y-54066649D01*
X49286942Y-53930972D01*
X49291048Y-53921059D01*
X49378598Y-53790031D01*
X49490031Y-53678598D01*
X49621059Y-53591048D01*
X49706344Y-53555722D01*
X49766649Y-53530743D01*
X49834288Y-53517289D01*
X49921205Y-53500000D01*
X50078795Y-53500000D01*
X50165712Y-53517289D01*
G37*
G36*
X43456429Y-51813022D02*
G01*
X43626082Y-51864486D01*
X43782431Y-51948055D01*
X43919475Y-52060525D01*
X44031945Y-52197569D01*
X44115514Y-52353917D01*
X44166978Y-52523570D01*
X44180000Y-52655789D01*
X44180000Y-53544211D01*
X44166978Y-53676430D01*
X44115514Y-53846083D01*
X44031945Y-54002431D01*
X43919475Y-54139475D01*
X43782431Y-54251945D01*
X43626083Y-54335514D01*
X43456430Y-54386978D01*
X43280000Y-54404354D01*
X43103571Y-54386978D01*
X42933918Y-54335514D01*
X42777570Y-54251945D01*
X42640526Y-54139475D01*
X42528056Y-54002431D01*
X42444487Y-53846083D01*
X42393023Y-53676429D01*
X42380000Y-53544211D01*
X42380000Y-52655790D01*
X42393022Y-52523571D01*
X42444486Y-52353918D01*
X42528055Y-52197569D01*
X42640525Y-52060525D01*
X42777569Y-51948055D01*
X42933917Y-51864486D01*
X43103570Y-51813022D01*
X43280000Y-51795646D01*
X43456429Y-51813022D01*
G37*
G36*
X40916429Y-51813022D02*
G01*
X41086082Y-51864486D01*
X41242431Y-51948055D01*
X41379475Y-52060525D01*
X41491945Y-52197569D01*
X41575514Y-52353917D01*
X41626978Y-52523570D01*
X41640000Y-52655789D01*
X41640000Y-53544211D01*
X41626978Y-53676430D01*
X41575514Y-53846083D01*
X41491945Y-54002431D01*
X41379475Y-54139475D01*
X41242431Y-54251945D01*
X41086083Y-54335514D01*
X40916430Y-54386978D01*
X40740000Y-54404354D01*
X40563571Y-54386978D01*
X40393918Y-54335514D01*
X40237570Y-54251945D01*
X40100526Y-54139475D01*
X39988056Y-54002431D01*
X39904487Y-53846083D01*
X39853023Y-53676429D01*
X39840000Y-53544211D01*
X39840000Y-52655790D01*
X39853022Y-52523571D01*
X39904486Y-52353918D01*
X39988055Y-52197569D01*
X40100525Y-52060525D01*
X40237569Y-51948055D01*
X40393917Y-51864486D01*
X40563570Y-51813022D01*
X40740000Y-51795646D01*
X40916429Y-51813022D01*
G37*
G36*
X39100000Y-54400000D02*
G01*
X37300000Y-54400000D01*
X37300000Y-51800000D01*
X39100000Y-51800000D01*
X39100000Y-54400000D01*
G37*
G36*
X85854181Y-51826900D02*
G01*
X85981573Y-51879667D01*
X85981574Y-51879668D01*
X86096224Y-51956274D01*
X86193726Y-52053776D01*
X86198235Y-52060525D01*
X86270333Y-52168427D01*
X86323100Y-52295819D01*
X86350000Y-52431055D01*
X86350000Y-52568945D01*
X86323100Y-52704181D01*
X86270333Y-52831573D01*
X86270332Y-52831574D01*
X86193726Y-52946224D01*
X86096224Y-53043726D01*
X86024443Y-53091688D01*
X85981573Y-53120333D01*
X85854181Y-53173100D01*
X85718945Y-53200000D01*
X85581055Y-53200000D01*
X85445819Y-53173100D01*
X85318427Y-53120333D01*
X85275557Y-53091688D01*
X85203776Y-53043726D01*
X85106274Y-52946224D01*
X85029668Y-52831574D01*
X85029667Y-52831573D01*
X84976900Y-52704181D01*
X84950000Y-52568945D01*
X84950000Y-52431055D01*
X84976900Y-52295819D01*
X85029667Y-52168427D01*
X85101765Y-52060525D01*
X85106274Y-52053776D01*
X85203776Y-51956274D01*
X85318426Y-51879668D01*
X85318427Y-51879667D01*
X85445819Y-51826900D01*
X85581055Y-51800000D01*
X85718945Y-51800000D01*
X85854181Y-51826900D01*
G37*
G36*
X82554181Y-51826900D02*
G01*
X82681573Y-51879667D01*
X82681574Y-51879668D01*
X82796224Y-51956274D01*
X82893726Y-52053776D01*
X82898235Y-52060525D01*
X82970333Y-52168427D01*
X83023100Y-52295819D01*
X83050000Y-52431055D01*
X83050000Y-52568945D01*
X83023100Y-52704181D01*
X82970333Y-52831573D01*
X82970332Y-52831574D01*
X82893726Y-52946224D01*
X82796224Y-53043726D01*
X82724443Y-53091688D01*
X82681573Y-53120333D01*
X82554181Y-53173100D01*
X82418945Y-53200000D01*
X82281055Y-53200000D01*
X82145819Y-53173100D01*
X82018427Y-53120333D01*
X81975557Y-53091688D01*
X81903776Y-53043726D01*
X81806274Y-52946224D01*
X81729668Y-52831574D01*
X81729667Y-52831573D01*
X81676900Y-52704181D01*
X81650000Y-52568945D01*
X81650000Y-52431055D01*
X81676900Y-52295819D01*
X81729667Y-52168427D01*
X81801765Y-52060525D01*
X81806274Y-52053776D01*
X81903776Y-51956274D01*
X82018426Y-51879668D01*
X82018427Y-51879667D01*
X82145819Y-51826900D01*
X82281055Y-51800000D01*
X82418945Y-51800000D01*
X82554181Y-51826900D01*
G37*
G36*
X50128687Y-49955027D02*
G01*
X50306274Y-49990350D01*
X50497362Y-50069502D01*
X50669336Y-50184411D01*
X50815589Y-50330664D01*
X50930498Y-50502638D01*
X51009650Y-50693726D01*
X51050000Y-50896584D01*
X51050000Y-51103416D01*
X51009650Y-51306274D01*
X50930498Y-51497362D01*
X50815589Y-51669336D01*
X50669336Y-51815589D01*
X50497362Y-51930498D01*
X50306274Y-52009650D01*
X50128687Y-52044973D01*
X50103417Y-52050000D01*
X49896583Y-52050000D01*
X49871313Y-52044973D01*
X49693726Y-52009650D01*
X49502638Y-51930498D01*
X49330664Y-51815589D01*
X49184411Y-51669336D01*
X49069502Y-51497362D01*
X48990350Y-51306274D01*
X48950000Y-51103416D01*
X48950000Y-50896584D01*
X48990350Y-50693726D01*
X49069502Y-50502638D01*
X49184411Y-50330664D01*
X49330664Y-50184411D01*
X49502638Y-50069502D01*
X49693726Y-49990350D01*
X49871313Y-49955027D01*
X49896583Y-49950000D01*
X50103417Y-49950000D01*
X50128687Y-49955027D01*
G37*
G36*
X78628687Y-49455027D02*
G01*
X78806274Y-49490350D01*
X78997362Y-49569502D01*
X79169336Y-49684411D01*
X79315589Y-49830664D01*
X79430498Y-50002638D01*
X79509650Y-50193726D01*
X79536888Y-50330664D01*
X79550000Y-50396583D01*
X79550000Y-50603417D01*
X79546267Y-50622182D01*
X79509650Y-50806274D01*
X79430498Y-50997362D01*
X79315589Y-51169336D01*
X79169336Y-51315589D01*
X78997362Y-51430498D01*
X78806274Y-51509650D01*
X78628687Y-51544973D01*
X78603417Y-51550000D01*
X78396583Y-51550000D01*
X78371313Y-51544973D01*
X78193726Y-51509650D01*
X78002638Y-51430498D01*
X77830664Y-51315589D01*
X77684411Y-51169336D01*
X77569502Y-50997362D01*
X77490350Y-50806274D01*
X77453733Y-50622182D01*
X77450000Y-50603417D01*
X77450000Y-50396583D01*
X77463112Y-50330664D01*
X77490350Y-50193726D01*
X77569502Y-50002638D01*
X77684411Y-49830664D01*
X77830664Y-49684411D01*
X78002638Y-49569502D01*
X78193726Y-49490350D01*
X78371313Y-49455027D01*
X78396583Y-49450000D01*
X78603417Y-49450000D01*
X78628687Y-49455027D01*
G37*
G36*
X96971805Y-50184411D02*
G01*
X97007819Y-50187958D01*
X97042377Y-50198441D01*
X97111496Y-50219408D01*
X97207039Y-50270477D01*
X97207040Y-50270478D01*
X97207042Y-50270479D01*
X97280377Y-50330664D01*
X97290790Y-50339210D01*
X97359523Y-50422961D01*
X97410592Y-50518504D01*
X97431559Y-50587623D01*
X97436350Y-50603416D01*
X97442042Y-50622182D01*
X97452661Y-50730000D01*
X97442042Y-50837818D01*
X97410592Y-50941496D01*
X97359523Y-51037039D01*
X97359521Y-51037042D01*
X97290790Y-51120790D01*
X97207042Y-51189521D01*
X97207040Y-51189522D01*
X97207039Y-51189523D01*
X97111496Y-51240592D01*
X97042377Y-51261559D01*
X97007819Y-51272042D01*
X96980885Y-51274695D01*
X96927020Y-51280000D01*
X96272980Y-51280000D01*
X96219115Y-51274695D01*
X96192181Y-51272042D01*
X96157623Y-51261559D01*
X96088504Y-51240592D01*
X95992961Y-51189523D01*
X95992960Y-51189522D01*
X95992958Y-51189521D01*
X95909210Y-51120790D01*
X95840479Y-51037042D01*
X95840477Y-51037039D01*
X95789408Y-50941496D01*
X95757958Y-50837818D01*
X95747339Y-50730000D01*
X95757958Y-50622182D01*
X95763651Y-50603416D01*
X95768441Y-50587623D01*
X95789408Y-50518504D01*
X95840477Y-50422961D01*
X95909210Y-50339210D01*
X95919623Y-50330664D01*
X95992958Y-50270479D01*
X95992960Y-50270478D01*
X95992961Y-50270477D01*
X96088504Y-50219408D01*
X96157623Y-50198441D01*
X96192181Y-50187958D01*
X96228195Y-50184411D01*
X96272980Y-50180000D01*
X96927020Y-50180000D01*
X96971805Y-50184411D01*
G37*
G36*
X92191805Y-50184411D02*
G01*
X92227819Y-50187958D01*
X92262377Y-50198441D01*
X92331496Y-50219408D01*
X92427039Y-50270477D01*
X92427040Y-50270478D01*
X92427042Y-50270479D01*
X92500377Y-50330664D01*
X92510790Y-50339210D01*
X92579523Y-50422961D01*
X92630592Y-50518504D01*
X92651559Y-50587623D01*
X92656350Y-50603416D01*
X92662042Y-50622182D01*
X92672661Y-50730000D01*
X92662042Y-50837818D01*
X92630592Y-50941496D01*
X92579523Y-51037039D01*
X92579521Y-51037042D01*
X92510790Y-51120790D01*
X92427042Y-51189521D01*
X92427040Y-51189522D01*
X92427039Y-51189523D01*
X92331496Y-51240592D01*
X92262377Y-51261559D01*
X92227819Y-51272042D01*
X92200885Y-51274695D01*
X92147020Y-51280000D01*
X91492980Y-51280000D01*
X91439115Y-51274695D01*
X91412181Y-51272042D01*
X91377623Y-51261559D01*
X91308504Y-51240592D01*
X91212961Y-51189523D01*
X91212960Y-51189522D01*
X91212958Y-51189521D01*
X91129210Y-51120790D01*
X91060479Y-51037042D01*
X91060477Y-51037039D01*
X91009408Y-50941496D01*
X90977958Y-50837818D01*
X90967339Y-50730000D01*
X90977958Y-50622182D01*
X90983651Y-50603416D01*
X90988441Y-50587623D01*
X91009408Y-50518504D01*
X91060477Y-50422961D01*
X91129210Y-50339210D01*
X91139623Y-50330664D01*
X91212958Y-50270479D01*
X91212960Y-50270478D01*
X91212961Y-50270477D01*
X91308504Y-50219408D01*
X91377623Y-50198441D01*
X91412181Y-50187958D01*
X91448195Y-50184411D01*
X91492980Y-50180000D01*
X92147020Y-50180000D01*
X92191805Y-50184411D01*
G37*
G36*
X60928687Y-45955027D02*
G01*
X61106274Y-45990350D01*
X61297362Y-46069502D01*
X61469336Y-46184411D01*
X61615589Y-46330664D01*
X61730498Y-46502638D01*
X61809650Y-46693726D01*
X61850000Y-46896584D01*
X61850000Y-47103416D01*
X61809650Y-47306274D01*
X61730498Y-47497362D01*
X61615589Y-47669336D01*
X61469336Y-47815589D01*
X61297362Y-47930498D01*
X61106274Y-48009650D01*
X60928687Y-48044973D01*
X60903417Y-48050000D01*
X60696583Y-48050000D01*
X60671313Y-48044973D01*
X60493726Y-48009650D01*
X60302638Y-47930498D01*
X60130664Y-47815589D01*
X59984411Y-47669336D01*
X59869502Y-47497362D01*
X59790350Y-47306274D01*
X59750000Y-47103416D01*
X59750000Y-46896584D01*
X59790350Y-46693726D01*
X59869502Y-46502638D01*
X59984411Y-46330664D01*
X60130664Y-46184411D01*
X60302638Y-46069502D01*
X60493726Y-45990350D01*
X60671313Y-45955027D01*
X60696583Y-45950000D01*
X60903417Y-45950000D01*
X60928687Y-45955027D01*
G37*
G36*
X38128687Y-45955027D02*
G01*
X38306274Y-45990350D01*
X38497362Y-46069502D01*
X38669336Y-46184411D01*
X38815589Y-46330664D01*
X38930498Y-46502638D01*
X39009650Y-46693726D01*
X39050000Y-46896584D01*
X39050000Y-47103416D01*
X39009650Y-47306274D01*
X38930498Y-47497362D01*
X38815589Y-47669336D01*
X38669336Y-47815589D01*
X38497362Y-47930498D01*
X38306274Y-48009650D01*
X38128687Y-48044973D01*
X38103417Y-48050000D01*
X37896583Y-48050000D01*
X37871313Y-48044973D01*
X37693726Y-48009650D01*
X37502638Y-47930498D01*
X37330664Y-47815589D01*
X37184411Y-47669336D01*
X37069502Y-47497362D01*
X36990350Y-47306274D01*
X36950000Y-47103416D01*
X36950000Y-46896584D01*
X36990350Y-46693726D01*
X37069502Y-46502638D01*
X37184411Y-46330664D01*
X37330664Y-46184411D01*
X37502638Y-46069502D01*
X37693726Y-45990350D01*
X37871313Y-45955027D01*
X37896583Y-45950000D01*
X38103417Y-45950000D01*
X38128687Y-45955027D01*
G37*
G36*
X45767934Y-46182664D02*
G01*
X45922625Y-46246739D01*
X45922626Y-46246740D01*
X46061844Y-46339762D01*
X46180238Y-46458156D01*
X46180239Y-46458158D01*
X46273261Y-46597375D01*
X46337336Y-46752066D01*
X46370000Y-46916281D01*
X46370000Y-47083719D01*
X46337336Y-47247934D01*
X46273261Y-47402625D01*
X46273260Y-47402626D01*
X46180238Y-47541844D01*
X46061844Y-47660238D01*
X45991762Y-47707065D01*
X45922625Y-47753261D01*
X45767934Y-47817336D01*
X45603719Y-47850000D01*
X45436281Y-47850000D01*
X45272066Y-47817336D01*
X45117375Y-47753261D01*
X45048238Y-47707065D01*
X44978156Y-47660238D01*
X44859762Y-47541844D01*
X44766740Y-47402626D01*
X44766739Y-47402625D01*
X44702664Y-47247934D01*
X44670000Y-47083719D01*
X44670000Y-46916281D01*
X44702664Y-46752066D01*
X44766739Y-46597375D01*
X44859761Y-46458158D01*
X44859762Y-46458156D01*
X44978156Y-46339762D01*
X45117374Y-46246740D01*
X45117375Y-46246739D01*
X45272066Y-46182664D01*
X45436281Y-46150000D01*
X45603719Y-46150000D01*
X45767934Y-46182664D01*
G37*
G36*
X86407934Y-46182664D02*
G01*
X86562625Y-46246739D01*
X86562626Y-46246740D01*
X86701844Y-46339762D01*
X86820238Y-46458156D01*
X86820239Y-46458158D01*
X86913261Y-46597375D01*
X86977336Y-46752066D01*
X87010000Y-46916281D01*
X87010000Y-47083719D01*
X86977336Y-47247934D01*
X86913261Y-47402625D01*
X86913260Y-47402626D01*
X86820238Y-47541844D01*
X86701844Y-47660238D01*
X86631762Y-47707065D01*
X86562625Y-47753261D01*
X86407934Y-47817336D01*
X86243719Y-47850000D01*
X86076281Y-47850000D01*
X85912066Y-47817336D01*
X85757375Y-47753261D01*
X85688238Y-47707065D01*
X85618156Y-47660238D01*
X85499762Y-47541844D01*
X85406740Y-47402626D01*
X85406739Y-47402625D01*
X85342664Y-47247934D01*
X85310000Y-47083719D01*
X85310000Y-46916281D01*
X85342664Y-46752066D01*
X85406739Y-46597375D01*
X85499761Y-46458158D01*
X85499762Y-46458156D01*
X85618156Y-46339762D01*
X85757374Y-46246740D01*
X85757375Y-46246739D01*
X85912066Y-46182664D01*
X86076281Y-46150000D01*
X86243719Y-46150000D01*
X86407934Y-46182664D01*
G37*
G36*
X97628687Y-45755027D02*
G01*
X97806274Y-45790350D01*
X97997362Y-45869502D01*
X98169336Y-45984411D01*
X98315589Y-46130664D01*
X98430498Y-46302638D01*
X98509650Y-46493726D01*
X98550000Y-46696584D01*
X98550000Y-46903416D01*
X98509650Y-47106274D01*
X98430498Y-47297362D01*
X98315589Y-47469336D01*
X98169336Y-47615589D01*
X97997362Y-47730498D01*
X97806274Y-47809650D01*
X97628687Y-47844973D01*
X97603417Y-47850000D01*
X97396583Y-47850000D01*
X97371313Y-47844973D01*
X97193726Y-47809650D01*
X97002638Y-47730498D01*
X96830664Y-47615589D01*
X96684411Y-47469336D01*
X96569502Y-47297362D01*
X96490350Y-47106274D01*
X96450000Y-46903416D01*
X96450000Y-46696584D01*
X96490350Y-46493726D01*
X96569502Y-46302638D01*
X96684411Y-46130664D01*
X96830664Y-45984411D01*
X97002638Y-45869502D01*
X97193726Y-45790350D01*
X97371313Y-45755027D01*
X97396583Y-45750000D01*
X97603417Y-45750000D01*
X97628687Y-45755027D01*
G37*
G36*
X93628687Y-45755027D02*
G01*
X93806274Y-45790350D01*
X93997362Y-45869502D01*
X94169336Y-45984411D01*
X94315589Y-46130664D01*
X94430498Y-46302638D01*
X94509650Y-46493726D01*
X94550000Y-46696584D01*
X94550000Y-46903416D01*
X94509650Y-47106274D01*
X94430498Y-47297362D01*
X94315589Y-47469336D01*
X94169336Y-47615589D01*
X93997362Y-47730498D01*
X93806274Y-47809650D01*
X93628687Y-47844973D01*
X93603417Y-47850000D01*
X93396583Y-47850000D01*
X93371313Y-47844973D01*
X93193726Y-47809650D01*
X93002638Y-47730498D01*
X92830664Y-47615589D01*
X92684411Y-47469336D01*
X92569502Y-47297362D01*
X92490350Y-47106274D01*
X92450000Y-46903416D01*
X92450000Y-46696584D01*
X92490350Y-46493726D01*
X92569502Y-46302638D01*
X92684411Y-46130664D01*
X92830664Y-45984411D01*
X93002638Y-45869502D01*
X93193726Y-45790350D01*
X93371313Y-45755027D01*
X93396583Y-45750000D01*
X93603417Y-45750000D01*
X93628687Y-45755027D01*
G37*
G36*
X43227934Y-46182664D02*
G01*
X43382625Y-46246739D01*
X43382626Y-46246740D01*
X43521844Y-46339762D01*
X43640238Y-46458156D01*
X43640239Y-46458158D01*
X43733261Y-46597375D01*
X43797336Y-46752066D01*
X43830000Y-46916281D01*
X43830000Y-47083719D01*
X43797336Y-47247934D01*
X43733261Y-47402625D01*
X43733260Y-47402626D01*
X43640238Y-47541844D01*
X43521844Y-47660238D01*
X43451762Y-47707065D01*
X43382625Y-47753261D01*
X43227934Y-47817336D01*
X43063719Y-47850000D01*
X42896281Y-47850000D01*
X42732066Y-47817336D01*
X42577375Y-47753261D01*
X42508238Y-47707065D01*
X42438156Y-47660238D01*
X42319762Y-47541844D01*
X42226740Y-47402626D01*
X42226739Y-47402625D01*
X42162664Y-47247934D01*
X42130000Y-47083719D01*
X42130000Y-46916281D01*
X42162664Y-46752066D01*
X42226739Y-46597375D01*
X42319761Y-46458158D01*
X42319762Y-46458156D01*
X42438156Y-46339762D01*
X42577374Y-46246740D01*
X42577375Y-46246739D01*
X42732066Y-46182664D01*
X42896281Y-46150000D01*
X43063719Y-46150000D01*
X43227934Y-46182664D01*
G37*
G36*
X33067934Y-46182664D02*
G01*
X33222625Y-46246739D01*
X33222626Y-46246740D01*
X33361844Y-46339762D01*
X33480238Y-46458156D01*
X33480239Y-46458158D01*
X33573261Y-46597375D01*
X33637336Y-46752066D01*
X33670000Y-46916281D01*
X33670000Y-47083719D01*
X33637336Y-47247934D01*
X33573261Y-47402625D01*
X33573260Y-47402626D01*
X33480238Y-47541844D01*
X33361844Y-47660238D01*
X33291762Y-47707065D01*
X33222625Y-47753261D01*
X33067934Y-47817336D01*
X32903719Y-47850000D01*
X32736281Y-47850000D01*
X32572066Y-47817336D01*
X32417375Y-47753261D01*
X32348238Y-47707065D01*
X32278156Y-47660238D01*
X32159762Y-47541844D01*
X32066740Y-47402626D01*
X32066739Y-47402625D01*
X32002664Y-47247934D01*
X31970000Y-47083719D01*
X31970000Y-46916281D01*
X32002664Y-46752066D01*
X32066739Y-46597375D01*
X32159761Y-46458158D01*
X32159762Y-46458156D01*
X32278156Y-46339762D01*
X32417374Y-46246740D01*
X32417375Y-46246739D01*
X32572066Y-46182664D01*
X32736281Y-46150000D01*
X32903719Y-46150000D01*
X33067934Y-46182664D01*
G37*
G36*
X30527934Y-46182664D02*
G01*
X30682625Y-46246739D01*
X30682626Y-46246740D01*
X30821844Y-46339762D01*
X30940238Y-46458156D01*
X30940239Y-46458158D01*
X31033261Y-46597375D01*
X31097336Y-46752066D01*
X31130000Y-46916281D01*
X31130000Y-47083719D01*
X31097336Y-47247934D01*
X31033261Y-47402625D01*
X31033260Y-47402626D01*
X30940238Y-47541844D01*
X30821844Y-47660238D01*
X30751762Y-47707065D01*
X30682625Y-47753261D01*
X30527934Y-47817336D01*
X30363719Y-47850000D01*
X30196281Y-47850000D01*
X30032066Y-47817336D01*
X29877375Y-47753261D01*
X29808238Y-47707065D01*
X29738156Y-47660238D01*
X29619762Y-47541844D01*
X29526740Y-47402626D01*
X29526739Y-47402625D01*
X29462664Y-47247934D01*
X29430000Y-47083719D01*
X29430000Y-46916281D01*
X29462664Y-46752066D01*
X29526739Y-46597375D01*
X29619761Y-46458158D01*
X29619762Y-46458156D01*
X29738156Y-46339762D01*
X29877374Y-46246740D01*
X29877375Y-46246739D01*
X30032066Y-46182664D01*
X30196281Y-46150000D01*
X30363719Y-46150000D01*
X30527934Y-46182664D01*
G37*
G36*
X10207934Y-46182664D02*
G01*
X10362625Y-46246739D01*
X10362626Y-46246740D01*
X10501844Y-46339762D01*
X10620238Y-46458156D01*
X10620239Y-46458158D01*
X10713261Y-46597375D01*
X10777336Y-46752066D01*
X10810000Y-46916281D01*
X10810000Y-47083719D01*
X10777336Y-47247934D01*
X10713261Y-47402625D01*
X10713260Y-47402626D01*
X10620238Y-47541844D01*
X10501844Y-47660238D01*
X10431762Y-47707065D01*
X10362625Y-47753261D01*
X10207934Y-47817336D01*
X10043719Y-47850000D01*
X9876281Y-47850000D01*
X9712066Y-47817336D01*
X9557375Y-47753261D01*
X9488238Y-47707065D01*
X9418156Y-47660238D01*
X9299762Y-47541844D01*
X9206740Y-47402626D01*
X9206739Y-47402625D01*
X9142664Y-47247934D01*
X9110000Y-47083719D01*
X9110000Y-46916281D01*
X9142664Y-46752066D01*
X9206739Y-46597375D01*
X9299761Y-46458158D01*
X9299762Y-46458156D01*
X9418156Y-46339762D01*
X9557374Y-46246740D01*
X9557375Y-46246739D01*
X9712066Y-46182664D01*
X9876281Y-46150000D01*
X10043719Y-46150000D01*
X10207934Y-46182664D01*
G37*
G36*
X15287934Y-46182664D02*
G01*
X15442625Y-46246739D01*
X15442626Y-46246740D01*
X15581844Y-46339762D01*
X15700238Y-46458156D01*
X15700239Y-46458158D01*
X15793261Y-46597375D01*
X15857336Y-46752066D01*
X15890000Y-46916281D01*
X15890000Y-47083719D01*
X15857336Y-47247934D01*
X15793261Y-47402625D01*
X15793260Y-47402626D01*
X15700238Y-47541844D01*
X15581844Y-47660238D01*
X15511762Y-47707065D01*
X15442625Y-47753261D01*
X15287934Y-47817336D01*
X15123719Y-47850000D01*
X14956281Y-47850000D01*
X14792066Y-47817336D01*
X14637375Y-47753261D01*
X14568238Y-47707065D01*
X14498156Y-47660238D01*
X14379762Y-47541844D01*
X14286740Y-47402626D01*
X14286739Y-47402625D01*
X14222664Y-47247934D01*
X14190000Y-47083719D01*
X14190000Y-46916281D01*
X14222664Y-46752066D01*
X14286739Y-46597375D01*
X14379761Y-46458158D01*
X14379762Y-46458156D01*
X14498156Y-46339762D01*
X14637374Y-46246740D01*
X14637375Y-46246739D01*
X14792066Y-46182664D01*
X14956281Y-46150000D01*
X15123719Y-46150000D01*
X15287934Y-46182664D01*
G37*
G36*
X17827934Y-46182664D02*
G01*
X17982625Y-46246739D01*
X17982626Y-46246740D01*
X18121844Y-46339762D01*
X18240238Y-46458156D01*
X18240239Y-46458158D01*
X18333261Y-46597375D01*
X18397336Y-46752066D01*
X18430000Y-46916281D01*
X18430000Y-47083719D01*
X18397336Y-47247934D01*
X18333261Y-47402625D01*
X18333260Y-47402626D01*
X18240238Y-47541844D01*
X18121844Y-47660238D01*
X18051762Y-47707065D01*
X17982625Y-47753261D01*
X17827934Y-47817336D01*
X17663719Y-47850000D01*
X17496281Y-47850000D01*
X17332066Y-47817336D01*
X17177375Y-47753261D01*
X17108238Y-47707065D01*
X17038156Y-47660238D01*
X16919762Y-47541844D01*
X16826740Y-47402626D01*
X16826739Y-47402625D01*
X16762664Y-47247934D01*
X16730000Y-47083719D01*
X16730000Y-46916281D01*
X16762664Y-46752066D01*
X16826739Y-46597375D01*
X16919761Y-46458158D01*
X16919762Y-46458156D01*
X17038156Y-46339762D01*
X17177374Y-46246740D01*
X17177375Y-46246739D01*
X17332066Y-46182664D01*
X17496281Y-46150000D01*
X17663719Y-46150000D01*
X17827934Y-46182664D01*
G37*
G36*
X20367934Y-46182664D02*
G01*
X20522625Y-46246739D01*
X20522626Y-46246740D01*
X20661844Y-46339762D01*
X20780238Y-46458156D01*
X20780239Y-46458158D01*
X20873261Y-46597375D01*
X20937336Y-46752066D01*
X20970000Y-46916281D01*
X20970000Y-47083719D01*
X20937336Y-47247934D01*
X20873261Y-47402625D01*
X20873260Y-47402626D01*
X20780238Y-47541844D01*
X20661844Y-47660238D01*
X20591762Y-47707065D01*
X20522625Y-47753261D01*
X20367934Y-47817336D01*
X20203719Y-47850000D01*
X20036281Y-47850000D01*
X19872066Y-47817336D01*
X19717375Y-47753261D01*
X19648238Y-47707065D01*
X19578156Y-47660238D01*
X19459762Y-47541844D01*
X19366740Y-47402626D01*
X19366739Y-47402625D01*
X19302664Y-47247934D01*
X19270000Y-47083719D01*
X19270000Y-46916281D01*
X19302664Y-46752066D01*
X19366739Y-46597375D01*
X19459761Y-46458158D01*
X19459762Y-46458156D01*
X19578156Y-46339762D01*
X19717374Y-46246740D01*
X19717375Y-46246739D01*
X19872066Y-46182664D01*
X20036281Y-46150000D01*
X20203719Y-46150000D01*
X20367934Y-46182664D01*
G37*
G36*
X22907934Y-46182664D02*
G01*
X23062625Y-46246739D01*
X23062626Y-46246740D01*
X23201844Y-46339762D01*
X23320238Y-46458156D01*
X23320239Y-46458158D01*
X23413261Y-46597375D01*
X23477336Y-46752066D01*
X23510000Y-46916281D01*
X23510000Y-47083719D01*
X23477336Y-47247934D01*
X23413261Y-47402625D01*
X23413260Y-47402626D01*
X23320238Y-47541844D01*
X23201844Y-47660238D01*
X23131762Y-47707065D01*
X23062625Y-47753261D01*
X22907934Y-47817336D01*
X22743719Y-47850000D01*
X22576281Y-47850000D01*
X22412066Y-47817336D01*
X22257375Y-47753261D01*
X22188238Y-47707065D01*
X22118156Y-47660238D01*
X21999762Y-47541844D01*
X21906740Y-47402626D01*
X21906739Y-47402625D01*
X21842664Y-47247934D01*
X21810000Y-47083719D01*
X21810000Y-46916281D01*
X21842664Y-46752066D01*
X21906739Y-46597375D01*
X21999761Y-46458158D01*
X21999762Y-46458156D01*
X22118156Y-46339762D01*
X22257374Y-46246740D01*
X22257375Y-46246739D01*
X22412066Y-46182664D01*
X22576281Y-46150000D01*
X22743719Y-46150000D01*
X22907934Y-46182664D01*
G37*
G36*
X25447934Y-46182664D02*
G01*
X25602625Y-46246739D01*
X25602626Y-46246740D01*
X25741844Y-46339762D01*
X25860238Y-46458156D01*
X25860239Y-46458158D01*
X25953261Y-46597375D01*
X26017336Y-46752066D01*
X26050000Y-46916281D01*
X26050000Y-47083719D01*
X26017336Y-47247934D01*
X25953261Y-47402625D01*
X25953260Y-47402626D01*
X25860238Y-47541844D01*
X25741844Y-47660238D01*
X25671762Y-47707065D01*
X25602625Y-47753261D01*
X25447934Y-47817336D01*
X25283719Y-47850000D01*
X25116281Y-47850000D01*
X24952066Y-47817336D01*
X24797375Y-47753261D01*
X24728238Y-47707065D01*
X24658156Y-47660238D01*
X24539762Y-47541844D01*
X24446740Y-47402626D01*
X24446739Y-47402625D01*
X24382664Y-47247934D01*
X24350000Y-47083719D01*
X24350000Y-46916281D01*
X24382664Y-46752066D01*
X24446739Y-46597375D01*
X24539761Y-46458158D01*
X24539762Y-46458156D01*
X24658156Y-46339762D01*
X24797374Y-46246740D01*
X24797375Y-46246739D01*
X24952066Y-46182664D01*
X25116281Y-46150000D01*
X25283719Y-46150000D01*
X25447934Y-46182664D01*
G37*
G36*
X50847934Y-46182664D02*
G01*
X51002625Y-46246739D01*
X51002626Y-46246740D01*
X51141844Y-46339762D01*
X51260238Y-46458156D01*
X51260239Y-46458158D01*
X51353261Y-46597375D01*
X51417336Y-46752066D01*
X51450000Y-46916281D01*
X51450000Y-47083719D01*
X51417336Y-47247934D01*
X51353261Y-47402625D01*
X51353260Y-47402626D01*
X51260238Y-47541844D01*
X51141844Y-47660238D01*
X51071762Y-47707065D01*
X51002625Y-47753261D01*
X50847934Y-47817336D01*
X50683719Y-47850000D01*
X50516281Y-47850000D01*
X50352066Y-47817336D01*
X50197375Y-47753261D01*
X50128238Y-47707065D01*
X50058156Y-47660238D01*
X49939762Y-47541844D01*
X49846740Y-47402626D01*
X49846739Y-47402625D01*
X49782664Y-47247934D01*
X49750000Y-47083719D01*
X49750000Y-46916281D01*
X49782664Y-46752066D01*
X49846739Y-46597375D01*
X49939761Y-46458158D01*
X49939762Y-46458156D01*
X50058156Y-46339762D01*
X50197374Y-46246740D01*
X50197375Y-46246739D01*
X50352066Y-46182664D01*
X50516281Y-46150000D01*
X50683719Y-46150000D01*
X50847934Y-46182664D01*
G37*
G36*
X55927934Y-46182664D02*
G01*
X56082625Y-46246739D01*
X56082626Y-46246740D01*
X56221844Y-46339762D01*
X56340238Y-46458156D01*
X56340239Y-46458158D01*
X56433261Y-46597375D01*
X56497336Y-46752066D01*
X56530000Y-46916281D01*
X56530000Y-47083719D01*
X56497336Y-47247934D01*
X56433261Y-47402625D01*
X56433260Y-47402626D01*
X56340238Y-47541844D01*
X56221844Y-47660238D01*
X56151762Y-47707065D01*
X56082625Y-47753261D01*
X55927934Y-47817336D01*
X55763719Y-47850000D01*
X55596281Y-47850000D01*
X55432066Y-47817336D01*
X55277375Y-47753261D01*
X55208238Y-47707065D01*
X55138156Y-47660238D01*
X55019762Y-47541844D01*
X54926740Y-47402626D01*
X54926739Y-47402625D01*
X54862664Y-47247934D01*
X54830000Y-47083719D01*
X54830000Y-46916281D01*
X54862664Y-46752066D01*
X54926739Y-46597375D01*
X55019761Y-46458158D01*
X55019762Y-46458156D01*
X55138156Y-46339762D01*
X55277374Y-46246740D01*
X55277375Y-46246739D01*
X55432066Y-46182664D01*
X55596281Y-46150000D01*
X55763719Y-46150000D01*
X55927934Y-46182664D01*
G37*
G36*
X66087934Y-46182664D02*
G01*
X66242625Y-46246739D01*
X66242626Y-46246740D01*
X66381844Y-46339762D01*
X66500238Y-46458156D01*
X66500239Y-46458158D01*
X66593261Y-46597375D01*
X66657336Y-46752066D01*
X66690000Y-46916281D01*
X66690000Y-47083719D01*
X66657336Y-47247934D01*
X66593261Y-47402625D01*
X66593260Y-47402626D01*
X66500238Y-47541844D01*
X66381844Y-47660238D01*
X66311762Y-47707065D01*
X66242625Y-47753261D01*
X66087934Y-47817336D01*
X65923719Y-47850000D01*
X65756281Y-47850000D01*
X65592066Y-47817336D01*
X65437375Y-47753261D01*
X65368238Y-47707065D01*
X65298156Y-47660238D01*
X65179762Y-47541844D01*
X65086740Y-47402626D01*
X65086739Y-47402625D01*
X65022664Y-47247934D01*
X64990000Y-47083719D01*
X64990000Y-46916281D01*
X65022664Y-46752066D01*
X65086739Y-46597375D01*
X65179761Y-46458158D01*
X65179762Y-46458156D01*
X65298156Y-46339762D01*
X65437374Y-46246740D01*
X65437375Y-46246739D01*
X65592066Y-46182664D01*
X65756281Y-46150000D01*
X65923719Y-46150000D01*
X66087934Y-46182664D01*
G37*
G36*
X68627934Y-46182664D02*
G01*
X68782625Y-46246739D01*
X68782626Y-46246740D01*
X68921844Y-46339762D01*
X69040238Y-46458156D01*
X69040239Y-46458158D01*
X69133261Y-46597375D01*
X69197336Y-46752066D01*
X69230000Y-46916281D01*
X69230000Y-47083719D01*
X69197336Y-47247934D01*
X69133261Y-47402625D01*
X69133260Y-47402626D01*
X69040238Y-47541844D01*
X68921844Y-47660238D01*
X68851762Y-47707065D01*
X68782625Y-47753261D01*
X68627934Y-47817336D01*
X68463719Y-47850000D01*
X68296281Y-47850000D01*
X68132066Y-47817336D01*
X67977375Y-47753261D01*
X67908238Y-47707065D01*
X67838156Y-47660238D01*
X67719762Y-47541844D01*
X67626740Y-47402626D01*
X67626739Y-47402625D01*
X67562664Y-47247934D01*
X67530000Y-47083719D01*
X67530000Y-46916281D01*
X67562664Y-46752066D01*
X67626739Y-46597375D01*
X67719761Y-46458158D01*
X67719762Y-46458156D01*
X67838156Y-46339762D01*
X67977374Y-46246740D01*
X67977375Y-46246739D01*
X68132066Y-46182664D01*
X68296281Y-46150000D01*
X68463719Y-46150000D01*
X68627934Y-46182664D01*
G37*
G36*
X27987934Y-46182664D02*
G01*
X28142625Y-46246739D01*
X28142626Y-46246740D01*
X28281844Y-46339762D01*
X28400238Y-46458156D01*
X28400239Y-46458158D01*
X28493261Y-46597375D01*
X28557336Y-46752066D01*
X28590000Y-46916281D01*
X28590000Y-47083719D01*
X28557336Y-47247934D01*
X28493261Y-47402625D01*
X28493260Y-47402626D01*
X28400238Y-47541844D01*
X28281844Y-47660238D01*
X28211762Y-47707065D01*
X28142625Y-47753261D01*
X27987934Y-47817336D01*
X27823719Y-47850000D01*
X27656281Y-47850000D01*
X27492066Y-47817336D01*
X27337375Y-47753261D01*
X27268238Y-47707065D01*
X27198156Y-47660238D01*
X27079762Y-47541844D01*
X26986740Y-47402626D01*
X26986739Y-47402625D01*
X26922664Y-47247934D01*
X26890000Y-47083719D01*
X26890000Y-46916281D01*
X26922664Y-46752066D01*
X26986739Y-46597375D01*
X27079761Y-46458158D01*
X27079762Y-46458156D01*
X27198156Y-46339762D01*
X27337374Y-46246740D01*
X27337375Y-46246739D01*
X27492066Y-46182664D01*
X27656281Y-46150000D01*
X27823719Y-46150000D01*
X27987934Y-46182664D01*
G37*
G36*
X83867934Y-46182664D02*
G01*
X84022625Y-46246739D01*
X84022626Y-46246740D01*
X84161844Y-46339762D01*
X84280238Y-46458156D01*
X84280239Y-46458158D01*
X84373261Y-46597375D01*
X84437336Y-46752066D01*
X84470000Y-46916281D01*
X84470000Y-47083719D01*
X84437336Y-47247934D01*
X84373261Y-47402625D01*
X84373260Y-47402626D01*
X84280238Y-47541844D01*
X84161844Y-47660238D01*
X84091762Y-47707065D01*
X84022625Y-47753261D01*
X83867934Y-47817336D01*
X83703719Y-47850000D01*
X83536281Y-47850000D01*
X83372066Y-47817336D01*
X83217375Y-47753261D01*
X83148238Y-47707065D01*
X83078156Y-47660238D01*
X82959762Y-47541844D01*
X82866740Y-47402626D01*
X82866739Y-47402625D01*
X82802664Y-47247934D01*
X82770000Y-47083719D01*
X82770000Y-46916281D01*
X82802664Y-46752066D01*
X82866739Y-46597375D01*
X82959761Y-46458158D01*
X82959762Y-46458156D01*
X83078156Y-46339762D01*
X83217374Y-46246740D01*
X83217375Y-46246739D01*
X83372066Y-46182664D01*
X83536281Y-46150000D01*
X83703719Y-46150000D01*
X83867934Y-46182664D01*
G37*
G36*
X71167934Y-46182664D02*
G01*
X71322625Y-46246739D01*
X71322626Y-46246740D01*
X71461844Y-46339762D01*
X71580238Y-46458156D01*
X71580239Y-46458158D01*
X71673261Y-46597375D01*
X71737336Y-46752066D01*
X71770000Y-46916281D01*
X71770000Y-47083719D01*
X71737336Y-47247934D01*
X71673261Y-47402625D01*
X71673260Y-47402626D01*
X71580238Y-47541844D01*
X71461844Y-47660238D01*
X71391762Y-47707065D01*
X71322625Y-47753261D01*
X71167934Y-47817336D01*
X71003719Y-47850000D01*
X70836281Y-47850000D01*
X70672066Y-47817336D01*
X70517375Y-47753261D01*
X70448238Y-47707065D01*
X70378156Y-47660238D01*
X70259762Y-47541844D01*
X70166740Y-47402626D01*
X70166739Y-47402625D01*
X70102664Y-47247934D01*
X70070000Y-47083719D01*
X70070000Y-46916281D01*
X70102664Y-46752066D01*
X70166739Y-46597375D01*
X70259761Y-46458158D01*
X70259762Y-46458156D01*
X70378156Y-46339762D01*
X70517374Y-46246740D01*
X70517375Y-46246739D01*
X70672066Y-46182664D01*
X70836281Y-46150000D01*
X71003719Y-46150000D01*
X71167934Y-46182664D01*
G37*
G36*
X73707934Y-46182664D02*
G01*
X73862625Y-46246739D01*
X73862626Y-46246740D01*
X74001844Y-46339762D01*
X74120238Y-46458156D01*
X74120239Y-46458158D01*
X74213261Y-46597375D01*
X74277336Y-46752066D01*
X74310000Y-46916281D01*
X74310000Y-47083719D01*
X74277336Y-47247934D01*
X74213261Y-47402625D01*
X74213260Y-47402626D01*
X74120238Y-47541844D01*
X74001844Y-47660238D01*
X73931762Y-47707065D01*
X73862625Y-47753261D01*
X73707934Y-47817336D01*
X73543719Y-47850000D01*
X73376281Y-47850000D01*
X73212066Y-47817336D01*
X73057375Y-47753261D01*
X72988238Y-47707065D01*
X72918156Y-47660238D01*
X72799762Y-47541844D01*
X72706740Y-47402626D01*
X72706739Y-47402625D01*
X72642664Y-47247934D01*
X72610000Y-47083719D01*
X72610000Y-46916281D01*
X72642664Y-46752066D01*
X72706739Y-46597375D01*
X72799761Y-46458158D01*
X72799762Y-46458156D01*
X72918156Y-46339762D01*
X73057374Y-46246740D01*
X73057375Y-46246739D01*
X73212066Y-46182664D01*
X73376281Y-46150000D01*
X73543719Y-46150000D01*
X73707934Y-46182664D01*
G37*
G36*
X76247934Y-46182664D02*
G01*
X76402625Y-46246739D01*
X76402626Y-46246740D01*
X76541844Y-46339762D01*
X76660238Y-46458156D01*
X76660239Y-46458158D01*
X76753261Y-46597375D01*
X76817336Y-46752066D01*
X76850000Y-46916281D01*
X76850000Y-47083719D01*
X76817336Y-47247934D01*
X76753261Y-47402625D01*
X76753260Y-47402626D01*
X76660238Y-47541844D01*
X76541844Y-47660238D01*
X76471762Y-47707065D01*
X76402625Y-47753261D01*
X76247934Y-47817336D01*
X76083719Y-47850000D01*
X75916281Y-47850000D01*
X75752066Y-47817336D01*
X75597375Y-47753261D01*
X75528238Y-47707065D01*
X75458156Y-47660238D01*
X75339762Y-47541844D01*
X75246740Y-47402626D01*
X75246739Y-47402625D01*
X75182664Y-47247934D01*
X75150000Y-47083719D01*
X75150000Y-46916281D01*
X75182664Y-46752066D01*
X75246739Y-46597375D01*
X75339761Y-46458158D01*
X75339762Y-46458156D01*
X75458156Y-46339762D01*
X75597374Y-46246740D01*
X75597375Y-46246739D01*
X75752066Y-46182664D01*
X75916281Y-46150000D01*
X76083719Y-46150000D01*
X76247934Y-46182664D01*
G37*
G36*
X81327934Y-46182664D02*
G01*
X81482625Y-46246739D01*
X81482626Y-46246740D01*
X81621844Y-46339762D01*
X81740238Y-46458156D01*
X81740239Y-46458158D01*
X81833261Y-46597375D01*
X81897336Y-46752066D01*
X81930000Y-46916281D01*
X81930000Y-47083719D01*
X81897336Y-47247934D01*
X81833261Y-47402625D01*
X81833260Y-47402626D01*
X81740238Y-47541844D01*
X81621844Y-47660238D01*
X81551762Y-47707065D01*
X81482625Y-47753261D01*
X81327934Y-47817336D01*
X81163719Y-47850000D01*
X80996281Y-47850000D01*
X80832066Y-47817336D01*
X80677375Y-47753261D01*
X80608238Y-47707065D01*
X80538156Y-47660238D01*
X80419762Y-47541844D01*
X80326740Y-47402626D01*
X80326739Y-47402625D01*
X80262664Y-47247934D01*
X80230000Y-47083719D01*
X80230000Y-46916281D01*
X80262664Y-46752066D01*
X80326739Y-46597375D01*
X80419761Y-46458158D01*
X80419762Y-46458156D01*
X80538156Y-46339762D01*
X80677374Y-46246740D01*
X80677375Y-46246739D01*
X80832066Y-46182664D01*
X80996281Y-46150000D01*
X81163719Y-46150000D01*
X81327934Y-46182664D01*
G37*
G36*
X78787934Y-46182664D02*
G01*
X78942625Y-46246739D01*
X78942626Y-46246740D01*
X79081844Y-46339762D01*
X79200238Y-46458156D01*
X79200239Y-46458158D01*
X79293261Y-46597375D01*
X79357336Y-46752066D01*
X79390000Y-46916281D01*
X79390000Y-47083719D01*
X79357336Y-47247934D01*
X79293261Y-47402625D01*
X79293260Y-47402626D01*
X79200238Y-47541844D01*
X79081844Y-47660238D01*
X79011762Y-47707065D01*
X78942625Y-47753261D01*
X78787934Y-47817336D01*
X78623719Y-47850000D01*
X78456281Y-47850000D01*
X78292066Y-47817336D01*
X78137375Y-47753261D01*
X78068238Y-47707065D01*
X77998156Y-47660238D01*
X77879762Y-47541844D01*
X77786740Y-47402626D01*
X77786739Y-47402625D01*
X77722664Y-47247934D01*
X77690000Y-47083719D01*
X77690000Y-46916281D01*
X77722664Y-46752066D01*
X77786739Y-46597375D01*
X77879761Y-46458158D01*
X77879762Y-46458156D01*
X77998156Y-46339762D01*
X78137374Y-46246740D01*
X78137375Y-46246739D01*
X78292066Y-46182664D01*
X78456281Y-46150000D01*
X78623719Y-46150000D01*
X78787934Y-46182664D01*
G37*
G36*
X88947934Y-46182664D02*
G01*
X89102625Y-46246739D01*
X89102626Y-46246740D01*
X89241844Y-46339762D01*
X89360238Y-46458156D01*
X89360239Y-46458158D01*
X89453261Y-46597375D01*
X89517336Y-46752066D01*
X89550000Y-46916281D01*
X89550000Y-47083719D01*
X89517336Y-47247934D01*
X89453261Y-47402625D01*
X89453260Y-47402626D01*
X89360238Y-47541844D01*
X89241844Y-47660238D01*
X89171762Y-47707065D01*
X89102625Y-47753261D01*
X88947934Y-47817336D01*
X88783719Y-47850000D01*
X88616281Y-47850000D01*
X88452066Y-47817336D01*
X88297375Y-47753261D01*
X88228238Y-47707065D01*
X88158156Y-47660238D01*
X88039762Y-47541844D01*
X87946740Y-47402626D01*
X87946739Y-47402625D01*
X87882664Y-47247934D01*
X87850000Y-47083719D01*
X87850000Y-46916281D01*
X87882664Y-46752066D01*
X87946739Y-46597375D01*
X88039761Y-46458158D01*
X88039762Y-46458156D01*
X88158156Y-46339762D01*
X88297374Y-46246740D01*
X88297375Y-46246739D01*
X88452066Y-46182664D01*
X88616281Y-46150000D01*
X88783719Y-46150000D01*
X88947934Y-46182664D01*
G37*
G36*
X48307934Y-46182664D02*
G01*
X48462625Y-46246739D01*
X48462626Y-46246740D01*
X48601844Y-46339762D01*
X48720238Y-46458156D01*
X48720239Y-46458158D01*
X48813261Y-46597375D01*
X48877336Y-46752066D01*
X48910000Y-46916281D01*
X48910000Y-47083719D01*
X48877336Y-47247934D01*
X48813261Y-47402625D01*
X48813260Y-47402626D01*
X48720238Y-47541844D01*
X48601844Y-47660238D01*
X48531762Y-47707065D01*
X48462625Y-47753261D01*
X48307934Y-47817336D01*
X48143719Y-47850000D01*
X47976281Y-47850000D01*
X47812066Y-47817336D01*
X47657375Y-47753261D01*
X47588238Y-47707065D01*
X47518156Y-47660238D01*
X47399762Y-47541844D01*
X47306740Y-47402626D01*
X47306739Y-47402625D01*
X47242664Y-47247934D01*
X47210000Y-47083719D01*
X47210000Y-46916281D01*
X47242664Y-46752066D01*
X47306739Y-46597375D01*
X47399761Y-46458158D01*
X47399762Y-46458156D01*
X47518156Y-46339762D01*
X47657374Y-46246740D01*
X47657375Y-46246739D01*
X47812066Y-46182664D01*
X47976281Y-46150000D01*
X48143719Y-46150000D01*
X48307934Y-46182664D01*
G37*
G36*
X97628687Y-41755027D02*
G01*
X97806274Y-41790350D01*
X97997362Y-41869502D01*
X98169336Y-41984411D01*
X98315589Y-42130664D01*
X98430498Y-42302638D01*
X98509650Y-42493726D01*
X98550000Y-42696584D01*
X98550000Y-42903416D01*
X98509650Y-43106274D01*
X98430498Y-43297362D01*
X98315589Y-43469336D01*
X98169336Y-43615589D01*
X97997362Y-43730498D01*
X97806274Y-43809650D01*
X97628687Y-43844973D01*
X97603417Y-43850000D01*
X97396583Y-43850000D01*
X97371313Y-43844973D01*
X97193726Y-43809650D01*
X97002638Y-43730498D01*
X96830664Y-43615589D01*
X96684411Y-43469336D01*
X96569502Y-43297362D01*
X96490350Y-43106274D01*
X96450000Y-42903416D01*
X96450000Y-42696584D01*
X96490350Y-42493726D01*
X96569502Y-42302638D01*
X96684411Y-42130664D01*
X96830664Y-41984411D01*
X97002638Y-41869502D01*
X97193726Y-41790350D01*
X97371313Y-41755027D01*
X97396583Y-41750000D01*
X97603417Y-41750000D01*
X97628687Y-41755027D01*
G37*
G36*
X55128687Y-19955027D02*
G01*
X55306274Y-19990350D01*
X55497362Y-20069502D01*
X55669336Y-20184411D01*
X55815589Y-20330664D01*
X55930498Y-20502638D01*
X56009650Y-20693726D01*
X56050000Y-20896584D01*
X56050000Y-21103416D01*
X56009650Y-21306274D01*
X55930498Y-21497362D01*
X55815589Y-21669336D01*
X55669336Y-21815589D01*
X55497362Y-21930498D01*
X55306274Y-22009650D01*
X55128687Y-22044973D01*
X55103417Y-22050000D01*
X54896583Y-22050000D01*
X54871313Y-22044973D01*
X54693726Y-22009650D01*
X54502638Y-21930498D01*
X54330664Y-21815589D01*
X54184411Y-21669336D01*
X54069502Y-21497362D01*
X53990350Y-21306274D01*
X53950000Y-21103416D01*
X53950000Y-20896584D01*
X53990350Y-20693726D01*
X54069502Y-20502638D01*
X54184411Y-20330664D01*
X54330664Y-20184411D01*
X54502638Y-20069502D01*
X54693726Y-19990350D01*
X54871313Y-19955027D01*
X54896583Y-19950000D01*
X55103417Y-19950000D01*
X55128687Y-19955027D01*
G37*
G36*
X45128687Y-19955027D02*
G01*
X45306274Y-19990350D01*
X45497362Y-20069502D01*
X45669336Y-20184411D01*
X45815589Y-20330664D01*
X45930498Y-20502638D01*
X46009650Y-20693726D01*
X46050000Y-20896584D01*
X46050000Y-21103416D01*
X46009650Y-21306274D01*
X45930498Y-21497362D01*
X45815589Y-21669336D01*
X45669336Y-21815589D01*
X45497362Y-21930498D01*
X45306274Y-22009650D01*
X45128687Y-22044973D01*
X45103417Y-22050000D01*
X44896583Y-22050000D01*
X44871313Y-22044973D01*
X44693726Y-22009650D01*
X44502638Y-21930498D01*
X44330664Y-21815589D01*
X44184411Y-21669336D01*
X44069502Y-21497362D01*
X43990350Y-21306274D01*
X43950000Y-21103416D01*
X43950000Y-20896584D01*
X43990350Y-20693726D01*
X44069502Y-20502638D01*
X44184411Y-20330664D01*
X44330664Y-20184411D01*
X44502638Y-20069502D01*
X44693726Y-19990350D01*
X44871313Y-19955027D01*
X44896583Y-19950000D01*
X45103417Y-19950000D01*
X45128687Y-19955027D01*
G37*
G36*
X2928687Y-15555027D02*
G01*
X3106274Y-15590350D01*
X3297362Y-15669502D01*
X3469336Y-15784411D01*
X3615589Y-15930664D01*
X3730498Y-16102638D01*
X3809650Y-16293726D01*
X3850000Y-16496584D01*
X3850000Y-16703416D01*
X3809650Y-16906274D01*
X3730498Y-17097362D01*
X3615589Y-17269336D01*
X3469336Y-17415589D01*
X3297362Y-17530498D01*
X3106274Y-17609650D01*
X2928687Y-17644973D01*
X2903417Y-17650000D01*
X2696583Y-17650000D01*
X2671313Y-17644973D01*
X2493726Y-17609650D01*
X2302638Y-17530498D01*
X2130664Y-17415589D01*
X1984411Y-17269336D01*
X1869502Y-17097362D01*
X1790350Y-16906274D01*
X1750000Y-16703416D01*
X1750000Y-16496584D01*
X1790350Y-16293726D01*
X1869502Y-16102638D01*
X1984411Y-15930664D01*
X2130664Y-15784411D01*
X2302638Y-15669502D01*
X2493726Y-15590350D01*
X2671313Y-15555027D01*
X2696583Y-15550000D01*
X2903417Y-15550000D01*
X2928687Y-15555027D01*
G37*
G36*
X76444561Y-6623057D02*
G01*
X76502520Y-6634586D01*
X76666310Y-6702430D01*
X76813717Y-6800924D01*
X76939076Y-6926283D01*
X77037570Y-7073690D01*
X77105414Y-7237480D01*
X77140000Y-7411358D01*
X77140000Y-7588642D01*
X77105414Y-7762520D01*
X77037570Y-7926310D01*
X76939076Y-8073717D01*
X76813717Y-8199076D01*
X76666310Y-8297570D01*
X76502520Y-8365414D01*
X76444561Y-8376943D01*
X76328644Y-8400000D01*
X76151356Y-8400000D01*
X76035439Y-8376943D01*
X75977480Y-8365414D01*
X75813690Y-8297570D01*
X75666283Y-8199076D01*
X75540924Y-8073717D01*
X75442430Y-7926310D01*
X75374586Y-7762520D01*
X75340000Y-7588642D01*
X75340000Y-7411358D01*
X75374586Y-7237480D01*
X75442430Y-7073690D01*
X75540924Y-6926283D01*
X75666283Y-6800924D01*
X75813690Y-6702430D01*
X75977480Y-6634586D01*
X76035439Y-6623057D01*
X76151356Y-6600000D01*
X76328644Y-6600000D01*
X76444561Y-6623057D01*
G37*
G36*
X78984561Y-6623057D02*
G01*
X79042520Y-6634586D01*
X79206310Y-6702430D01*
X79353717Y-6800924D01*
X79479076Y-6926283D01*
X79577570Y-7073690D01*
X79645414Y-7237480D01*
X79680000Y-7411358D01*
X79680000Y-7588642D01*
X79645414Y-7762520D01*
X79577570Y-7926310D01*
X79479076Y-8073717D01*
X79353717Y-8199076D01*
X79206310Y-8297570D01*
X79042520Y-8365414D01*
X78984561Y-8376943D01*
X78868644Y-8400000D01*
X78691356Y-8400000D01*
X78575439Y-8376943D01*
X78517480Y-8365414D01*
X78353690Y-8297570D01*
X78206283Y-8199076D01*
X78080924Y-8073717D01*
X77982430Y-7926310D01*
X77914586Y-7762520D01*
X77880000Y-7588642D01*
X77880000Y-7411358D01*
X77914586Y-7237480D01*
X77982430Y-7073690D01*
X78080924Y-6926283D01*
X78206283Y-6800924D01*
X78353690Y-6702430D01*
X78517480Y-6634586D01*
X78575439Y-6623057D01*
X78691356Y-6600000D01*
X78868644Y-6600000D01*
X78984561Y-6623057D01*
G37*
G36*
X66600000Y-8400000D02*
G01*
X64800000Y-8400000D01*
X64800000Y-6600000D01*
X66600000Y-6600000D01*
X66600000Y-8400000D01*
G37*
G36*
X81524561Y-6623057D02*
G01*
X81582520Y-6634586D01*
X81746310Y-6702430D01*
X81893717Y-6800924D01*
X82019076Y-6926283D01*
X82117570Y-7073690D01*
X82185414Y-7237480D01*
X82220000Y-7411358D01*
X82220000Y-7588642D01*
X82185414Y-7762520D01*
X82117570Y-7926310D01*
X82019076Y-8073717D01*
X81893717Y-8199076D01*
X81746310Y-8297570D01*
X81582520Y-8365414D01*
X81524561Y-8376943D01*
X81408644Y-8400000D01*
X81231356Y-8400000D01*
X81115439Y-8376943D01*
X81057480Y-8365414D01*
X80893690Y-8297570D01*
X80746283Y-8199076D01*
X80620924Y-8073717D01*
X80522430Y-7926310D01*
X80454586Y-7762520D01*
X80420000Y-7588642D01*
X80420000Y-7411358D01*
X80454586Y-7237480D01*
X80522430Y-7073690D01*
X80620924Y-6926283D01*
X80746283Y-6800924D01*
X80893690Y-6702430D01*
X81057480Y-6634586D01*
X81115439Y-6623057D01*
X81231356Y-6600000D01*
X81408644Y-6600000D01*
X81524561Y-6623057D01*
G37*
G36*
X74600000Y-8400000D02*
G01*
X72800000Y-8400000D01*
X72800000Y-6600000D01*
X74600000Y-6600000D01*
X74600000Y-8400000D01*
G37*
G36*
X34424561Y-6623057D02*
G01*
X34482520Y-6634586D01*
X34646310Y-6702430D01*
X34793717Y-6800924D01*
X34919076Y-6926283D01*
X35017570Y-7073690D01*
X35085414Y-7237480D01*
X35120000Y-7411358D01*
X35120000Y-7588642D01*
X35085414Y-7762520D01*
X35017570Y-7926310D01*
X34919076Y-8073717D01*
X34793717Y-8199076D01*
X34646310Y-8297570D01*
X34482520Y-8365414D01*
X34424561Y-8376943D01*
X34308644Y-8400000D01*
X34131356Y-8400000D01*
X34015439Y-8376943D01*
X33957480Y-8365414D01*
X33793690Y-8297570D01*
X33646283Y-8199076D01*
X33520924Y-8073717D01*
X33422430Y-7926310D01*
X33354586Y-7762520D01*
X33320000Y-7588642D01*
X33320000Y-7411358D01*
X33354586Y-7237480D01*
X33422430Y-7073690D01*
X33520924Y-6926283D01*
X33646283Y-6800924D01*
X33793690Y-6702430D01*
X33957480Y-6634586D01*
X34015439Y-6623057D01*
X34131356Y-6600000D01*
X34308644Y-6600000D01*
X34424561Y-6623057D01*
G37*
G36*
X31884561Y-6623057D02*
G01*
X31942520Y-6634586D01*
X32106310Y-6702430D01*
X32253717Y-6800924D01*
X32379076Y-6926283D01*
X32477570Y-7073690D01*
X32545414Y-7237480D01*
X32580000Y-7411358D01*
X32580000Y-7588642D01*
X32545414Y-7762520D01*
X32477570Y-7926310D01*
X32379076Y-8073717D01*
X32253717Y-8199076D01*
X32106310Y-8297570D01*
X31942520Y-8365414D01*
X31884561Y-8376943D01*
X31768644Y-8400000D01*
X31591356Y-8400000D01*
X31475439Y-8376943D01*
X31417480Y-8365414D01*
X31253690Y-8297570D01*
X31106283Y-8199076D01*
X30980924Y-8073717D01*
X30882430Y-7926310D01*
X30814586Y-7762520D01*
X30780000Y-7588642D01*
X30780000Y-7411358D01*
X30814586Y-7237480D01*
X30882430Y-7073690D01*
X30980924Y-6926283D01*
X31106283Y-6800924D01*
X31253690Y-6702430D01*
X31417480Y-6634586D01*
X31475439Y-6623057D01*
X31591356Y-6600000D01*
X31768644Y-6600000D01*
X31884561Y-6623057D01*
G37*
G36*
X29344561Y-6623057D02*
G01*
X29402520Y-6634586D01*
X29566310Y-6702430D01*
X29713717Y-6800924D01*
X29839076Y-6926283D01*
X29937570Y-7073690D01*
X30005414Y-7237480D01*
X30040000Y-7411358D01*
X30040000Y-7588642D01*
X30005414Y-7762520D01*
X29937570Y-7926310D01*
X29839076Y-8073717D01*
X29713717Y-8199076D01*
X29566310Y-8297570D01*
X29402520Y-8365414D01*
X29344561Y-8376943D01*
X29228644Y-8400000D01*
X29051356Y-8400000D01*
X28935439Y-8376943D01*
X28877480Y-8365414D01*
X28713690Y-8297570D01*
X28566283Y-8199076D01*
X28440924Y-8073717D01*
X28342430Y-7926310D01*
X28274586Y-7762520D01*
X28240000Y-7588642D01*
X28240000Y-7411358D01*
X28274586Y-7237480D01*
X28342430Y-7073690D01*
X28440924Y-6926283D01*
X28566283Y-6800924D01*
X28713690Y-6702430D01*
X28877480Y-6634586D01*
X28935439Y-6623057D01*
X29051356Y-6600000D01*
X29228644Y-6600000D01*
X29344561Y-6623057D01*
G37*
G36*
X27500000Y-8400000D02*
G01*
X25700000Y-8400000D01*
X25700000Y-6600000D01*
X27500000Y-6600000D01*
X27500000Y-8400000D01*
G37*
G36*
X21344561Y-6623057D02*
G01*
X21402520Y-6634586D01*
X21566310Y-6702430D01*
X21713717Y-6800924D01*
X21839076Y-6926283D01*
X21937570Y-7073690D01*
X22005414Y-7237480D01*
X22040000Y-7411358D01*
X22040000Y-7588642D01*
X22005414Y-7762520D01*
X21937570Y-7926310D01*
X21839076Y-8073717D01*
X21713717Y-8199076D01*
X21566310Y-8297570D01*
X21402520Y-8365414D01*
X21344561Y-8376943D01*
X21228644Y-8400000D01*
X21051356Y-8400000D01*
X20935439Y-8376943D01*
X20877480Y-8365414D01*
X20713690Y-8297570D01*
X20566283Y-8199076D01*
X20440924Y-8073717D01*
X20342430Y-7926310D01*
X20274586Y-7762520D01*
X20240000Y-7588642D01*
X20240000Y-7411358D01*
X20274586Y-7237480D01*
X20342430Y-7073690D01*
X20440924Y-6926283D01*
X20566283Y-6800924D01*
X20713690Y-6702430D01*
X20877480Y-6634586D01*
X20935439Y-6623057D01*
X21051356Y-6600000D01*
X21228644Y-6600000D01*
X21344561Y-6623057D01*
G37*
G36*
X19500000Y-8400000D02*
G01*
X17700000Y-8400000D01*
X17700000Y-6600000D01*
X19500000Y-6600000D01*
X19500000Y-8400000D01*
G37*
G36*
X47484561Y-6623057D02*
G01*
X47542520Y-6634586D01*
X47706310Y-6702430D01*
X47853717Y-6800924D01*
X47979076Y-6926283D01*
X48077570Y-7073690D01*
X48145414Y-7237480D01*
X48180000Y-7411358D01*
X48180000Y-7588642D01*
X48145414Y-7762520D01*
X48077570Y-7926310D01*
X47979076Y-8073717D01*
X47853717Y-8199076D01*
X47706310Y-8297570D01*
X47542520Y-8365414D01*
X47484561Y-8376943D01*
X47368644Y-8400000D01*
X47191356Y-8400000D01*
X47075439Y-8376943D01*
X47017480Y-8365414D01*
X46853690Y-8297570D01*
X46706283Y-8199076D01*
X46580924Y-8073717D01*
X46482430Y-7926310D01*
X46414586Y-7762520D01*
X46380000Y-7588642D01*
X46380000Y-7411358D01*
X46414586Y-7237480D01*
X46482430Y-7073690D01*
X46580924Y-6926283D01*
X46706283Y-6800924D01*
X46853690Y-6702430D01*
X47017480Y-6634586D01*
X47075439Y-6623057D01*
X47191356Y-6600000D01*
X47368644Y-6600000D01*
X47484561Y-6623057D01*
G37*
G36*
X44944561Y-6623057D02*
G01*
X45002520Y-6634586D01*
X45166310Y-6702430D01*
X45313717Y-6800924D01*
X45439076Y-6926283D01*
X45537570Y-7073690D01*
X45605414Y-7237480D01*
X45640000Y-7411358D01*
X45640000Y-7588642D01*
X45605414Y-7762520D01*
X45537570Y-7926310D01*
X45439076Y-8073717D01*
X45313717Y-8199076D01*
X45166310Y-8297570D01*
X45002520Y-8365414D01*
X44944561Y-8376943D01*
X44828644Y-8400000D01*
X44651356Y-8400000D01*
X44535439Y-8376943D01*
X44477480Y-8365414D01*
X44313690Y-8297570D01*
X44166283Y-8199076D01*
X44040924Y-8073717D01*
X43942430Y-7926310D01*
X43874586Y-7762520D01*
X43840000Y-7588642D01*
X43840000Y-7411358D01*
X43874586Y-7237480D01*
X43942430Y-7073690D01*
X44040924Y-6926283D01*
X44166283Y-6800924D01*
X44313690Y-6702430D01*
X44477480Y-6634586D01*
X44535439Y-6623057D01*
X44651356Y-6600000D01*
X44828644Y-6600000D01*
X44944561Y-6623057D01*
G37*
G36*
X43100000Y-8400000D02*
G01*
X41300000Y-8400000D01*
X41300000Y-6600000D01*
X43100000Y-6600000D01*
X43100000Y-8400000D01*
G37*
G36*
X50024561Y-6623057D02*
G01*
X50082520Y-6634586D01*
X50246310Y-6702430D01*
X50393717Y-6800924D01*
X50519076Y-6926283D01*
X50617570Y-7073690D01*
X50685414Y-7237480D01*
X50720000Y-7411358D01*
X50720000Y-7588642D01*
X50685414Y-7762520D01*
X50617570Y-7926310D01*
X50519076Y-8073717D01*
X50393717Y-8199076D01*
X50246310Y-8297570D01*
X50082520Y-8365414D01*
X50024561Y-8376943D01*
X49908644Y-8400000D01*
X49731356Y-8400000D01*
X49615439Y-8376943D01*
X49557480Y-8365414D01*
X49393690Y-8297570D01*
X49246283Y-8199076D01*
X49120924Y-8073717D01*
X49022430Y-7926310D01*
X48954586Y-7762520D01*
X48920000Y-7588642D01*
X48920000Y-7411358D01*
X48954586Y-7237480D01*
X49022430Y-7073690D01*
X49120924Y-6926283D01*
X49246283Y-6800924D01*
X49393690Y-6702430D01*
X49557480Y-6634586D01*
X49615439Y-6623057D01*
X49731356Y-6600000D01*
X49908644Y-6600000D01*
X50024561Y-6623057D01*
G37*
G36*
X56100000Y-8400000D02*
G01*
X54300000Y-8400000D01*
X54300000Y-6600000D01*
X56100000Y-6600000D01*
X56100000Y-8400000D01*
G37*
G36*
X57944561Y-6623057D02*
G01*
X58002520Y-6634586D01*
X58166310Y-6702430D01*
X58313717Y-6800924D01*
X58439076Y-6926283D01*
X58537570Y-7073690D01*
X58605414Y-7237480D01*
X58640000Y-7411358D01*
X58640000Y-7588642D01*
X58605414Y-7762520D01*
X58537570Y-7926310D01*
X58439076Y-8073717D01*
X58313717Y-8199076D01*
X58166310Y-8297570D01*
X58002520Y-8365414D01*
X57944561Y-8376943D01*
X57828644Y-8400000D01*
X57651356Y-8400000D01*
X57535439Y-8376943D01*
X57477480Y-8365414D01*
X57313690Y-8297570D01*
X57166283Y-8199076D01*
X57040924Y-8073717D01*
X56942430Y-7926310D01*
X56874586Y-7762520D01*
X56840000Y-7588642D01*
X56840000Y-7411358D01*
X56874586Y-7237480D01*
X56942430Y-7073690D01*
X57040924Y-6926283D01*
X57166283Y-6800924D01*
X57313690Y-6702430D01*
X57477480Y-6634586D01*
X57535439Y-6623057D01*
X57651356Y-6600000D01*
X57828644Y-6600000D01*
X57944561Y-6623057D01*
G37*
G36*
X60484561Y-6623057D02*
G01*
X60542520Y-6634586D01*
X60706310Y-6702430D01*
X60853717Y-6800924D01*
X60979076Y-6926283D01*
X61077570Y-7073690D01*
X61145414Y-7237480D01*
X61180000Y-7411358D01*
X61180000Y-7588642D01*
X61145414Y-7762520D01*
X61077570Y-7926310D01*
X60979076Y-8073717D01*
X60853717Y-8199076D01*
X60706310Y-8297570D01*
X60542520Y-8365414D01*
X60484561Y-8376943D01*
X60368644Y-8400000D01*
X60191356Y-8400000D01*
X60075439Y-8376943D01*
X60017480Y-8365414D01*
X59853690Y-8297570D01*
X59706283Y-8199076D01*
X59580924Y-8073717D01*
X59482430Y-7926310D01*
X59414586Y-7762520D01*
X59380000Y-7588642D01*
X59380000Y-7411358D01*
X59414586Y-7237480D01*
X59482430Y-7073690D01*
X59580924Y-6926283D01*
X59706283Y-6800924D01*
X59853690Y-6702430D01*
X60017480Y-6634586D01*
X60075439Y-6623057D01*
X60191356Y-6600000D01*
X60368644Y-6600000D01*
X60484561Y-6623057D01*
G37*
G36*
X36964561Y-6623057D02*
G01*
X37022520Y-6634586D01*
X37186310Y-6702430D01*
X37333717Y-6800924D01*
X37459076Y-6926283D01*
X37557570Y-7073690D01*
X37625414Y-7237480D01*
X37660000Y-7411358D01*
X37660000Y-7588642D01*
X37625414Y-7762520D01*
X37557570Y-7926310D01*
X37459076Y-8073717D01*
X37333717Y-8199076D01*
X37186310Y-8297570D01*
X37022520Y-8365414D01*
X36964561Y-8376943D01*
X36848644Y-8400000D01*
X36671356Y-8400000D01*
X36555439Y-8376943D01*
X36497480Y-8365414D01*
X36333690Y-8297570D01*
X36186283Y-8199076D01*
X36060924Y-8073717D01*
X35962430Y-7926310D01*
X35894586Y-7762520D01*
X35860000Y-7588642D01*
X35860000Y-7411358D01*
X35894586Y-7237480D01*
X35962430Y-7073690D01*
X36060924Y-6926283D01*
X36186283Y-6800924D01*
X36333690Y-6702430D01*
X36497480Y-6634586D01*
X36555439Y-6623057D01*
X36671356Y-6600000D01*
X36848644Y-6600000D01*
X36964561Y-6623057D01*
G37*
G36*
X68444561Y-6623057D02*
G01*
X68502520Y-6634586D01*
X68666310Y-6702430D01*
X68813717Y-6800924D01*
X68939076Y-6926283D01*
X69037570Y-7073690D01*
X69105414Y-7237480D01*
X69140000Y-7411358D01*
X69140000Y-7588642D01*
X69105414Y-7762520D01*
X69037570Y-7926310D01*
X68939076Y-8073717D01*
X68813717Y-8199076D01*
X68666310Y-8297570D01*
X68502520Y-8365414D01*
X68444561Y-8376943D01*
X68328644Y-8400000D01*
X68151356Y-8400000D01*
X68035439Y-8376943D01*
X67977480Y-8365414D01*
X67813690Y-8297570D01*
X67666283Y-8199076D01*
X67540924Y-8073717D01*
X67442430Y-7926310D01*
X67374586Y-7762520D01*
X67340000Y-7588642D01*
X67340000Y-7411358D01*
X67374586Y-7237480D01*
X67442430Y-7073690D01*
X67540924Y-6926283D01*
X67666283Y-6800924D01*
X67813690Y-6702430D01*
X67977480Y-6634586D01*
X68035439Y-6623057D01*
X68151356Y-6600000D01*
X68328644Y-6600000D01*
X68444561Y-6623057D01*
G37*
G36*
X3579589Y-515330D02*
G01*
X3743807Y-547995D01*
X4207878Y-740220D01*
X4625530Y-1019286D01*
X4980714Y-1374470D01*
X5259780Y-1792122D01*
X5452005Y-2256193D01*
X5550000Y-2748847D01*
X5550000Y-3251153D01*
X5452005Y-3743807D01*
X5259780Y-4207878D01*
X4980714Y-4625530D01*
X4625530Y-4980714D01*
X4207878Y-5259780D01*
X3743807Y-5452005D01*
X3579589Y-5484670D01*
X3251155Y-5550000D01*
X2748845Y-5550000D01*
X2420411Y-5484670D01*
X2256193Y-5452005D01*
X1792122Y-5259780D01*
X1374470Y-4980714D01*
X1019286Y-4625530D01*
X740220Y-4207878D01*
X547995Y-3743807D01*
X450000Y-3251153D01*
X450000Y-2748847D01*
X547995Y-2256193D01*
X740220Y-1792122D01*
X1019286Y-1374470D01*
X1374470Y-1019286D01*
X1792122Y-740220D01*
X2256193Y-547995D01*
X2420411Y-515330D01*
X2748845Y-450000D01*
X3251155Y-450000D01*
X3579589Y-515330D01*
G37*
G36*
X97579589Y-515330D02*
G01*
X97743807Y-547995D01*
X98207878Y-740220D01*
X98625530Y-1019286D01*
X98980714Y-1374470D01*
X99259780Y-1792122D01*
X99452005Y-2256193D01*
X99550000Y-2748847D01*
X99550000Y-3251153D01*
X99452005Y-3743807D01*
X99259780Y-4207878D01*
X98980714Y-4625530D01*
X98625530Y-4980714D01*
X98207878Y-5259780D01*
X97743807Y-5452005D01*
X97579589Y-5484670D01*
X97251155Y-5550000D01*
X96748845Y-5550000D01*
X96420411Y-5484670D01*
X96256193Y-5452005D01*
X95792122Y-5259780D01*
X95374470Y-4980714D01*
X95019286Y-4625530D01*
X94740220Y-4207878D01*
X94547995Y-3743807D01*
X94450000Y-3251153D01*
X94450000Y-2748847D01*
X94547995Y-2256193D01*
X94740220Y-1792122D01*
X95019286Y-1374470D01*
X95374470Y-1019286D01*
X95792122Y-740220D01*
X96256193Y-547995D01*
X96420411Y-515330D01*
X96748845Y-450000D01*
X97251155Y-450000D01*
X97579589Y-515330D01*
G37*
M02*
